SplineFontDB: 3.0
FontName: CMUTypewriterVariable
FullName: CMU Typewriter Text Variable Width
FamilyName: CMU Typewriter Text Variable Width
Weight: Medium
Copyright: Converted by Andrey V. Panov from TeX fonts. Some glyphs are copied from Blue Sky fonts released by AMS.
UComments: "2009-6-18: Created." 
Version: 0.7.0
ItalicAngle: 0
UnderlinePosition: -100
UnderlineWidth: 50
Ascent: 800
Descent: 200
LayerCount: 2
Layer: 0 0 "+BBcEMAQ0BD0EOAQ5 +BD8EOwQwBD0A"  1
Layer: 1 0 "+BB8ENQRABDUENAQ9BDgEOQAA +BD8EOwQwBD0A"  0
NeedsXUIDChange: 1
XUID: [1067 8167905]
FSType: 0
OS2Version: 0
OS2_WeightWidthSlopeOnly: 0
OS2_UseTypoMetrics: 1
CreationTime: 1245313522
ModificationTime: 1245313972
PfmFamily: 17
TTFWeight: 500
TTFWidth: 5
LineGap: 200
VLineGap: 90
OS2TypoAscent: 0
OS2TypoAOffset: 1
OS2TypoDescent: 0
OS2TypoDOffset: 1
OS2TypoLinegap: 200
OS2WinAscent: 827
OS2WinAOffset: 0
OS2WinDescent: 233
OS2WinDOffset: 0
HheadAscent: 827
HheadAOffset: 0
HheadDescent: -233
HheadDOffset: 0
Lookup: 1 0 0 "Case substitutions"  {"Case substitutions subtable"  } ['case' ('cyrl' <'dflt' > 'grek' <'dflt' > 'latn' <'dflt' > ) ]
Lookup: 4 0 1 "Latin Dutch ligatures"  {"Latin Dutch ligatures subtable"  } ['liga' ('latn' <'NLD ' > ) ]
Lookup: 4 0 1 "Latin ligatures excepting Turkic"  {"Latin ligatures excepting Turkic subtable"  } ['liga' ('latn' <'dflt' 'NLD ' 'VIT ' > ) ]
Lookup: 4 0 1 "Latin ligatures"  {"Latin ligatures subtable"  } ['liga' ('latn' <'dflt' 'NLD ' 'VIT ' 'TRK ' 'AZE ' > ) ]
Lookup: 4 0 1 "Cyrillic ligatures"  {"Cyrillic ligatures subtable"  } ['liga' ('cyrl' <'dflt' 'MKD ' 'SRB ' > ) ]
Lookup: 3 0 0 "Latin alternatives"  {"Latin alternatives subtable"  } ['salt' ('latn' <'dflt' > ) ]
Lookup: 3 0 0 "Stilistic set 01"  {"Stilistic set 01 subtable"  } ['ss01' ('latn' <'dflt' > 'grek' <'dflt' > 'cyrl' <'dflt' > ) ]
Lookup: 1 0 0 "Latin Vietnamese substitutions"  {"Latin Vietnamese substitutions subtable"  } ['locl' ('latn' <'VIT ' > ) ]

StartChar: .notdef
Encoding: 0 0 0
Width: 525
Flags: HW
HStem: 10 60<105 420> 705 60<105 420>
VStem: 10 60<112 663> 455 60<112 663>
DStem2: 105 705 70 663 0.508289 -0.861187<18.3797 309.738 396.718 688.585> 70 112 105 70 0.508289 0.861187<0 291.358 378.338 670.205>
LayerCount: 2
Fore
SplineSet
10 10 m 1
 10 765 l 1
 515 765 l 1
 515 10 l 1
 10 10 l 1
70 112 m 1
 232 388 l 1
 70 663 l 1
 70 112 l 1
105 70 m 1
 420 70 l 1
 262 337 l 1
 105 70 l 1
105 705 m 1
 262 438 l 1
 420 705 l 1
 105 705 l 1
292 388 m 1
 455 112 l 1
 455 663 l 1
 292 388 l 1
EndSplineSet
EndChar

StartChar: SF100000
Encoding: 9472 9472 1
Width: 525
Flags: HW
HStem: 240 70<0 525>
LayerCount: 2
Fore
SplineSet
-0 240 m 1
 -0 310 l 1
 525 310 l 1
 525 240 l 1
 -0 240 l 1
EndSplineSet
EndChar

StartChar: SF110000
Encoding: 9474 9474 2
Width: 525
Flags: HW
VStem: 227 70<-355 837>
LayerCount: 2
Fore
SplineSet
227 -355 m 1
 227 837 l 1
 297 837 l 1
 297 -355 l 1
 227 -355 l 1
EndSplineSet
EndChar

StartChar: SF010000
Encoding: 9484 9484 3
Width: 525
Flags: HW
HStem: 240 70<297 525>
VStem: 227 70<-355 240>
LayerCount: 2
Fore
SplineSet
227 310 m 1
 525 310 l 1
 525 240 l 1
 297 240 l 1
 297 -355 l 1
 227 -355 l 1
 227 310 l 1
EndSplineSet
EndChar

StartChar: SF030000
Encoding: 9488 9488 4
Width: 525
Flags: HW
HStem: 240 70<0 227>
VStem: 227 70<-355 240>
LayerCount: 2
Fore
SplineSet
0 240 m 1
 0 310 l 1
 297 310 l 1
 297 -355 l 1
 227 -355 l 1
 227 240 l 1
 0 240 l 1
EndSplineSet
EndChar

StartChar: SF020000
Encoding: 9492 9492 5
Width: 525
Flags: HW
HStem: 240 70<297 525>
VStem: 227 70<310 837>
LayerCount: 2
Fore
SplineSet
227 240 m 1
 227 837 l 1
 297 837 l 1
 297 310 l 1
 525 310 l 1
 525 240 l 1
 227 240 l 1
EndSplineSet
EndChar

StartChar: SF040000
Encoding: 9496 9496 6
Width: 525
Flags: HW
HStem: 240 70<0 227>
VStem: 227 70<310 837>
LayerCount: 2
Fore
SplineSet
0 240 m 1
 0 310 l 1
 227 310 l 1
 227 837 l 1
 297 837 l 1
 297 240 l 1
 0 240 l 1
EndSplineSet
EndChar

StartChar: SF080000
Encoding: 9500 9500 7
Width: 525
Flags: HW
HStem: 240 70<297 525>
VStem: 227 70<-355 240 310 837>
LayerCount: 2
Fore
SplineSet
227 -355 m 1
 227 837 l 1
 297 837 l 1
 297 310 l 1
 525 310 l 1
 525 240 l 1
 297 240 l 1
 297 -355 l 1
 227 -355 l 1
EndSplineSet
EndChar

StartChar: SF090000
Encoding: 9508 9508 8
Width: 525
Flags: HW
HStem: 240 70<0 227>
VStem: 227 70<-355 240 310 837>
LayerCount: 2
Fore
SplineSet
0 240 m 1
 0 310 l 1
 227 310 l 1
 227 837 l 1
 297 837 l 1
 297 -355 l 1
 227 -355 l 1
 227 240 l 1
 0 240 l 1
EndSplineSet
EndChar

StartChar: SF060000
Encoding: 9516 9516 9
Width: 525
Flags: HW
HStem: 240 70<0 227 297 525>
VStem: 227 70<-355 240>
LayerCount: 2
Fore
SplineSet
0 240 m 1
 0 310 l 1
 525 310 l 1
 525 240 l 1
 297 240 l 1
 297 -355 l 1
 227 -355 l 1
 227 240 l 1
 0 240 l 1
EndSplineSet
EndChar

StartChar: SF070000
Encoding: 9524 9524 10
Width: 525
Flags: HW
HStem: 240 70<0 227 297 525>
VStem: 227 70<310 837>
LayerCount: 2
Fore
SplineSet
0 240 m 1
 0 310 l 1
 227 310 l 1
 227 837 l 1
 297 837 l 1
 297 310 l 1
 525 310 l 1
 525 240 l 1
 0 240 l 1
EndSplineSet
EndChar

StartChar: SF050000
Encoding: 9532 9532 11
Width: 525
Flags: HW
HStem: 240 70<0 227 297 525>
VStem: 227 70<-355 240 310 837>
LayerCount: 2
Fore
SplineSet
-0 240 m 1
 -0 310 l 1
 227 310 l 1
 227 837 l 1
 297 837 l 1
 297 310 l 1
 525 310 l 1
 525 240 l 1
 297 240 l 1
 297 -355 l 1
 227 -355 l 1
 227 240 l 1
 -0 240 l 1
EndSplineSet
EndChar

StartChar: SF510000
Encoding: 9554 9554 14
Width: 525
Flags: HW
HStem: 160 70<297 525> 320 70<297 525>
VStem: 227 70<-355 160 230 320>
LayerCount: 2
Fore
SplineSet
227 -355 m 1
 227 390 l 1
 525 390 l 1
 525 320 l 1
 297 320 l 1
 297 230 l 1
 525 230 l 1
 525 160 l 1
 297 160 l 1
 297 -355 l 1
 227 -355 l 1
EndSplineSet
EndChar

StartChar: SF520000
Encoding: 9555 9555 15
Width: 525
Flags: HW
HStem: 240 70<217 307 377 525>
VStem: 147 70<-355 240> 307 70<-355 240>
LayerCount: 2
Fore
SplineSet
147 310 m 1
 525 310 l 1
 525 240 l 1
 377 240 l 1
 377 -355 l 1
 307 -355 l 1
 307 240 l 1
 217 240 l 1
 217 -355 l 1
 147 -355 l 1
 147 310 l 1
EndSplineSet
EndChar

StartChar: SF390000
Encoding: 9556 9556 16
Width: 525
Flags: HW
HStem: 160 70<377 525> 320 70<217 525>
VStem: 147 70<-355 320> 307 70<-355 160>
LayerCount: 2
Fore
SplineSet
147 -355 m 1
 147 390 l 1
 525 390 l 1
 525 320 l 1
 217 320 l 1
 217 -355 l 1
 147 -355 l 1
307 230 m 1
 525 230 l 1
 525 160 l 1
 377 160 l 1
 377 -355 l 1
 307 -355 l 1
 307 230 l 1
EndSplineSet
EndChar

StartChar: SF220000
Encoding: 9557 9557 17
Width: 525
Flags: HW
HStem: 160 70<0 227> 320 70<0 227>
VStem: 227 70<-355 160 230 320>
LayerCount: 2
Fore
SplineSet
0 160 m 1
 0 230 l 1
 227 230 l 1
 227 320 l 1
 0 320 l 1
 0 390 l 1
 297 390 l 1
 297 -355 l 1
 227 -355 l 1
 227 160 l 1
 0 160 l 1
EndSplineSet
EndChar

StartChar: SF210000
Encoding: 9558 9558 18
Width: 525
Flags: HW
HStem: 240 70<0 147 217 307>
VStem: 147 70<-355 240> 307 70<-355 240>
LayerCount: 2
Fore
SplineSet
0 240 m 1
 0 310 l 1
 377 310 l 1
 377 -355 l 1
 307 -355 l 1
 307 240 l 1
 217 240 l 1
 217 -355 l 1
 147 -355 l 1
 147 240 l 1
 0 240 l 1
EndSplineSet
EndChar

StartChar: SF250000
Encoding: 9559 9559 19
Width: 525
Flags: HW
HStem: 160 70<0 147> 320 70<0 307>
VStem: 147 70<-355 160> 307 70<-355 320>
LayerCount: 2
Fore
SplineSet
0 160 m 1
 0 230 l 1
 217 230 l 1
 217 -355 l 1
 147 -355 l 1
 147 160 l 1
 0 160 l 1
0 320 m 1
 0 390 l 1
 377 390 l 1
 377 -355 l 1
 307 -355 l 1
 307 320 l 1
 0 320 l 1
EndSplineSet
EndChar

StartChar: SF500000
Encoding: 9560 9560 20
Width: 525
Flags: HW
HStem: 160 70<297 525> 320 70<297 525>
VStem: 227 70<230 320 390 837>
LayerCount: 2
Fore
SplineSet
227 160 m 1
 227 837 l 1
 297 837 l 1
 297 390 l 1
 525 390 l 1
 525 320 l 1
 297 320 l 1
 297 230 l 1
 525 230 l 1
 525 160 l 1
 227 160 l 1
EndSplineSet
EndChar

StartChar: SF490000
Encoding: 9561 9561 21
Width: 525
Flags: HW
HStem: 240 70<217 307 377 525>
VStem: 147 70<310 837> 307 70<310 837>
LayerCount: 2
Fore
SplineSet
147 240 m 1
 147 837 l 1
 217 837 l 1
 217 310 l 1
 307 310 l 1
 307 837 l 1
 377 837 l 1
 377 310 l 1
 525 310 l 1
 525 240 l 1
 147 240 l 1
EndSplineSet
EndChar

StartChar: SF380000
Encoding: 9562 9562 22
Width: 525
Flags: HW
HStem: 160 70<217 525> 320 70<377 525>
VStem: 147 70<230 837> 307 70<390 837>
LayerCount: 2
Fore
SplineSet
147 160 m 1
 147 837 l 1
 217 837 l 1
 217 230 l 1
 525 230 l 1
 525 160 l 1
 147 160 l 1
307 320 m 1
 307 837 l 1
 377 837 l 1
 377 390 l 1
 525 390 l 1
 525 320 l 1
 307 320 l 1
EndSplineSet
EndChar

StartChar: SF280000
Encoding: 9563 9563 23
Width: 525
Flags: HW
HStem: 160 70<0 227> 320 70<0 227>
VStem: 227 70<230 320 390 837>
LayerCount: 2
Fore
SplineSet
0 160 m 1
 0 230 l 1
 227 230 l 1
 227 320 l 1
 0 320 l 1
 0 390 l 1
 227 390 l 1
 227 837 l 1
 297 837 l 1
 297 160 l 1
 0 160 l 1
EndSplineSet
EndChar

StartChar: SF270000
Encoding: 9564 9564 24
Width: 525
Flags: HW
HStem: 240 70<0 147 217 307>
VStem: 147 70<310 837> 307 70<310 837>
LayerCount: 2
Fore
SplineSet
0 240 m 1
 0 310 l 1
 147 310 l 1
 147 837 l 1
 217 837 l 1
 217 310 l 1
 307 310 l 1
 307 837 l 1
 377 837 l 1
 377 240 l 1
 0 240 l 1
EndSplineSet
EndChar

StartChar: SF260000
Encoding: 9565 9565 25
Width: 525
Flags: HW
HStem: 160 70<0 307> 320 70<0 147>
VStem: 147 70<390 837> 307 70<230 837>
LayerCount: 2
Fore
SplineSet
0 160 m 1
 0 230 l 1
 307 230 l 1
 307 837 l 1
 377 837 l 1
 377 160 l 1
 0 160 l 1
0 320 m 1
 0 390 l 1
 147 390 l 1
 147 837 l 1
 217 837 l 1
 217 320 l 1
 0 320 l 1
EndSplineSet
EndChar

StartChar: SF360000
Encoding: 9566 9566 26
Width: 525
Flags: HW
HStem: 160 70<297 525> 320 70<297 525>
VStem: 227 70<-355 160 230 320 390 837>
LayerCount: 2
Fore
SplineSet
227 -355 m 1
 227 837 l 1
 297 837 l 1
 297 390 l 1
 525 390 l 1
 525 320 l 1
 297 320 l 1
 297 230 l 1
 525 230 l 1
 525 160 l 1
 297 160 l 1
 297 -355 l 1
 227 -355 l 1
EndSplineSet
EndChar

StartChar: SF370000
Encoding: 9567 9567 27
Width: 525
Flags: HW
HStem: 240 70<377 525>
VStem: 147 70<-355 837> 307 70<-355 240 310 837>
LayerCount: 2
Fore
SplineSet
307 -355 m 1
 307 837 l 1
 377 837 l 1
 377 310 l 1
 525 310 l 1
 525 240 l 1
 377 240 l 1
 377 -355 l 1
 307 -355 l 1
EndSplineSet
Refer: 2 9474 S 1 0 0 1 -80 0 2
EndChar

StartChar: SF420000
Encoding: 9568 9568 28
Width: 525
Flags: HW
HStem: 160 70<377 525> 320 70<377 525>
VStem: 147 70<-355 837> 307 218<160 230 320 390> 307 70<-355 160 390 837>
LayerCount: 2
Fore
SplineSet
307 230 m 1xf0
 525 230 l 1
 525 160 l 1xf0
 377 160 l 1
 377 -355 l 1
 307 -355 l 1xe8
 307 230 l 1xf0
307 320 m 1xf0
 307 837 l 1
 377 837 l 1
 377 390 l 1xe8
 525 390 l 1
 525 320 l 1
 307 320 l 1xf0
EndSplineSet
Refer: 2 9474 S 1 0 0 1 -80 0 2
EndChar

StartChar: SF190000
Encoding: 9569 9569 29
Width: 525
Flags: HW
HStem: 160 70<0 227> 320 70<0 227>
VStem: 227 70<-355 160 230 320 390 837>
LayerCount: 2
Fore
SplineSet
0 160 m 1
 0 230 l 1
 227 230 l 1
 227 320 l 1
 0 320 l 1
 0 390 l 1
 227 390 l 1
 227 837 l 1
 297 837 l 1
 297 -355 l 1
 227 -355 l 1
 227 160 l 1
 0 160 l 1
EndSplineSet
EndChar

StartChar: SF200000
Encoding: 9570 9570 30
Width: 525
Flags: HW
HStem: 240 70<0 147>
VStem: 147 70<-355 240 310 837> 307 70<-355 837>
LayerCount: 2
Fore
SplineSet
0 240 m 1
 0 310 l 1
 147 310 l 1
 147 837 l 1
 217 837 l 1
 217 -355 l 1
 147 -355 l 1
 147 240 l 1
 0 240 l 1
EndSplineSet
Refer: 2 9474 S 1 0 0 1 80 0 2
EndChar

StartChar: SF230000
Encoding: 9571 9571 31
Width: 525
Flags: HW
HStem: 160 70<0 147> 320 70<0 147>
VStem: 0 217<160 230 320 390> 147 70<-355 160 390 837> 307 70<-355 837>
LayerCount: 2
Fore
SplineSet
0 160 m 1
 0 230 l 1
 217 230 l 1xe8
 217 -355 l 1
 147 -355 l 1
 147 160 l 1xd8
 0 160 l 1
0 320 m 1xe8
 0 390 l 1xe8
 147 390 l 1
 147 837 l 1
 217 837 l 1xd8
 217 320 l 1
 0 320 l 1xe8
EndSplineSet
Refer: 2 9474 S 1 0 0 1 80 0 2
EndChar

StartChar: SF470000
Encoding: 9572 9572 32
Width: 525
Flags: HW
HStem: 160 70<0 227 297 525> 320 70<0 525>
VStem: 227 70<-355 160>
LayerCount: 2
Fore
SplineSet
0 160 m 1
 0 230 l 1
 525 230 l 1
 525 160 l 1
 297 160 l 1
 297 -355 l 1
 227 -355 l 1
 227 160 l 1
 0 160 l 1
EndSplineSet
Refer: 1 9472 S 1 0 0 1 0 80 2
EndChar

StartChar: SF480000
Encoding: 9573 9573 33
Width: 525
Flags: HW
HStem: 240 70<0 147 217 307 377 525>
VStem: 147 70<-355 240> 307 70<-355 240>
LayerCount: 2
Fore
SplineSet
0 240 m 1
 0 310 l 1
 525 310 l 1
 525 240 l 1
 377 240 l 1
 377 -355 l 1
 307 -355 l 1
 307 240 l 1
 217 240 l 1
 217 -355 l 1
 147 -355 l 1
 147 240 l 1
 0 240 l 1
EndSplineSet
EndChar

StartChar: SF410000
Encoding: 9574 9574 34
Width: 525
Flags: HW
HStem: 160 70<0 147 377 525> 320 70<0 525>
VStem: 147 70<-355 160> 307 70<-355 160>
LayerCount: 2
Fore
SplineSet
0 160 m 1
 0 230 l 1
 217 230 l 1
 217 -355 l 1
 147 -355 l 1
 147 160 l 1
 0 160 l 1
307 230 m 1
 525 230 l 1
 525 160 l 1
 377 160 l 1
 377 -355 l 1
 307 -355 l 1
 307 230 l 1
EndSplineSet
Refer: 1 9472 S 1 0 0 1 0 80 2
EndChar

StartChar: SF450000
Encoding: 9575 9575 35
Width: 525
Flags: HW
HStem: 160 70<0 525> 320 70<0 227 297 525>
VStem: 227 70<390 837>
LayerCount: 2
Fore
SplineSet
0 320 m 1
 0 390 l 1
 227 390 l 1
 227 837 l 1
 297 837 l 1
 297 390 l 1
 525 390 l 1
 525 320 l 1
 0 320 l 1
EndSplineSet
Refer: 1 9472 S 1 0 0 1 0 -80 2
EndChar

StartChar: SF460000
Encoding: 9576 9576 36
Width: 525
Flags: HW
HStem: 240 70<0 147 217 307 377 525>
VStem: 147 70<310 837> 307 70<310 837>
LayerCount: 2
Fore
SplineSet
0 240 m 1
 0 310 l 1
 147 310 l 1
 147 837 l 1
 217 837 l 1
 217 310 l 1
 307 310 l 1
 307 837 l 1
 377 837 l 1
 377 310 l 1
 525 310 l 1
 525 240 l 1
 0 240 l 1
EndSplineSet
EndChar

StartChar: SF400000
Encoding: 9577 9577 37
Width: 525
Flags: HW
HStem: 160 70<0 525> 320 70<0 147 377 525>
VStem: 147 70<390 837> 307 70<390 837>
LayerCount: 2
Fore
SplineSet
0 320 m 1
 0 390 l 1
 147 390 l 1
 147 837 l 1
 217 837 l 1
 217 320 l 1
 0 320 l 1
307 320 m 1
 307 837 l 1
 377 837 l 1
 377 390 l 1
 525 390 l 1
 525 320 l 1
 307 320 l 1
EndSplineSet
Refer: 1 9472 S 1 0 0 1 0 -80 2
EndChar

StartChar: SF540000
Encoding: 9578 9578 38
Width: 525
Flags: HW
HStem: 160 70<0 227 297 525> 320 70<0 227 297 525>
VStem: 227 70<-355 160 230 320 390 837>
LayerCount: 2
Fore
SplineSet
0 160 m 1
 0 230 l 1
 227 230 l 1
 227 320 l 1
 0 320 l 1
 0 390 l 1
 227 390 l 1
 227 837 l 1
 297 837 l 1
 297 390 l 1
 525 390 l 1
 525 320 l 1
 297 320 l 1
 297 230 l 1
 525 230 l 1
 525 160 l 1
 297 160 l 1
 297 -355 l 1
 227 -355 l 1
 227 160 l 1
 0 160 l 1
EndSplineSet
EndChar

StartChar: SF530000
Encoding: 9579 9579 39
Width: 525
Flags: HW
HStem: 240 70<0 147 217 307 377 525>
VStem: 147 70<-355 240 310 837> 307 70<-355 240 310 837>
LayerCount: 2
Fore
SplineSet
-0 240 m 1
 -0 310 l 1
 147 310 l 1
 147 837 l 1
 217 837 l 1
 217 310 l 1
 307 310 l 1
 307 837 l 1
 377 837 l 1
 377 310 l 1
 525 310 l 1
 525 240 l 1
 377 240 l 1
 377 -355 l 1
 307 -355 l 1
 307 240 l 1
 217 240 l 1
 217 -355 l 1
 147 -355 l 1
 147 240 l 1
 -0 240 l 1
EndSplineSet
EndChar

StartChar: uni262D
Encoding: 9773 9773 40
Width: 525
Flags: HW
TeX: 117 0
HStem: 0 20G<30.5 60.5 462.5 467> 39 76<244.267 355.503> 102 51<98.531 128.337>
VStem: 89 43<98.6716 137.734> 431 65<186.303 382.211>
DStem2: 84 357 128 301 0.626941 0.779067<0 63.6069 102.652 165.701>
LayerCount: 2
Fore
SplineSet
18 18 m 0
 18 64 89 102 89 128 c 0
 89 148 93 153 104 153 c 0xb8
 115 153 118 159 132 180 c 1
 175 152 232 115 298 115 c 0
 336 115 356 128 356 129 c 0
 356 135 311 186 178 363 c 1
 128 301 l 1
 84 357 l 1
 188 486 l 1
 264 470 l 1
 203 393 l 1
 373 190 l 1
 396 165 l 1
 401 165 431 218 431 295 c 0
 431 473 263 587 263 593 c 1
 301 593 496 478 496 267 c 0
 496 167 458 114 450 100 c 1
 493 46 496 44 496 38 c 0
 496 17 470 -1 464 -1 c 0xd8
 461 -1 462 -3 409 62 c 1
 387 51 366 39 328 39 c 0xd8
 225 39 147 138 136 138 c 0
 132 138 132 134 132 130 c 2
 132 118 l 2
 132 108 128 102 120 102 c 0
 91 102 84 0 37 0 c 0
 24 0 18 7 18 18 c 0
EndSplineSet
EndChar

StartChar: circumflex.cap
Encoding: 65536 -1 41
Width: 525
Flags: HW
HStem: 659 165
VStem: 100 326<683 712>
AnchorPoint: "above" 263 622 mark 0
LayerCount: 2
Fore
SplineSet
100 697 m 0
 100 712 110 721 118 726 c 0
 248 824 254 824 262 824 c 0
 274 824 284 815 294 809 c 1
 424 713 426 715 426 697 c 0
 426 683 408 659 390 659 c 0
 370 659 356 680 262 751 c 1
 156 668 150 659 136 659 c 0
 116 659 100 682 100 697 c 0
EndSplineSet
EndChar

StartChar: dieresis.cap
Encoding: 65537 -1 42
Width: 525
Flags: HW
HStem: 719 100<119.954 201.002 324.332 405.407>
VStem: 110 100<728.526 809.474> 316 99<728.526 809.474>
AnchorPoint: "above" 262 622 mark 0
LayerCount: 2
Fore
SplineSet
110 769 m 0
 110 794 132 819 160 819 c 0
 186 819 210 798 210 769 c 0
 210 740 188 719 162 719 c 0
 132 719 110 742 110 769 c 0
316 769 m 0
 316 798 338 819 364 819 c 0
 394 819 415 793 415 769 c 0
 415 744 394 719 364 719 c 0
 338 719 316 740 316 769 c 0
EndSplineSet
EndChar

StartChar: dotaccent.cap
Encoding: 65538 -1 43
Width: 525
Flags: HW
HStem: 672 100<221.492 303.035>
VStem: 212 100<681.526 762.474>
AnchorPoint: "above" 262 622 mark 0
LayerCount: 2
Fore
SplineSet
212 722 m 0
 212 751 238 772 262 772 c 0
 288 772 312 751 312 722 c 0
 312 693 288 672 264 672 c 0
 234 672 212 695 212 722 c 0
EndSplineSet
EndChar

StartChar: caron.cap
Encoding: 65539 -1 44
Width: 525
Flags: HW
HStem: 636 75<238.125 286.532>
VStem: 118 290<762 791>
AnchorPoint: "above" 263 622 mark 0
LayerCount: 2
Fore
SplineSet
118 776 m 0
 118 791 132 804 148 804 c 0
 163 804 183 780 262 711 c 1
 264 711 l 1
 274 721 334 776 346 785 c 1
 356 795 366 804 378 804 c 0
 386 804 408 799 408 771 c 0
 408 762 402 756 288 649 c 0
 282 643 274 636 262 636 c 0
 252 636 242 643 236 649 c 0
 118 762 118 759 118 776 c 0
EndSplineSet
EndChar

StartChar: ring.cap
Encoding: 65540 -1 45
Width: 525
Flags: HW
HStem: 590 62<217.275 307.522> 766 61<219.31 307.982>
VStem: 146 59<665.446 752.759> 320 59<664.797 753.074>
AnchorPoint: "above" 262 622 mark 0
LayerCount: 2
Fore
SplineSet
146 709 m 0
 146 769 193 827 262 827 c 0
 322 827 379 780 379 709 c 0
 379 648 332 590 263 590 c 0
 204 590 146 638 146 709 c 0
205 709 m 0
 205 680 228 652 263 652 c 0
 296 652 320 680 320 709 c 0
 320 739 297 766 263 766 c 0
 229 766 205 737 205 709 c 0
EndSplineSet
EndChar

StartChar: breve.cap
Encoding: 65541 -1 46
Width: 525
Flags: HW
HStem: 652 64<181.842 344.183>
VStem: 86 63<745.585 817.257> 377 62<746.691 817.761>
AnchorPoint: "above" 262 622 mark 0
LayerCount: 2
Fore
SplineSet
86 788 m 0
 86 807 98 819 116 819 c 0
 149 819 147 787 149 779 c 0
 157 742 204 716 263 716 c 0
 310 716 370 736 377 786 c 0
 378 798 381 819 408 819 c 0
 426 819 439 807 439 787 c 0
 439 712 362 652 262 652 c 0
 157 652 86 716 86 788 c 0
EndSplineSet
EndChar

StartChar: grave
Encoding: 96 96 47
Width: 525
Flags: HW
TeX: 610 0
VStem: 108 213<546 604>
LayerCount: 2
Fore
SplineSet
108 604 m 0
 108 624 125 639 142 639 c 2
 144 639 l 2
 153 639 155 637 293 577 c 0
 304 572 321 564 321 546 c 0
 321 531 309 506 288 506 c 2
 287 506 l 2
 279 506 277 508 139 568 c 0
 127 574 108 582 108 604 c 0
EndSplineSet
EndChar

StartChar: acute
Encoding: 180 180 48
Width: 525
Flags: HW
TeX: 610 0
VStem: 202 213<546 604>
LayerCount: 2
Fore
SplineSet
202 546 m 0
 202 567 221 573 232 578 c 0
 365 636 371 639 378 639 c 2
 380 639 l 2
 397 639 415 625 415 604 c 0
 415 582 397 573 385 568 c 0
 241 505 246 506 236 506 c 0
 214 506 202 532 202 546 c 0
EndSplineSet
EndChar

StartChar: circumflex
Encoding: 710 710 49
Width: 525
Flags: HW
TeX: 638 0
HStem: 568 76<227.716 297.598>
VStem: 100 325<514 543>
LayerCount: 2
Fore
SplineSet
100 527 m 0
 100 543 111 550 122 557 c 0
 247 640 250 644 262 644 c 2
 263 644 l 2
 273 644 274 643 402 558 c 0
 410 553 425 544 425 526 c 0
 425 514 410 488 390 488 c 2
 388 488 l 2
 367 488 277 568 262 568 c 0
 255 568 249 562 231 549 c 0
 160 498 149 488 135 488 c 0
 115 488 100 513 100 527 c 0
EndSplineSet
EndChar

StartChar: tilde
Encoding: 732 732 50
Width: 525
Flags: HW
TeX: 638 0
HStem: 491 66<280.677 356.161> 544 67<167.847 243.712>
LayerCount: 2
Fore
SplineSet
88 523 m 0
 88 536 96 544 104 551 c 0
 159 602 192 611 214 611 c 0x40
 268 611 288 557 313 557 c 0
 346 557 382 610 404 610 c 0
 420 610 436 596 436 579 c 0
 436 566 427 558 420 551 c 0
 398 530 353 491 309 491 c 0x80
 253 491 239 544 211 544 c 0x40
 179 544 142 491 119 491 c 0x80
 100 491 88 509 88 523 c 0
EndSplineSet
EndChar

StartChar: dieresis
Encoding: 168 168 51
Width: 525
Flags: HW
TeX: 610 0
HStem: 511 100<119.117 201.035 323.232 405.035>
VStem: 110 100<519.701 602.162> 314 100<519.438 601.474>
LayerCount: 2
Fore
SplineSet
110 560 m 0
 110 588 132 611 160 611 c 0
 186 611 210 590 210 561 c 0
 210 534 189 511 160 511 c 0
 134 511 110 531 110 560 c 0
314 560 m 0
 314 587 336 611 364 611 c 0
 390 611 414 590 414 561 c 0
 414 533 393 511 364 511 c 0
 334 511 314 535 314 560 c 0
EndSplineSet
EndChar

StartChar: hungarumlaut
Encoding: 733 733 52
Width: 525
Flags: HW
TeX: 610 0
ItalicCorrection: 7
LayerCount: 2
Fore
SplineSet
115 546 m 0
 115 565 132 572 143 577 c 0
 283 638 283 639 293 639 c 0
 314 639 328 622 328 604 c 0
 328 589 319 580 314 575 c 1
 450 634 457 639 468 639 c 0
 489 639 503 622 503 604 c 0
 503 582 484 572 471 567 c 0
 352 515 333 506 323 506 c 0
 306 506 290 525 290 545 c 0
 290 560 298 565 301 569 c 1
 159 507 158 506 150 506 c 2
 149 506 l 2
 122 506 115 540 115 546 c 0
EndSplineSet
EndChar

StartChar: ring
Encoding: 730 730 53
Width: 758
Flags: HW
TeX: 638 0
HStem: 473 36<335.89 421.407> 612 35<335.541 420.635>
VStem: 262 59<520.106 601.151> 437 58<520.326 599.229>
LayerCount: 2
Fore
SplineSet
262 560 m 0
 262 608 314 647 379 647 c 0
 440 647 495 611 495 560 c 0
 495 512 442 473 378 473 c 0
 316 473 262 511 262 560 c 0
321 561 m 0
 321 528 351 509 378 509 c 0
 412 509 437 533 437 560 c 0
 437 584 414 612 378 612 c 0
 350 612 321 593 321 561 c 0
EndSplineSet
EndChar

StartChar: caron
Encoding: 711 711 54
Width: 525
Flags: HW
TeX: 638 0
HStem: 484 78<230.729 292.356>
VStem: 118 289<595 624>
LayerCount: 2
Fore
SplineSet
118 610 m 0
 118 626 132 639 147 639 c 0
 170 639 250 562 262 562 c 0
 276 562 353 638 378 639 c 0
 395 639 407 624 407 610 c 0
 407 592 403 592 287 496 c 0
 282 492 273 484 262 484 c 2
 259 484 l 2
 250 484 246 488 137 579 c 0
 128 586 118 595 118 610 c 0
EndSplineSet
EndChar

StartChar: breve
Encoding: 728 728 55
Width: 525
Flags: HW
TeX: 638 0
HStem: 498 65<162.257 361.289>
VStem: 85 63<581.51 637.373> 373 65<579.202 636.866>
LayerCount: 2
Fore
SplineSet
85 608 m 0
 85 627 99 639 116 639 c 0
 146 639 147 609 148 604 c 0
 158 565 238 563 261 563 c 0
 299 563 359 569 373 598 c 0
 377 607 374 639 407 639 c 0
 425 639 438 627 438 608 c 0
 438 564 401 498 262 498 c 0
 122 498 85 564 85 608 c 0
EndSplineSet
EndChar

StartChar: macron
Encoding: 175 175 56
Width: 525
Flags: HW
TeX: 610 0
HStem: 559 63<73.3338 449.679>
LayerCount: 2
Fore
SplineSet
72 590 m 0
 72 606 79 622 107 622 c 2
 417 622 l 2
 444 622 451 604 451 590 c 0
 451 575 443 559 415 559 c 2
 106 559 l 1
 78 560 72 578 72 590 c 0
EndSplineSet
EndChar

StartChar: dotaccent
Encoding: 729 729 57
Width: 292
Flags: HW
TeX: 610 0
HStem: 511 100<117.965 199.824>
VStem: 109 100<520.396 602.162>
LayerCount: 2
Fore
SplineSet
109 561 m 0
 109 590 133 611 159 611 c 0
 185 611 209 590 209 561 c 0
 209 532 184 511 160 511 c 0
 130 511 109 534 109 561 c 0
EndSplineSet
EndChar

StartChar: cedilla
Encoding: 184 184 58
Width: 467
Flags: HW
TeX: 0 194
HStem: -208 61<111.192 273.092>
VStem: 197 70<-16.8176 55.3509> 284 71<-133.403 -75.2493>
LayerCount: 2
Fore
SplineSet
110 -177 m 0
 110 -152 127 -147 147 -147 c 2
 168 -147 l 1
 231 -146 284 -139 284 -108 c 0
 284 -64 223 -69 213 -63 c 0
 199 -55 197 -42 197 -30 c 0
 197 -15 197 -1 197 14 c 0
 197 27 195 57 230 57 c 2
 232 57 l 2
 267 57 267 34 267 18 c 2
 267 -10 l 1
 267 -10 355 -29 355 -108 c 0
 355 -203 236 -207 150 -208 c 1
 145 -208 l 2
 117 -208 110 -191 110 -177 c 0
EndSplineSet
EndChar

StartChar: ogonek
Encoding: 731 731 59
Width: 292
Flags: HW
TeX: 0 222
HStem: -192 65<91.9996 179.077>
VStem: 20 71<-124.055 -68.8454>
LayerCount: 2
Fore
SplineSet
20 -105 m 0
 20 -21 134 9 175 42 c 0
 185 50 192 56 203 56 c 0
 217 56 231 44 231 28 c 0
 231 -18 91 -53 91 -104 c 1
 92 -115 106 -127 130 -127 c 0
 188 -127 201 -59 230 -59 c 0
 243 -59 262 -71 262 -90 c 0
 262 -111 209 -192 125 -192 c 0
 71 -192 20 -157 20 -105 c 0
EndSplineSet
EndChar

StartChar: guilsinglleft
Encoding: 8249 8249 61
Width: 467
Flags: HW
TeX: 438 0
HStem: 0 21G<308.5 325> 419 20G<296 327>
VStem: 117 88<201.929 237.684>
LayerCount: 2
Fore
SplineSet
117 220 m 0
 117 239 136 248 148 257 c 0
 283 354 274 439 318 439 c 0
 336 439 349 425 349 411 c 0
 349 389 284 280 205 220 c 1
 205 219 l 1
 247 187 304 126 342 50 c 0
 346 41 348 33 348 27 c 0
 348 8 332 0 318 0 c 0
 299 0 292 13 285 25 c 0
 249 93 198 150 135 192 c 0
 126 198 117 205 117 220 c 0
EndSplineSet
EndChar

StartChar: guilsinglright
Encoding: 8250 8250 62
Width: 467
Flags: HW
TeX: 438 0
HStem: 0 21G<138.5 155.5> 419 20G<138.5 157>
VStem: 260 88<200.969 237.8>
LayerCount: 2
Fore
SplineSet
116 28 m 0
 116 51 181 159 260 219 c 1
 260 220 l 1
 182 279 116 388 116 411 c 0
 116 428 130 439 147 439 c 0
 167 439 174 424 180 413 c 0
 216 346 266 290 328 248 c 0
 335 243 348 235 348 220 c 0
 348 206 339 198 330 192 c 0
 267 150 216 93 180 25 c 0
 174 13 165 0 146 0 c 0
 131 0 116 11 116 28 c 0
EndSplineSet
EndChar

StartChar: quotedblright
Encoding: 8221 8221 64
Width: 350
Flags: HW
TeX: 610 0
HStem: 510 101<22.2319 64.8186 244.232 286.819>
VStem: 13 115<518.817 590.07> 235 115<519.049 590.07>
LayerCount: 2
Fore
SplineSet
226 404 m 0
 226 436 277 431 288 510 c 1
 245 511 235 545 235 561 c 0
 235 587 255 611 285 611 c 0
 324 611 350 574 350 520 c 0
 350 432 282 372 258 372 c 0
 244 372 226 386 226 404 c 0
EndSplineSet
Refer: 85 8217 S 1 0 0 1 -82 0 2
EndChar

StartChar: endash
Encoding: 8211 8211 68
Width: 525
Flags: HW
TeX: 430 0
ItalicCorrection: 29
HStem: 236 61<32.5 484 40 484>
VStem: 0 524<251 281.5>
LayerCount: 2
Fore
SplineSet
0 266 m 0
 0 297 24 297 40 297 c 2
 484 297 l 2
 500 297 524 297 524 266 c 0
 524 236 499 236 484 236 c 2
 40 236 l 2
 25 236 0 236 0 266 c 0
EndSplineSet
EndChar

StartChar: emdash
Encoding: 8212 8212 69
Width: 1050
Flags: HW
TeX: 430 0
ItalicCorrection: 29
HStem: 236 61<32.5 1009 40 1009>
VStem: 0 1049<251 281.5>
LayerCount: 2
Fore
SplineSet
0 266 m 0
 0 297 24 297 40 297 c 2
 1009 297 l 2
 1025 297 1049 297 1049 266 c 0
 1049 236 1024 236 1009 236 c 2
 40 236 l 2
 25 236 0 236 0 266 c 0
EndSplineSet
Substitution2: "Cyrillic substitutions subtable" emdash.cyr
AlternateSubs2: "Cyrillic alternatives subtable" emdash.cyr
EndChar

StartChar: dotlessi
Encoding: 305 305 71
Width: 291
Flags: HW
TeX: 430 0
HStem: 0 61<49.5 111 57 111 180 224 224 225> 370 61<54.5 140 62 111>
VStem: 111 69<61 370 370 370>
AnchorPoint: "below" 146 0 basechar 0
AnchorPoint: "above" 146 440 basechar 0
LayerCount: 2
Fore
SplineSet
17 30 m 0
 17 61 41 61 57 61 c 2
 111 61 l 1
 111 370 l 1
 62 370 l 2
 47 370 21 370 21 401 c 0
 21 431 47 431 62 431 c 2
 140 431 l 2
 174 431 180 421 180 390 c 2
 180 61 l 1
 224 61 l 2
 240 61 265 61 265 30 c 0
 265 0 240 0 225 0 c 2
 57 0 l 2
 42 0 17 0 17 30 c 0
EndSplineSet
EndChar

StartChar: dotlessj
Encoding: 567 567 72
Width: 320
Flags: HW
TeX: 430 222
HStem: -228 61<71 104 71 123.5> 370 61<69 169 77 140>
VStem: -46 89<-159.5 -137.5> 140 69<-43 370 370 370>
AnchorPoint: "below" 106 -222 basechar 0
AnchorPoint: "above" 174 440 basechar 0
LayerCount: 2
Fore
SplineSet
-46 -152 m 0
 -46 -123 -24 -106 -1 -106 c 0
 8 -106 43 -108 43 -159 c 0
 43 -160 43 -162 44 -162 c 0
 47 -166 68 -167 74 -167 c 0
 134 -167 140 -80 140 -43 c 2
 140 370 l 1
 77 370 l 2
 61 370 36 370 36 401 c 0
 36 431 62 431 77 431 c 2
 169 431 l 2
 203 431 209 421 209 390 c 2
 209 -47 l 2
 209 -120 176 -228 71 -228 c 0
 -2 -228 -46 -198 -46 -152 c 0
EndSplineSet
EndChar

StartChar: ff
Encoding: 64256 64256 73
Width: 612
Flags: HW
TeX: 610 0
ItalicCorrection: 74
HStem: -0 62<17.0156 111 181 273.861 308.525 402 472 588.849> 369 61<30.1445 111 181 299.653 472 590.71> 554 62<220.77 386.248 493.312 572.427>
VStem: 111 70<62 369 430 522.486> 402 70<62 369 430 510.53>
LayerCount: 2
Fore
SplineSet
16 31 m 0
 16 60 39 62 53 62 c 2
 111 62 l 1
 111 369 l 1
 69 369 l 2
 55 369 29 370 29 400 c 0
 29 429 53 430 65 430 c 2
 111 430 l 1
 111 476 l 2
 111 502 111 518 127 540 c 0
 148 570 210 616 339 616 c 2
 342 616 l 2
 405 616 431 610 456 587 c 1
 458 587 l 1
 466 593 498 616 558 616 c 0
 639 616 654 580 654 556 c 0
 654 531 634 513 611 513 c 0
 588 513 570 530 568 554 c 1
 554 554 l 2
 514 554 472 533 472 483 c 2
 472 430 l 1
 556 430 l 2
 582 430 592 416 592 401 c 0
 592 392 589 369 557 369 c 2
 472 369 l 1
 472 62 l 1
 555 62 l 2
 583 62 590 45 590 31 c 0
 590 15 582 0 553 -0 c 2
 342 -0 l 2
 335 0 307 2 307 31 c 0
 307 41 312 61 341 62 c 1
 402 62 l 1
 402 477 l 2
 402 489 402 501 404 511 c 1
 395 519 386 528 387 551 c 1
 371 553 352 555 334 555 c 0
 235 555 195 523 184 502 c 0
 180 493 181 483 181 474 c 2
 181 430 l 1
 266 430 l 2
 292 430 301 416 301 401 c 0
 301 386 294 369 265 369 c 2
 181 369 l 1
 181 62 l 1
 238 62 l 2
 249 62 275 61 275 31 c 0
 275 19 270 0 239 -0 c 2
 52 -0 l 2
 23 0 16 16 16 31 c 0
EndSplineSet
Ligature2: "Latin ligatures subtable" f f
EndChar

StartChar: fi
Encoding: 64257 64257 74
Width: 583
Flags: HW
TeX: 610 0
HStem: -0 62<17.0156 111 181 273.861 309.208 402 472 564.909> 369 61<30.1445 111 181 402> 555 61<222.772 383.339>
VStem: 111 70<62 369 430 518.479> 383 89<496.645 548.767> 402 70<62 369>
LayerCount: 2
Fore
SplineSet
16 31 m 0
 16 60 39 62 53 62 c 2
 111 62 l 1
 111 369 l 1
 69 369 l 2
 55 369 29 370 29 400 c 0
 29 429 53 430 65 430 c 2
 111 430 l 1xf4
 111 482 l 2
 111 589 256 616 334 616 c 0
 452 616 472 568 472 536 c 0
 472 506 449 490 427 490 c 0
 403 490 383 508 383 535 c 0xf8
 383 541 384 544 385 549 c 1
 369 553 348 555 328 555 c 0
 239 555 196 523 185 503 c 0
 180 494 181 485 181 475 c 2
 181 430 l 1
 436 430 l 2
 473 430 472 406 472 390 c 2
 472 62 l 1
 529 62 l 2
 543 62 566 60 566 31 c 0
 566 15 558 0 530 -0 c 2
 343 -0 l 2
 314 0 308 17 308 31 c 0
 308 41 312 52 323 58 c 0
 332 63 342 62 351 62 c 2
 402 62 l 1
 402 369 l 1
 181 369 l 1
 181 62 l 1
 238 62 l 2
 249 62 275 61 275 31 c 0
 275 19 270 0 239 -0 c 2
 52 -0 l 2
 23 0 16 16 16 31 c 0
EndSplineSet
Ligature2: "Latin ligatures excepting Turkic subtable" f i
EndChar

StartChar: fl
Encoding: 64258 64258 75
Width: 583
Flags: HW
TeX: 610 0
HStem: -0 62<17.0156 111 181 273.861 309.208 402 472 564.909> 369 61<30.1445 111 181 402> 555 61<220.144 392.724>
VStem: 111 70<62 369 430 522.293> 402 70<62 369 430 551.259>
LayerCount: 2
Fore
SplineSet
16 31 m 0
 16 60 39 62 53 62 c 2
 111 62 l 1
 111 369 l 1
 69 369 l 2
 55 369 29 370 29 400 c 0
 29 429 53 430 65 430 c 2
 111 430 l 1
 111 448 111 466 111 484 c 0
 111 563 201 616 339 616 c 0
 403 616 411 610 424 610 c 0
 426 610 428 611 430 611 c 1
 430 608 l 1
 435 609 439 610 443 610 c 0
 468 610 472 590 472 574 c 2
 472 62 l 1
 529 62 l 2
 543 62 566 60 566 31 c 0
 566 15 558 0 530 -0 c 2
 343 -0 l 2
 314 0 308 17 308 31 c 0
 308 41 312 52 323 58 c 0
 332 63 342 62 351 62 c 2
 402 62 l 1
 402 369 l 1
 181 369 l 1
 181 62 l 1
 238 62 l 2
 249 62 275 61 275 31 c 0
 275 19 270 0 239 -0 c 2
 52 -0 l 2
 23 0 16 16 16 31 c 0
181 430 m 1
 402 430 l 1
 402 522 l 1
 393 532 389 536 386 552 c 1
 368 554 350 555 332 555 c 2
 329 555 l 2
 276 555 181 540 181 481 c 0
 181 464 181 447 181 430 c 1
EndSplineSet
Ligature2: "Latin ligatures subtable" f l
EndChar

StartChar: ffi
Encoding: 64259 64259 76
Width: 875
Flags: HW
TeX: 610 0
HStem: -0 62<17.0156 110 180 273.016 308.016 401 471 564.016 599.973 693 763 855.724> 369 61<29.1875 110 180 401 471 693> 555 61<220.531 382.558 513.58 674.139>
VStem: 110 70<62 369 430 518.574> 401 70<62 369 430 520.926> 674 88<496.248 548.766> 693 70<62 369>
LayerCount: 2
Fore
SplineSet
16 31 m 0
 16 59 39 62 53 62 c 2
 110 62 l 1
 110 369 l 1
 69 369 l 2
 55 369 28 370 28 400 c 0
 28 429 53 430 65 430 c 2
 110 430 l 1
 110 483 l 2
 110 587 247 616 335 616 c 0
 420 616 444 593 458 576 c 1
 472 584 524 616 622 616 c 0
 684 616 762 605 762 536 c 0
 762 508 742 490 718 490 c 0
 694 490 674 509 674 535 c 0xfc
 674 539 675 544 676 549 c 1
 660 553 639 555 619 555 c 0
 530 555 486 522 475 502 c 0
 470 493 471 485 471 475 c 2
 471 430 l 1
 727 430 l 2
 764 430 763 406 763 390 c 2
 763 62 l 1
 820 62 l 2
 834 62 857 60 857 31 c 0
 857 16 849 0 821 -0 c 2
 634 -0 l 2
 615 0 599 6 599 31 c 0
 599 59 621 62 635 62 c 2
 693 62 l 1
 693 369 l 1xfa
 471 369 l 1
 471 62 l 1
 529 62 l 2
 543 62 565 60 565 31 c 0
 565 16 558 0 530 -0 c 2
 343 -0 l 2
 324 0 307 6 307 31 c 0
 307 59 330 62 344 62 c 2
 401 62 l 1
 401 369 l 1
 180 369 l 1
 180 62 l 1
 238 62 l 2
 252 62 274 60 274 31 c 0
 274 16 267 0 239 -0 c 2
 52 -0 l 2
 33 0 16 6 16 31 c 0
180 430 m 1
 401 430 l 1
 401 468 l 1
 402 498 l 1
 391 508 383 517 383 534 c 0
 383 538 383 543 384 549 c 1
 368 553 347 555 328 555 c 2
 326 555 l 2
 238 555 195 523 184 503 c 0
 180 496 180 489 180 481 c 0xf8
 180 464 180 447 180 430 c 1
EndSplineSet
Ligature2: "Latin ligatures excepting Turkic subtable" ff i
Ligature2: "Latin ligatures excepting Turkic subtable" f f i
EndChar

StartChar: ffl
Encoding: 64260 64260 77
Width: 875
Flags: HW
TeX: 610 0
HStem: -0 62<17.0156 110 180 273.016 308.016 401 471 564.016 599.973 693 763 855.724> 369 61<29.1875 110 180 401 471 693> 555 61<222.686 385.248 510.188 683.992>
VStem: 110 70<62 369 430 521.226> 401 70<62 369 430 510.389> 693 70<62 369 430 554.203>
LayerCount: 2
Fore
SplineSet
16 31 m 0
 16 59 39 62 53 62 c 2
 110 62 l 1
 110 369 l 1
 69 369 l 2
 55 369 28 370 28 400 c 0
 28 429 53 430 65 430 c 2
 110 430 l 1
 110 481 l 2
 110 575 218 616 339 616 c 0
 408 616 439 609 463 578 c 1
 507 604 563 616 631 616 c 0
 698 616 698 610 715 610 c 0
 717 610 719 611 721 611 c 1
 721 608 l 1
 726 609 730 610 734 610 c 0
 757 610 763 594 763 574 c 2
 763 62 l 1
 820 62 l 2
 834 62 857 60 857 31 c 0
 857 16 849 0 821 -0 c 2
 634 -0 l 2
 615 0 599 6 599 31 c 0
 599 59 621 62 635 62 c 2
 693 62 l 1
 693 369 l 1
 471 369 l 1
 471 62 l 1
 529 62 l 2
 543 62 565 60 565 31 c 0
 565 16 558 0 530 -0 c 2
 343 -0 l 2
 324 0 307 6 307 31 c 0
 307 59 330 62 344 62 c 2
 401 62 l 1
 401 369 l 1
 180 369 l 1
 180 62 l 1
 238 62 l 2
 252 62 274 60 274 31 c 0
 274 16 267 0 239 -0 c 2
 52 -0 l 2
 33 0 16 6 16 31 c 0
180 430 m 1
 401 430 l 1
 401 468 l 2
 401 483 402 498 404 511 c 1
 395 519 385 527 386 551 c 1
 370 554 351 555 333 555 c 2
 329 555 l 2
 277 555 180 540 180 481 c 0
 180 464 180 447 180 430 c 1
471 430 m 1
 693 430 l 1
 693 522 l 1
 664 553 696 555 648 555 c 0
 639 555 630 555 621 555 c 0
 568 555 471 540 471 481 c 0
 471 464 471 447 471 430 c 1
EndSplineSet
Ligature2: "Latin ligatures subtable" ff l
Ligature2: "Latin ligatures subtable" f f l
EndChar

StartChar: uni2423
Encoding: 9251 9251 78
Width: 525
Flags: HW
TeX: 430 111
HStem: -133 43<86 437>
VStem: 43 43<-90 239.985> 437 43<-90 239.991>
LayerCount: 2
Fore
SplineSet
43 -106 m 2
 43 212 l 2
 43 233 54 240 64 240 c 0
 73 240 86 235 86 215 c 2
 86 -90 l 1
 437 -90 l 1
 437 215 l 2
 437 237 450 240 459 240 c 0
 465 240 480 237 480 213 c 2
 480 -102 l 2
 480 -118 478 -132 452 -133 c 1
 76 -133 l 2
 64 -133 43 -133 43 -106 c 2
EndSplineSet
EndChar

StartChar: exclam
Encoding: 33 33 79
Width: 292
Flags: HW
TeX: 610 0
HStem: 0 100<104.232 185.474> 602 20G<135 155.5>
VStem: 95 100<9.22852 90.7681 311.556 612.956> 104 82<184.82 489.778>
LayerCount: 2
Fore
SplineSet
95 569 m 1
 95 608 125 622 145 622 c 0xe0
 166 622 195 608 195 568 c 1xe0
 186 216 l 2
 185 188 169 183 149 183 c 2
 142 183 l 2
 104 183 105 204 104 238 c 2xd0
 95 569 l 1
EndSplineSet
Refer: 92 46 S 1 0 0 1 -0 0 3
EndChar

StartChar: quotedbl
Encoding: 34 34 80
Width: 525
Flags: HW
TeX: 610 0
HStem: 328 293<144.441 203.5 320.491 378.112>
VStem: 129 89<337.334 614.619> 305 89<336.701 614.641>
LayerCount: 2
Fore
SplineSet
129 575 m 0
 129 606 153 621 174 621 c 0
 194 621 218 607 218 575 c 0
 218 568 210 437 206 368 c 0
 205 355 205 328 174 328 c 0
 143 328 143 356 142 365 c 0
 138 435 129 568 129 575 c 0
305 579 m 0
 305 601 325 621 350 621 c 0
 364 621 394 612 394 575 c 0
 394 568 385 437 381 368 c 0
 380 353 380 328 349 328 c 0
 317 328 318 361 318 365 c 0
 311 483 305 568 305 579 c 0
EndSplineSet
EndChar

StartChar: numbersign
Encoding: 35 35 81
Width: 875
Flags: HW
TeX: 610 0
HStem: 0 21G<196.5 210.5 428.5 442.5> 199 62<59.3555 243 336 474 567 813.41> 350 62<59.5898 306 400 538 631 813.768> 590 20G<431.5 444.5 662.5 675.5>
VStem: 175 54<1.18487 55.9292> 406 54<1.47368 55.9292> 413 54<551.997 608.774> 644 54<551.997 608.774>
DStem2: 243 199 310 199 0.389217 0.921146<-178.241 0 93.3082 163.614 257.311 434.242> 474 199 541 199 0.389217 0.921146<-178.241 0 93.3082 164.003 257.311 434.242>
LayerCount: 2
Fore
SplineSet
58 230 m 0
 58 240 62 261 96 261 c 2
 269 261 l 1
 306 350 l 1
 94 350 l 2
 62 350 58 374 58 381 c 0
 58 409 87 412 98 412 c 2
 333 412 l 1
 411 598 408 592 413 599 c 0
 418 605 426 610 437 610 c 0
 452 610 467 598 467 580 c 0xfb
 467 569 458 551 400 412 c 1
 564 412 l 1
 642 598 639 592 644 599 c 0
 649 605 657 610 668 610 c 0
 683 610 698 598 698 580 c 0
 698 569 689 551 631 412 c 1
 772 412 l 2
 787 412 815 411 815 381 c 0
 815 371 811 350 777 350 c 2
 604 350 l 1
 567 261 l 1
 779 261 l 2
 811 261 815 237 815 230 c 0
 815 202 786 199 775 199 c 2
 541 199 l 1
 463 12 465 18 460 11 c 0
 455 5 448 0 437 0 c 0
 420 0 406 14 406 31 c 0xfd
 406 41 407 40 474 199 c 1
 310 199 l 1
 232 12 234 18 229 11 c 0
 224 5 216 0 205 0 c 0
 188 0 175 14 175 31 c 0
 175 41 176 40 243 199 c 1
 101 199 l 2
 89 199 58 199 58 230 c 0
336 261 m 1xf9
 500 261 l 1
 538 350 l 1
 373 350 l 1
 336 261 l 1xf9
EndSplineSet
EndChar

StartChar: dollar
Encoding: 36 36 82
Width: 525
Flags: HW
TeX: 694 83
HStem: -4 62<176.416 231 293 346.179> 552 63<173.577 231 293 355.069>
VStem: 58 77<94.0275 190.582> 58 65<404.73 508.22> 231 62<-81.8125 -1.77173 59 275 360 552 612.28 692.861> 377 89<413.691 484.854> 401 65<109.113 225.792>
LayerCount: 2
Fore
SplineSet
58 168 m 0
 58 207 87 216 102 216 c 0
 127 216 147 198 147 172 c 0
 147 151 135 147 135 134 c 0xea
 135 129 143 74 231 58 c 1
 231 288 l 1
 74 319 58 413 58 451 c 0
 58 514 107 598 231 615 c 1
 231 653 l 2
 231 666 229 694 262 694 c 0
 296 694 293 660 293 654 c 2
 293 615 l 1
 395 603 466 551 466 455 c 0
 466 417 436 407 421 407 c 0
 398 407 377 425 377 452 c 0xdc
 377 472 389 482 391 485 c 1
 377 522 349 546 293 553 c 1
 293 347 l 1
 415 327 466 242 466 172 c 0xca
 466 95 405 12 293 -3 c 1
 293 -42 l 2
 293 -56 294 -83 262 -83 c 0
 228 -83 231 -49 231 -43 c 2
 231 -4 l 1
 127 4 58 75 58 168 c 0
123 456 m 0xd8
 123 418 156 374 231 360 c 1
 231 552 l 1
 163 542 123 498 123 456 c 0xd8
293 59 m 1
 366 72 401 124 401 167 c 0xca
 401 210 368 259 293 275 c 1
 293 59 l 1
EndSplineSet
EndChar

StartChar: percent
Encoding: 37 37 83
Width: 875
Flags: HW
TeX: 694 83
HStem: -83 61<179 213 647 692.5> 245 121 633 61<181.5 227>
VStem: 58 56<461 538.5 461 555> 294 56<460.5 538> 524 56<73 150.5 73 167> 760 56<72.5 150>
LayerCount: 2
Fore
SplineSet
58 500 m 0
 58 610 125 694 204 694 c 0
 282 694 350 613 350 499 c 0
 350 389 283 305 204 305 c 0
 126 305 58 386 58 500 c 0
114 499 m 0
 114 423 158 366 204 366 c 0
 249 366 294 421 294 500 c 0
 294 576 250 633 204 633 c 0
 159 633 114 578 114 499 c 0
169 -48 m 0
 169 -41 171 -35 179 -22 c 2
 639 676 l 2
 649 691 662 694 670 694 c 0
 690 694 705 677 705 659 c 0
 705 652 704 646 695 633 c 2
 236 -62 l 2
 229 -73 222 -83 204 -83 c 0
 185 -83 169 -67 169 -48 c 0
524 112 m 0
 524 222 591 306 670 306 c 0
 748 306 816 225 816 111 c 0
 816 1 749 -83 670 -83 c 0
 592 -83 524 -2 524 112 c 0
580 111 m 0
 580 35 624 -22 670 -22 c 0
 715 -22 760 33 760 112 c 0
 760 188 716 245 670 245 c 0
 625 245 580 190 580 111 c 0
EndSplineSet
EndChar

StartChar: ampersand
Encoding: 38 38 84
Width: 816
Flags: HW
TeX: 610 0
HStem: -11 61<201 268.5 590.5 630.5> 370 61<504.5 724 512 588 655 724 655 655> 561 61<300.5 336.5>
VStem: 44 69<114.5 163 114.5 163> 176 56<477 510.5 477 527> 379 56<465.5 500.5>
LayerCount: 2
Fore
SplineSet
44 138 m 0
 44 188 74 226 103 247 c 0
 126 264 186 305 210 322 c 1
 188 374 176 430 176 479 c 0
 176 575 253 622 314 622 c 0
 393 622 435 548 435 485 c 0
 435 424 384 371 284 299 c 1
 331 212 411 142 419 135 c 1
 483 197 518 254 588 370 c 1
 512 370 l 2
 497 370 472 370 472 400 c 0
 472 431 496 431 512 431 c 2
 724 431 l 2
 740 431 764 431 764 400 c 0
 764 370 739 370 724 370 c 2
 655 370 l 1
 572 236 l 2
 557 212 540 189 523 167 c 0
 495 129 473 106 466 99 c 1
 519 63 571 50 610 50 c 0
 651 50 697 67 702 105 c 0
 703 116 706 138 730 138 c 0
 731 138 758 138 758 106 c 0
 758 51 704 -11 610 -11 c 0
 560 -11 501 3 421 58 c 1
 367 15 303 -11 234 -11 c 0
 131 -11 44 50 44 138 c 0
113 140 m 0
 113 89 167 50 235 50 c 0
 306 50 356 85 375 98 c 1
 369 103 333 138 305 171 c 0
 286 194 259 227 238 266 c 1
 150 209 113 186 113 140 c 0
232 479 m 0
 232 475 232 417 257 356 c 1
 302 387 379 446 379 485 c 0
 379 516 359 561 314 561 c 0
 287 561 232 542 232 479 c 0
EndSplineSet
EndChar

StartChar: quoteright
Encoding: 8217 8217 85
Width: 292
Flags: HW
TeX: 610 0
HStem: 510 101<104.232 146.819>
VStem: 95 115<518.817 590.07>
LayerCount: 2
Fore
SplineSet
87 404 m 0
 87 435 139 435 148 510 c 1
 105 511 95 544 95 560 c 0
 95 586 115 611 145 611 c 0
 184 611 210 574 210 520 c 0
 210 432 142 372 118 372 c 0
 104 372 87 386 87 404 c 0
EndSplineSet
EndChar

StartChar: parenleft
Encoding: 40 40 86
Width: 408
Flags: HW
TeX: 694 83
HStem: -82 21<306 331> 674 20<303.5 331>
VStem: 85 69<250 356 250 434>
LayerCount: 2
Fore
SplineSet
85 306 m 0
 85 562 289 694 318 694 c 0
 344 694 349 674 349 666 c 0
 349 651 342 647 326 636 c 0
 192 545 154 406 154 306 c 0
 154 194 200 61 324 -23 c 0
 342 -35 349 -39 349 -54 c 0
 349 -62 344 -82 318 -82 c 0
 294 -82 219 -26 166 47 c 1
 131 97 85 187 85 306 c 0
EndSplineSet
EndChar

StartChar: parenright
Encoding: 41 41 87
Width: 408
Flags: HW
TeX: 694 83
HStem: -82 21<76.5 103.5> 674 20<76.5 101>
VStem: 253 69<256 338.5>
LayerCount: 2
Fore
SplineSet
58 -54 m 0
 58 -39 66 -34 81 -24 c 0
 216 67 253 206 253 306 c 0
 253 371 238 532 74 641 c 0
 69 644 58 651 58 666 c 0
 58 674 64 694 89 694 c 0
 113 694 188 638 241 565 c 1
 276 515 322 425 322 306 c 0
 322 50 118 -82 89 -82 c 0
 64 -82 58 -62 58 -54 c 0
EndSplineSet
EndChar

StartChar: asterisk
Encoding: 42 42 88
Width: 525
Flags: HW
TeX: 520 0
HStem: 90 21<245.5 278.5> 501 20<245.5 278.5>
VStem: 229 66<127.5 146.5 464.5 483.5>
LayerCount: 2
Fore
SplineSet
68 214 m 0
 68 234 81 240 93 247 c 2
 201 306 l 1
 92 365 l 2
 79 372 68 378 68 397 c 0
 68 412 81 430 101 430 c 0
 108 430 110 430 124 421 c 2
 232 358 l 1
 230 384 229 450 229 479 c 0
 229 488 229 521 262 521 c 0
 295 521 295 488 295 479 c 0
 295 450 294 384 292 358 c 1
 416 430 l 1
 456 430 456 401 456 397 c 0
 456 378 443 371 431 364 c 2
 323 305 l 1
 349 291 417 258 442 241 c 0
 444 240 456 231 456 214 c 0
 456 199 443 181 423 181 c 0
 415 181 413 181 386 197 c 0
 316 239 353 219 292 253 c 1
 294 227 295 161 295 132 c 0
 295 123 295 90 262 90 c 0
 229 90 229 123 229 132 c 0
 229 161 230 227 232 253 c 1
 108 181 l 1
 68 181 68 210 68 214 c 0
EndSplineSet
EndChar

StartChar: plus
Encoding: 43 43 89
Width: 816
Flags: HW
TeX: 655 44
HStem: 275 62<59.5471 377 439 755.581>
VStem: 377 62<-42.2754 275 337 653.442>
LayerCount: 2
Fore
SplineSet
58 305 m 0
 58 335 86 337 101 337 c 2
 377 337 l 1
 377 612 l 2
 377 619 377 625 379 632 c 0
 383 645 394 655 408 655 c 0
 422 655 433 645 437 632 c 0
 439 625 439 619 439 612 c 2
 439 337 l 1
 711 337 l 2
 727 337 757 336 757 305 c 0
 757 291 748 280 735 276 c 0
 729 274 722 275 715 275 c 2
 439 275 l 1
 439 -1 l 2
 439 -4 443 -44 408 -44 c 0
 394 -44 383 -34 379 -21 c 0
 377 -14 377 -8 377 -1 c 2
 377 275 l 1
 101 275 l 2
 94 275 87 274 81 276 c 0
 68 280 58 291 58 305 c 0
EndSplineSet
EndChar

StartChar: comma
Encoding: 44 44 90
Width: 291
Flags: HW
TeX: 99 138
HStem: -139 21<110.5 130> 80 20<131 162>
VStem: 146 62
LayerCount: 2
Fore
SplineSet
87 -108 m 0
 87 -94 95 -88 102 -82 c 0
 141 -50 144 -17 146 0 c 1
 97 4 96 44 96 50 c 0
 96 77 116 100 146 100 c 0
 178 100 208 74 208 10 c 0
 208 -79 141 -139 119 -139 c 0
 102 -139 87 -122 87 -108 c 0
EndSplineSet
EndChar

StartChar: hyphen
Encoding: 45 45 91
Width: 350
Flags: HW
TeX: 430 0
HStem: 185 61<12.1514 288.919>
VStem: 11 279<186.74 244.301>
LayerCount: 2
Fore
SplineSet
11 216 m 0
 11 227 15 246 47 246 c 2
 256 246 l 2
 287 246 290 225 290 215 c 0
 290 203 285 185 255 185 c 2
 46 185 l 2
 18 185 11 202 11 216 c 0
EndSplineSet
EndChar

StartChar: period
Encoding: 46 46 92
Width: 292
Flags: HW
TeX: 99 0
HStem: 0 100<104.232 185.474>
VStem: 95 100<9.22852 90.7681>
LayerCount: 2
Fore
SplineSet
95 50 m 0
 95 80 120 100 145 100 c 0
 175 100 195 75 195 50 c 0
 195 25 174 0 145 0 c 0
 115 0 95 25 95 50 c 0
EndSplineSet
EndChar

StartChar: slash
Encoding: 47 47 93
Width: 525
Flags: HW
TeX: 694 83
DStem2: 67 -26 121 -57 0.435291 0.90029<-27.8025 794.065>
LayerCount: 2
Fore
SplineSet
58 -53 m 0
 58 -43 63 -34 67 -26 c 2
 404 669 l 2
 409 678 416 694 435 694 c 0
 451 694 465 682 465 664 c 0
 465 655 461 647 458 640 c 2
 121 -57 l 2
 116 -66 108 -83 89 -83 c 0
 73 -83 58 -71 58 -53 c 0
EndSplineSet
EndChar

StartChar: zero
Encoding: 48 48 94
Width: 525
Flags: HW
TeX: 610 0
HStem: -11 61<190.5 333.5 190.5 368> 561 61<190.5 333.5>
VStem: 50 69<288.5 339> 405 69<288.5 338.5 272 342.5>
LayerCount: 2
Fore
SplineSet
50 306 m 0
 50 372 50 622 262 622 c 0
 474 622 474 372 474 305 c 0
 474 239 474 -11 262 -11 c 0
 50 -11 50 239 50 306 c 0
119 315 m 0
 119 262 119 50 262 50 c 0
 405 50 405 262 405 315 c 0
 405 370 405 561 262 561 c 0
 119 561 119 370 119 315 c 0
EndSplineSet
Substitution2: "LGC old numerals subtable" zerooldstyle
EndChar

StartChar: one
Encoding: 49 49 95
Width: 525
Flags: HW
TeX: 610 0
HStem: 0 61<143.5 242 151 242 311 402> 500 61 602 20<274.5 296>
VStem: 242 69<61 524 524 524>
LayerCount: 2
Fore
SplineSet
105 530 m 0
 105 552 120 560 134 561 c 0
 155 562 215 564 253 605 c 0
 263 617 268 622 281 622 c 0
 311 622 311 597 311 581 c 2
 311 61 l 1
 402 61 l 2
 418 61 442 61 442 30 c 0
 442 0 417 0 402 0 c 2
 151 0 l 2
 136 0 111 0 111 30 c 0
 111 61 135 61 151 61 c 2
 242 61 l 1
 242 524 l 1
 212 508 168 500 140 500 c 0
 132 500 105 500 105 530 c 0
EndSplineSet
Substitution2: "LGC old numerals subtable" oneoldstyle
EndChar

StartChar: two
Encoding: 50 50 96
Width: 525
Flags: HW
TeX: 610 0
HStem: 0 61<165 403 165 432> 561 61<216.5 285>
VStem: 52 89<438 458 438 497.5> 403 69<61 67 25 75 392 471>
LayerCount: 2
Fore
SplineSet
52 31 m 0
 52 45 58 50 67 58 c 2
 288 244 l 2
 354 299 403 357 403 427 c 0
 403 515 326 561 244 561 c 0
 189 561 142 530 127 484 c 1
 136 477 141 464 141 452 c 0
 141 424 118 407 97 407 c 0
 80 407 52 418 52 455 c 0
 52 540 131 622 249 622 c 0
 371 622 472 547 472 427 c 0
 472 347 426 283 363 227 c 1
 320 187 224 112 165 61 c 1
 403 61 l 1
 403 89 403 108 438 108 c 0
 472 108 472 86 472 67 c 2
 472 41 l 2
 472 9 465 0 432 0 c 2
 93 0 l 2
 77 0 52 0 52 31 c 0
EndSplineSet
Substitution2: "LGC old numerals subtable" twooldstyle
EndChar

StartChar: three
Encoding: 51 51 97
Width: 525
Flags: HW
TeX: 610 0
HStem: -11 61<244 309.5 244 329.5> 299 60 561 61<259.5 298>
VStem: 44 89<129 151 129 152> 411 69<143.5 203>
LayerCount: 2
Fore
SplineSet
44 136 m 0
 44 168 66 183 89 183 c 0
 114 183 133 163 133 139 c 0
 133 119 126 113 121 108 c 1
 147 61 224 50 264 50 c 0
 355 50 411 113 411 174 c 0
 411 232 360 299 261 299 c 2
 215 299 l 2
 199 299 175 299 175 330 c 0
 175 359 190 359 247 363 c 0
 283 365 308 367 340 393 c 0
 367 415 382 450 382 480 c 0
 382 525 332 561 264 561 c 0
 255 561 184 561 153 530 c 1
 156 527 162 517 162 503 c 0
 162 475 139 458 118 458 c 0
 98 458 73 472 73 505 c 0
 73 574 143 622 263 622 c 0
 378 622 451 555 451 481 c 0
 451 427 423 370 367 334 c 1
 433 304 480 245 480 174 c 0
 480 81 395 -11 264 -11 c 0
 141 -11 44 47 44 136 c 0
EndSplineSet
Substitution2: "LGC old numerals subtable" threeoldstyle
EndChar

StartChar: four
Encoding: 52 52 98
Width: 525
Flags: HW
TeX: 610 0
HStem: 0 61<251.5 321 259 321 377 439> 169 61<53.5 321 99 321 99 321 377 455 99 377> 603 20<308 336 336 353>
VStem: 321 56<61 169 61 169 230 579 579 579>
LayerCount: 2
Fore
SplineSet
29 209 m 0
 29 229 29 231 38 244 c 2
 266 602 l 2
 279 622 284 623 308 623 c 2
 336 623 l 2
 370 623 377 615 377 582 c 2
 377 230 l 1
 455 230 l 2
 471 230 495 230 495 199 c 0
 495 169 470 169 455 169 c 2
 377 169 l 1
 377 61 l 1
 439 61 l 2
 455 61 479 61 479 30 c 0
 479 0 454 0 439 0 c 2
 259 0 l 2
 244 0 219 0 219 30 c 0
 219 61 243 61 259 61 c 2
 321 61 l 1
 321 169 l 1
 69 169 l 2
 38 169 29 176 29 209 c 0
99 230 m 1
 321 230 l 1
 321 579 l 1
 99 230 l 1
EndSplineSet
Substitution2: "LGC old numerals subtable" fouroldstyle
EndChar

StartChar: five
Encoding: 53 53 99
Width: 525
Flags: HW
TeX: 610 0
HStem: -11 61<234 290 234 310.5> 328 61<259.5 317> 550 61<157 397 157 157>
VStem: 88 69<360 550 360 570 360 586> 403 69<150 222.5>
LayerCount: 2
Fore
SplineSet
52 142 m 0
 52 181 82 190 97 190 c 0
 118 190 141 174 141 145 c 0
 141 125 133 118 128 113 c 1
 156 58 220 50 248 50 c 0
 332 50 403 110 403 190 c 0
 403 255 358 328 276 328 c 0
 218 328 177 310 150 278 c 0
 142 268 138 263 120 263 c 0
 88 263 88 286 88 304 c 2
 88 570 l 2
 88 602 95 611 128 611 c 2
 397 611 l 2
 413 611 437 611 437 580 c 0
 437 550 412 550 397 550 c 2
 157 550 l 1
 157 360 l 1
 198 382 242 389 277 389 c 0
 395 389 472 291 472 190 c 0
 472 79 373 -11 248 -11 c 0
 136 -11 52 59 52 142 c 0
EndSplineSet
Substitution2: "LGC old numerals subtable" fiveoldstyle
EndChar

StartChar: six
Encoding: 54 54 100
Width: 525
Flags: HW
TeX: 610 0
HStem: -11 61<231.5 300 231.5 318.5> 334 62<247 308.5> 561 61<276 337>
VStem: 53 79<218.5 253 218.5 400> 402 69<150 230>
LayerCount: 2
Fore
SplineSet
53 299 m 0
 53 501 187 622 321 622 c 0
 418 622 454 568 454 519 c 0
 454 489 434 472 409 472 c 0
 383 472 365 492 365 516 c 0
 365 534 370 540 375 545 c 1
 370 550 354 561 320 561 c 0
 232 561 138 479 124 338 c 1
 169 379 221 396 273 396 c 0
 383 396 471 307 471 193 c 0
 471 73 373 -11 264 -11 c 0
 165 -11 53 62 53 299 c 0
132 222 m 0
 132 215 134 198 135 191 c 1
 134 182 l 1
 135 178 l 2
 137 172 138 166 140 160 c 0
 160 99 199 50 264 50 c 0
 336 50 402 107 402 193 c 0
 402 267 349 334 268 334 c 0
 192 334 132 284 132 222 c 0
EndSplineSet
Substitution2: "LGC old numerals subtable" sixoldstyle
EndChar

StartChar: seven
Encoding: 55 55 101
Width: 525
Flags: HW
TeX: 610 0
HStem: -11 21<187.5 213.5> 550 61<113 377 113 113>
VStem: 44 69<544 550 536 586 536 595.5> 170 69<14.5 91>
LayerCount: 2
Fore
SplineSet
44 544 m 2
 44 586 l 2
 44 605 44 627 78 627 c 0
 86 627 104 627 110 611 c 1
 440 611 l 2
 456 611 480 611 480 580 c 0
 480 566 478 564 458 546 c 0
 397 487 244 313 239 29 c 0
 239 0 222 -11 205 -11 c 0
 170 -11 170 22 170 36 c 0
 170 146 204 366 377 550 c 1
 113 550 l 1
 113 522 113 503 78 503 c 0
 44 503 44 525 44 544 c 2
EndSplineSet
Substitution2: "LGC old numerals subtable" sevenoldstyle
EndChar

StartChar: eight
Encoding: 56 56 102
Width: 525
Flags: HW
TeX: 610 0
HStem: -11 61<220.5 303.5 220.5 325> 299 61<225.5 298.5 225.5 308> 561 61<222.5 301>
VStem: 58 69<433.5 487 433 502.5> 397 69<433.5 487>
LayerCount: 2
Fore
SplineSet
44 174 m 0
 44 249 108 308 183 329 c 1
 104 355 58 405 58 462 c 0
 58 543 142 622 262 622 c 0
 381 622 466 544 466 462 c 0
 466 405 421 356 341 329 c 1
 415 308 480 249 480 174 c 0
 480 77 388 -11 262 -11 c 0
 137 -11 44 77 44 174 c 0
113 175 m 0
 113 106 179 50 262 50 c 0
 345 50 411 106 411 175 c 0
 411 236 354 299 262 299 c 0
 171 299 113 236 113 175 c 0
127 461 m 0
 127 405 189 360 262 360 c 0
 335 360 397 404 397 461 c 0
 397 513 340 561 262 561 c 0
 183 561 127 513 127 461 c 0
EndSplineSet
Substitution2: "LGC old numerals subtable" eightoldstyle
EndChar

StartChar: nine
Encoding: 57 57 103
Width: 525
Flags: HW
TeX: 610 0
HStem: -11 61<211.5 264 211.5 282> 215 62<215.5 277> 561 61<229 286.5>
VStem: 53 69<381 461.5 381 478.5> 393 78<361.5 393.5>
LayerCount: 2
Fore
SplineSet
53 418 m 0
 53 539 154 622 265 622 c 0
 360 622 471 553 471 312 c 0
 471 114 348 -11 216 -11 c 0
 88 -11 70 60 70 92 c 0
 70 122 90 139 115 139 c 0
 141 139 159 119 159 95 c 0
 159 78 154 72 150 67 c 1
 171 51 207 50 216 50 c 0
 312 50 390 149 400 273 c 1
 355 232 303 215 251 215 c 0
 141 215 53 304 53 418 c 0
122 418 m 0
 122 344 175 277 256 277 c 0
 339 277 393 334 393 389 c 0
 393 398 389 414 389 419 c 0
 389 424 390 426 390 428 c 0
 390 434 378 485 352 518 c 0
 336 538 308 561 265 561 c 0
 193 561 122 505 122 418 c 0
EndSplineSet
Substitution2: "LGC old numerals subtable" nineoldstyle
EndChar

StartChar: colon
Encoding: 58 58 104
Width: 291
Flags: HW
TeX: 430 0
HStem: 0 100<132 160> 331 100<132 160>
VStem: 96 100<36 64 367 395>
LayerCount: 2
Fore
SplineSet
96 50 m 0
 96 78 118 100 146 100 c 0
 174 100 196 78 196 50 c 0
 196 22 174 0 146 0 c 0
 118 0 96 22 96 50 c 0
96 381 m 0
 96 409 118 431 146 431 c 0
 174 431 196 409 196 381 c 0
 196 353 174 331 146 331 c 0
 118 331 96 353 96 381 c 0
EndSplineSet
EndChar

StartChar: semicolon
Encoding: 59 59 105
Width: 292
Flags: HW
TeX: 430 138
HStem: -138 21<111 130> 0 100<103.701 145> 330 100<104.593 185.768>
VStem: 95 100<339.229 420.771> 95 112<8.99439 82.065>
LayerCount: 2
Fore
SplineSet
95 380 m 0
 95 405 116 430 145 430 c 0
 175 430 195 405 195 380 c 0
 195 355 175 330 146 330 c 0xf0
 116 330 95 355 95 380 c 0
EndSplineSet
Refer: 90 44 S 1 0 0 1 0 0 2
EndChar

StartChar: less
Encoding: 60 60 106
Width: 816
Flags: HW
TeX: 554 -55
DStem2: 122 340 206 305 0.937158 0.348906<66.5095 613.114> 236 295 122 271 0.937362 -0.348356<-31.1161 514.618>
LayerCount: 2
Fore
SplineSet
87 306 m 0
 87 329 111 336 122 340 c 2
 678 547 l 2
 684 549 691 551 698 551 c 0
 713 551 728 539 728 521 c 0
 728 500 710 492 692 486 c 2
 206 305 l 1
 216 302 226 299 236 295 c 2
 692 125 l 2
 697 123 728 116 728 89 c 0
 728 77 718 60 698 60 c 0
 691 60 685 62 679 64 c 2
 122 271 l 2
 110 275 87 283 87 306 c 0
EndSplineSet
EndChar

StartChar: equal
Encoding: 61 61 107
Width: 816
Flags: HW
TeX: 415 -195
HStem: 199 62<59.7427 755.715> 350 62<59.625 755.685>
LayerCount: 2
Fore
SplineSet
58 230 m 0
 58 239 65 261 92 261 c 2
 718 261 l 2
 751 261 757 242 757 230 c 0
 757 218 751 199 716 199 c 2
 98 199 l 2
 63 199 58 221 58 230 c 0
58 381 m 0
 58 394 65 412 99 412 c 2
 716 412 l 2
 751 412 757 393 757 381 c 0
 757 372 753 350 720 350 c 2
 95 350 l 2
 62 350 58 374 58 381 c 0
EndSplineSet
EndChar

StartChar: greater
Encoding: 62 62 108
Width: 816
Flags: HW
TeX: 554 -55
DStem2: 137 547 123 486 0.937158 -0.348906<-18.8943 526.425> 609 306 137 64 0.937362 0.348356<-545.633 0>
LayerCount: 2
Fore
SplineSet
87 521 m 0
 87 541 105 551 118 551 c 0
 125 551 131 549 137 547 c 2
 693 340 l 2
 705 336 728 329 728 306 c 0
 728 283 705 275 694 271 c 2
 137 64 l 2
 131 62 125 60 118 60 c 0
 102 60 88 74 88 90 c 0
 88 113 105 118 123 125 c 2
 609 306 l 1
 599 309 589 313 579 317 c 2
 123 486 l 2
 107 492 87 499 87 521 c 0
EndSplineSet
EndChar

StartChar: question
Encoding: 63 63 109
Width: 495
Flags: HW
TeX: 610 0
HStem: 0 100<219 247> 184 21<213 248> 556 61<210.5 284>
VStem: 58 89<479 499 479 525> 193 80<216.5 224 224 241 207 264> 368 69<480 509.5>
LayerCount: 2
Fore
SplineSet
58 495 m 0
 58 555 114 617 238 617 c 0
 404 617 437 538 437 493 c 0
 437 457 418 422 377 398 c 0
 323 366 273 323 273 241 c 2
 273 224 l 2
 273 190 263 184 233 184 c 0
 193 184 193 197 193 236 c 0
 193 292 200 366 337 448 c 0
 346 454 368 467 368 493 c 0
 368 526 330 556 238 556 c 0
 183 556 152 539 137 521 c 1
 142 515 147 505 147 493 c 0
 147 465 124 448 103 448 c 0
 82 448 58 463 58 495 c 0
183 50 m 0
 183 78 205 100 233 100 c 0
 261 100 283 78 283 50 c 0
 283 22 261 0 233 0 c 0
 205 0 183 22 183 50 c 0
EndSplineSet
EndChar

StartChar: at
Encoding: 64 64 110
Width: 700
Flags: HW
TeX: 610 0
HStem: -6 61<324.5 426.5 324.5 449.5> 106 61<415 488 415 493> 444 61<417 469 400 490> 556 61<326 423>
VStem: 58 56<238.5 374.5 238.5 391> 264 56<268 344.5 268 360> 585 56<266.5 343>
LayerCount: 2
Fore
SplineSet
58 306 m 0
 58 476 214 617 406 617 c 0
 619 617 641 430 641 316 c 0
 641 168 534 106 452 106 c 0
 351 106 264 192 264 306 c 0
 264 414 347 505 453 505 c 0
 485 505 522 496 557 472 c 1
 542 504 525 521 503 533 c 0
 474 550 440 556 406 556 c 0
 246 556 114 444 114 305 c 0
 114 172 242 55 407 55 c 0
 446 55 506 62 570 98 c 0
 586 108 588 108 603 108 c 0
 613 108 641 108 641 80 c 0
 641 63 630 57 613 48 c 0
 562 19 491 -6 408 -6 c 0
 211 -6 58 136 58 306 c 0
320 305 m 0
 320 231 377 167 453 167 c 0
 523 167 585 227 585 306 c 0
 585 380 528 444 452 444 c 0
 382 444 320 384 320 305 c 0
EndSplineSet
EndChar

StartChar: A
Encoding: 65 65 111
Width: 758
Flags: HW
TeX: 610 0
HStem: 0 61<73 127 81 127 200 240 517 557 630 676> 172 61<262 495 262 517 240 495> 603 20<369 388 388 398.5>
VStem: 41 675<15.5 45.5 15 46>
AnchorPoint: "ogonek" 593 0 basechar 0
AnchorPoint: "below" 378 0 basechar 0
AnchorPoint: "above" 378 622 basechar 0
LayerCount: 2
Fore
SplineSet
41 31 m 0
 41 61 66 61 81 61 c 2
 127 61 l 1
 316 590 l 2
 328 623 350 623 369 623 c 2
 388 623 l 2
 409 623 429 623 441 589 c 2
 630 61 l 1
 676 61 l 2
 692 61 716 61 716 30 c 0
 716 0 691 0 676 0 c 2
 517 0 l 2
 502 0 476 0 476 31 c 0
 476 61 502 61 517 61 c 2
 557 61 l 1
 517 172 l 1
 240 172 l 1
 200 61 l 1
 240 61 l 2
 255 61 281 61 281 30 c 0
 281 0 255 0 240 0 c 2
 81 0 l 2
 65 0 41 0 41 31 c 0
262 233 m 1
 495 233 l 1
 378 559 l 1
 262 233 l 1
EndSplineSet
EndChar

StartChar: B
Encoding: 66 66 112
Width: 729
Flags: HW
TeX: 610 0
HStem: 0 61<78.5 140 86 140 209 409 409 437> 287 61<209 375 375 425 209 375> 550 61<78.5 409 86 140 209 209 209 407>
VStem: 140 69<61 287 348 550> 572 69<427 480>
AnchorPoint: "below" 335 0 basechar 0
AnchorPoint: "above" 335 622 basechar 0
LayerCount: 2
Fore
SplineSet
46 30 m 0
 46 61 70 61 86 61 c 2
 140 61 l 1
 140 550 l 1
 86 550 l 2
 71 550 46 550 46 580 c 0
 46 611 70 611 86 611 c 2
 409 611 l 2
 542 611 641 537 641 456 c 0
 641 383 561 337 492 320 c 1
 606 300 670 235 670 167 c 0
 670 81 573 0 437 0 c 2
 86 0 l 2
 71 0 46 0 46 30 c 0
209 61 m 1
 409 61 l 2
 512 61 601 107 601 169 c 0
 601 231 524 287 425 287 c 2
 209 287 l 1
 209 61 l 1
209 348 m 1
 375 348 l 2
 493 348 572 399 572 455 c 0
 572 505 503 550 407 550 c 2
 209 550 l 1
 209 348 l 1
EndSplineSet
EndChar

StartChar: C
Encoding: 67 67 113
Width: 758
Flags: HW
TeX: 610 0
HStem: -11 61<332.5 441 332.5 500> 561 61<332.5 441.5>
VStem: 58 69<238.5 373.5 238.5 390> 629 70
AnchorPoint: "below" 410 0 basechar 0
AnchorPoint: "above" 408 622 basechar 0
LayerCount: 2
Fore
SplineSet
58 306 m 0
 58 474 207 622 408 622 c 0
 504 622 579 592 620 560 c 1
 629 580 629 582 638 597 c 1
 645 612 650 622 669 622 c 0
 699 622 699 597 699 581 c 2
 699 442 l 2
 699 422 699 401 664 401 c 0
 655 401 636 401 631 424 c 0
 624 452 615 492 555 527 c 0
 519 548 468 561 415 561 c 0
 250 561 127 441 127 306 c 0
 127 171 248 50 417 50 c 0
 465 50 521 59 559 78 c 0
 625 110 628 148 630 172 c 0
 632 201 654 201 664 201 c 0
 675 201 699 201 699 168 c 0
 699 66 590 -11 410 -11 c 0
 204 -11 58 139 58 306 c 0
EndSplineSet
EndChar

StartChar: D
Encoding: 68 68 114
Width: 787
Flags: HW
TeX: 610 0
HStem: 0 61<78.5 140 86 140 209 390 390 408> 550 61<78.5 408 86 140 209 209 209 389>
VStem: 140 69<61 550> 659 69<235.5 366>
AnchorPoint: "below" 364 0 basechar 0
AnchorPoint: "above" 364 622 basechar 0
LayerCount: 2
Fore
SplineSet
46 30 m 0
 46 61 70 61 86 61 c 2
 140 61 l 1
 140 550 l 1
 86 550 l 2
 71 550 46 550 46 580 c 0
 46 611 70 611 86 611 c 2
 408 611 l 2
 584 611 728 471 728 300 c 0
 728 136 586 0 408 0 c 2
 86 0 l 2
 71 0 46 0 46 30 c 0
209 61 m 1
 390 61 l 2
 541 61 659 170 659 301 c 0
 659 431 546 550 389 550 c 2
 209 550 l 1
 209 61 l 1
EndSplineSet
EndChar

StartChar: E
Encoding: 69 69 115
Width: 700
Flags: HW
TeX: 610 0
HStem: 0 61<78.5 140 86 140 209 601> 286 61<209 408 209 408> 550 61<78.5 601 86 140 209 209 209 572>
VStem: 140 69<61 286 61 347 347 550> 408 69<265.5 270 270 286 347 363> 601 69<61 130>
AnchorPoint: "ogonek" 358 0 basechar 0
AnchorPoint: "below" 358 0 basechar 0
AnchorPoint: "above" 358 622 basechar 0
LayerCount: 2
Fore
SplineSet
46 30 m 0
 46 61 70 61 86 61 c 2
 140 61 l 1
 140 550 l 1
 86 550 l 2
 71 550 46 550 46 580 c 0
 46 611 70 611 86 611 c 2
 601 611 l 2
 635 611 641 601 641 570 c 2
 641 497 l 2
 641 477 641 456 606 456 c 0
 572 456 572 478 572 497 c 2
 572 550 l 1
 209 550 l 1
 209 347 l 1
 408 347 l 1
 408 388 408 404 443 404 c 0
 477 404 477 382 477 363 c 2
 477 270 l 2
 477 251 477 229 443 229 c 0
 408 229 408 245 408 286 c 1
 209 286 l 1
 209 61 l 1
 601 61 l 1
 601 130 l 2
 601 150 601 171 636 171 c 0
 670 171 670 149 670 130 c 2
 670 41 l 2
 670 9 663 0 630 0 c 2
 86 0 l 2
 71 0 46 0 46 30 c 0
EndSplineSet
EndChar

StartChar: F
Encoding: 70 70 116
Width: 670
Flags: HW
TeX: 610 0
HStem: 0 61<78.5 140 86 140 209 287> 275 61<209 402 209 402> 550 61<78.5 586 86 140 209 209 209 557>
VStem: 140 69<61 275 61 336 336 550> 402 69<254.5 259 259 275 336 352> 557 69<497 550 550 550>
CounterMasks: 1 e0
AnchorPoint: "below" 336 0 basechar 0
AnchorPoint: "above" 336 622 basechar 0
LayerCount: 2
Fore
SplineSet
46 30 m 0
 46 61 70 61 86 61 c 2
 140 61 l 1
 140 550 l 1
 86 550 l 2
 71 550 46 550 46 580 c 0
 46 611 70 611 86 611 c 2
 586 611 l 2
 620 611 626 601 626 570 c 2
 626 497 l 2
 626 477 626 456 591 456 c 0
 557 456 557 478 557 497 c 2
 557 550 l 1
 209 550 l 1
 209 336 l 1
 402 336 l 1
 402 377 402 393 437 393 c 0
 471 393 471 371 471 352 c 2
 471 259 l 2
 471 240 471 218 437 218 c 0
 402 218 402 234 402 275 c 1
 209 275 l 1
 209 61 l 1
 287 61 l 2
 303 61 327 61 327 30 c 0
 327 0 302 0 287 0 c 2
 86 0 l 2
 71 0 46 0 46 30 c 0
EndSplineSet
EndChar

StartChar: G
Encoding: 71 71 117
Width: 816
Flags: HW
TeX: 610 0
HStem: -11 61<332.5 462.5> 209 61<531 731 539 627 699 731 699 699> 561 61<333.5 441.5>
VStem: 58 69<235.5 374.5 235.5 390> 630 69<41 77 77 77>
AnchorPoint: "below" 406 0 basechar 0
AnchorPoint: "above" 408 622 basechar 0
LayerCount: 2
Fore
SplineSet
58 306 m 0
 58 474 207 622 408 622 c 0
 504 622 579 592 620 560 c 1
 629 580 629 582 638 597 c 1
 645 612 650 622 669 622 c 0
 699 622 699 597 699 581 c 2
 699 442 l 2
 699 422 699 401 664 401 c 0
 655 401 636 401 631 424 c 0
 624 452 615 492 555 527 c 0
 519 548 468 561 415 561 c 0
 252 561 127 444 127 305 c 0
 127 166 254 50 411 50 c 0
 518 50 608 115 627 209 c 1
 539 209 l 2
 523 209 499 209 499 240 c 0
 499 270 524 270 539 270 c 2
 731 270 l 2
 747 270 772 270 772 239 c 0
 772 209 746 209 731 209 c 2
 699 209 l 1
 699 41 l 2
 699 22 699 0 665 0 c 0
 630 0 630 21 630 41 c 2
 630 77 l 1
 594 41 519 -11 406 -11 c 0
 214 -11 58 131 58 306 c 0
EndSplineSet
EndChar

StartChar: H
Encoding: 72 72 118
Width: 758
Flags: HW
TeX: 610 0
HStem: 0 61<78.5 140 86 140 209 263 494 548 617 671> 287 61<209 548 209 548> 550 61<78.5 263 86 140 209 209 209 263 494 548 617 671 617 617>
VStem: 140 69<61 287 61 348 348 550> 548 69<61 287 287 287 348 550 61 550>
AnchorPoint: "below" 378 0 basechar 0
AnchorPoint: "above" 378 622 basechar 0
LayerCount: 2
Fore
SplineSet
46 30 m 0
 46 61 70 61 86 61 c 2
 140 61 l 1
 140 550 l 1
 86 550 l 2
 71 550 46 550 46 580 c 0
 46 611 70 611 86 611 c 2
 263 611 l 2
 279 611 303 611 303 580 c 0
 303 550 278 550 263 550 c 2
 209 550 l 1
 209 348 l 1
 548 348 l 1
 548 550 l 1
 494 550 l 2
 479 550 454 550 454 580 c 0
 454 611 478 611 494 611 c 2
 671 611 l 2
 687 611 711 611 711 580 c 0
 711 550 686 550 671 550 c 2
 617 550 l 1
 617 61 l 1
 671 61 l 2
 687 61 711 61 711 30 c 0
 711 0 686 0 671 0 c 2
 494 0 l 2
 479 0 454 0 454 30 c 0
 454 61 478 61 494 61 c 2
 548 61 l 1
 548 287 l 1
 209 287 l 1
 209 61 l 1
 263 61 l 2
 279 61 303 61 303 30 c 0
 303 0 278 0 263 0 c 2
 86 0 l 2
 71 0 46 0 46 30 c 0
EndSplineSet
EndChar

StartChar: I
Encoding: 73 73 119
Width: 350
Flags: HW
TeX: 610 0
HStem: 0 61<73.5 140 81 140 209 268> 550 61<73.5 268 81 140 209 268 209 209>
VStem: 140 69<61 550 61 550>
AnchorPoint: "ogonek" 174 0 basechar 0
AnchorPoint: "below" 174 0 basechar 0
AnchorPoint: "above" 174 622 basechar 0
LayerCount: 2
Fore
SplineSet
41 30 m 0
 41 61 65 61 81 61 c 2
 140 61 l 1
 140 550 l 1
 81 550 l 2
 66 550 41 550 41 580 c 0
 41 611 65 611 81 611 c 2
 268 611 l 2
 284 611 308 611 308 580 c 0
 308 550 283 550 268 550 c 2
 209 550 l 1
 209 61 l 1
 268 61 l 2
 284 61 308 61 308 30 c 0
 308 0 283 0 268 0 c 2
 81 0 l 2
 66 0 41 0 41 30 c 0
EndSplineSet
EndChar

StartChar: J
Encoding: 74 74 120
Width: 525
Flags: HW
TeX: 610 0
HStem: -11 61<233 246.5 233 281.5> 550 61<248.5 437 256 338 407 437 407 407>
VStem: 71 89<94 114 94 115> 338 69<140 550>
AnchorPoint: "below" 274 0 basechar 0
AnchorPoint: "above" 372 622 basechar 0
LayerCount: 2
Fore
SplineSet
71 99 m 0
 71 131 93 146 116 146 c 0
 141 146 160 126 160 102 c 0
 160 86 156 81 152 76 c 1
 181 50 229 50 237 50 c 0
 256 50 338 55 338 140 c 2
 338 550 l 1
 256 550 l 2
 241 550 215 550 215 581 c 0
 215 611 241 611 256 611 c 2
 437 611 l 2
 452 611 478 611 478 581 c 0
 478 550 453 550 437 550 c 2
 407 550 l 1
 407 134 l 2
 407 43 326 -11 237 -11 c 0
 137 -11 71 36 71 99 c 0
EndSplineSet
EndChar

StartChar: K
Encoding: 75 75 121
Width: 787
Flags: HW
TeX: 610 0
HStem: 0 61<85.5 147 93 147 203 257 574 576 576 592 666 702> 550 61<85.5 257 93 147 203 203 203 257 542 557 647 647 647 687>
VStem: 147 56<61 190 262 550>
AnchorPoint: "below" 398 0 basechar 0
AnchorPoint: "above" 398 622 basechar 0
LayerCount: 2
Fore
SplineSet
53 30 m 0
 53 61 77 61 93 61 c 2
 147 61 l 1
 147 550 l 1
 93 550 l 2
 78 550 53 550 53 580 c 0
 53 611 77 611 93 611 c 2
 257 611 l 2
 273 611 297 611 297 580 c 0
 297 550 272 550 257 550 c 2
 203 550 l 1
 203 262 l 1
 557 550 l 1
 522 550 502 550 502 581 c 0
 502 611 527 611 542 611 c 2
 687 611 l 2
 702 611 728 611 728 580 c 0
 728 550 702 550 687 550 c 2
 647 550 l 1
 409 357 l 1
 666 61 l 1
 702 61 l 2
 717 61 743 61 743 30 c 0
 743 0 717 0 702 0 c 2
 576 0 l 2
 561 0 536 0 536 30 c 0
 536 61 556 61 592 61 c 1
 365 322 l 1
 203 190 l 1
 203 61 l 1
 257 61 l 2
 273 61 297 61 297 30 c 0
 297 0 272 0 257 0 c 2
 93 0 l 2
 78 0 53 0 53 30 c 0
EndSplineSet
EndChar

StartChar: L
Encoding: 76 76 122
Width: 641
Flags: HW
TeX: 610 0
HStem: 0 61<78.5 140 86 140 209 528> 550 61<78.5 287 86 140 209 287 209 209>
VStem: 140 69<61 550 61 550> 528 69<61 130>
AnchorPoint: "below" 322 0 basechar 0
AnchorPoint: "above" 322 622 basechar 0
LayerCount: 2
Fore
SplineSet
46 30 m 0
 46 61 70 61 86 61 c 2
 140 61 l 1
 140 550 l 1
 86 550 l 2
 71 550 46 550 46 580 c 0
 46 611 70 611 86 611 c 2
 287 611 l 2
 303 611 327 611 327 580 c 0
 327 550 302 550 287 550 c 2
 209 550 l 1
 209 61 l 1
 528 61 l 1
 528 130 l 2
 528 151 528 171 563 171 c 0
 597 171 597 150 597 130 c 2
 597 41 l 2
 597 9 590 0 557 0 c 2
 86 0 l 2
 71 0 46 0 46 30 c 0
EndSplineSet
EndChar

StartChar: M
Encoding: 77 77 123
Width: 933
Flags: HW
TeX: 610 0
HStem: 0 61<85.5 147 93 147 203 257 675 729 785 839> 550 61<85.5 189 93 147 785 839 785 785>
VStem: 147 56<61 545 61 550 61 550> 729 56<61 545 545 545>
AnchorPoint: "below" 466 0 basechar 0
AnchorPoint: "above" 466 622 basechar 0
LayerCount: 2
Fore
SplineSet
53 30 m 0
 53 61 77 61 93 61 c 2
 147 61 l 1
 147 550 l 1
 93 550 l 2
 78 550 53 550 53 580 c 0
 53 611 77 611 93 611 c 2
 189 611 l 2
 222 611 234 604 247 574 c 2
 466 75 l 1
 685 576 l 2
 700 611 723 611 743 611 c 2
 839 611 l 2
 855 611 879 611 879 580 c 0
 879 550 854 550 839 550 c 2
 785 550 l 1
 785 61 l 1
 839 61 l 2
 855 61 879 61 879 30 c 0
 879 0 854 0 839 0 c 2
 675 0 l 2
 659 0 635 0 635 31 c 0
 635 61 660 61 675 61 c 2
 729 61 l 1
 729 545 l 1
 728 545 l 1
 510 46 l 2
 496 15 475 11 466 11 c 0
 438 11 427 36 422 48 c 2
 204 545 l 1
 203 545 l 1
 203 61 l 1
 257 61 l 2
 273 61 297 61 297 30 c 0
 297 0 272 0 257 0 c 2
 93 0 l 2
 78 0 53 0 53 30 c 0
EndSplineSet
EndChar

StartChar: N
Encoding: 78 78 124
Width: 758
Flags: HW
TeX: 610 0
HStem: 0 61<85.5 147 93 147 203 257> 550 61<85.5 188 93 147 500 554 610 610 610 664>
VStem: 147 56<61 550 550 550> 554 56<51 550>
AnchorPoint: "below" 378 0 basechar 0
AnchorPoint: "above" 378 622 basechar 0
LayerCount: 2
Fore
SplineSet
53 30 m 0
 53 61 77 61 93 61 c 2
 147 61 l 1
 147 550 l 1
 93 550 l 2
 78 550 53 550 53 580 c 0
 53 611 77 611 93 611 c 2
 188 611 l 2
 209 611 231 611 251 577 c 2
 553 51 l 1
 554 51 l 1
 554 550 l 1
 500 550 l 2
 485 550 460 550 460 580 c 0
 460 611 484 611 500 611 c 2
 664 611 l 2
 680 611 704 611 704 580 c 0
 704 550 679 550 664 550 c 2
 610 550 l 1
 610 41 l 2
 610 6 601 0 569 0 c 0
 548 0 526 0 506 34 c 2
 204 560 l 1
 203 560 l 1
 203 61 l 1
 257 61 l 2
 273 61 297 61 297 30 c 0
 297 0 272 0 257 0 c 2
 93 0 l 2
 78 0 53 0 53 30 c 0
EndSplineSet
EndChar

StartChar: O
Encoding: 79 79 125
Width: 816
Flags: HW
TeX: 610 0
HStem: -11 61<329 486.5 329 507> 561 61<329.5 486.5>
VStem: 58 69<245 383.5 245 390.5> 689 69<244.5 383.5>
AnchorPoint: "ogonek" 408 0 basechar 0
AnchorPoint: "below" 408 0 basechar 0
AnchorPoint: "above" 408 622 basechar 0
LayerCount: 2
Fore
SplineSet
58 306 m 0
 58 475 210 622 408 622 c 0
 604 622 758 478 758 305 c 0
 758 136 606 -11 408 -11 c 0
 212 -11 58 133 58 306 c 0
127 317 m 0
 127 173 250 50 408 50 c 0
 565 50 689 172 689 317 c 0
 689 450 565 561 408 561 c 0
 251 561 127 450 127 317 c 0
EndSplineSet
EndChar

StartChar: P
Encoding: 80 80 126
Width: 700
Flags: HW
TeX: 610 0
HStem: 0 61<78.5 140 86 140 209 263> 245 61<209 377 209 377 377 394> 550 61<78.5 394 86 140 209 209 209 377>
VStem: 140 69<61 245 61 306 306 550> 572 69<395.5 460.5>
AnchorPoint: "below" 320 0 basechar 0
AnchorPoint: "above" 320 622 basechar 0
LayerCount: 2
Fore
SplineSet
46 30 m 0
 46 61 70 61 86 61 c 2
 140 61 l 1
 140 550 l 1
 86 550 l 2
 71 550 46 550 46 580 c 0
 46 611 70 611 86 611 c 2
 394 611 l 2
 536 611 641 525 641 428 c 0
 641 331 536 245 394 245 c 2
 209 245 l 1
 209 61 l 1
 263 61 l 2
 279 61 303 61 303 30 c 0
 303 0 278 0 263 0 c 2
 86 0 l 2
 71 0 46 0 46 30 c 0
209 306 m 1
 377 306 l 2
 487 306 572 363 572 428 c 0
 572 493 488 550 377 550 c 2
 209 550 l 1
 209 306 l 1
EndSplineSet
EndChar

StartChar: Q
Encoding: 81 81 127
Width: 816
Flags: HW
TeX: 610 138
HStem: -139 21<666.5 684.5> -11 61<328.5 408.5 328.5 422.5> 561 61<330 487.5>
VStem: 58 69<236.5 375.5 236.5 390.5> 689 69<277 374.5>
AnchorPoint: "below" 408 -222 basechar 0
AnchorPoint: "above" 408 622 basechar 0
LayerCount: 2
Fore
SplineSet
58 306 m 0
 58 475 210 622 408 622 c 0
 604 622 758 478 758 305 c 0
 758 249 740 116 578 28 c 1
 598 5 646 -47 686 -91 c 0
 695 -101 708 -115 708 -122 c 0
 708 -139 692 -139 677 -139 c 0
 656 -139 647 -139 631 -121 c 2
 532 -12 l 2
 518 3 518 4 517 4 c 0
 516 4 514 4 510 2 c 0
 470 -8 437 -11 408 -11 c 0
 212 -11 58 133 58 306 c 0
127 305 m 0
 127 168 249 50 408 50 c 0
 409 50 441 50 471 56 c 1
 390 149 l 1
 390 171 400 171 422 171 c 0
 445 171 446 170 457 160 c 0
 468 149 485 128 533 77 c 1
 626 118 689 207 689 306 c 0
 689 443 567 561 408 561 c 0
 252 561 127 446 127 305 c 0
EndSplineSet
EndChar

StartChar: R
Encoding: 82 82 128
Width: 758
Flags: HW
TeX: 610 0
HStem: -11 61<620.5 651.5 614 676.5> 0 61<78.5 140 86 140 209 263> 275 61<209 345 345 352 209 345> 550 61<78.5 354 86 140 209 209 209 345>
VStem: 140 69<61 275 61 336 336 550> 518 69<130.5 187>
AnchorPoint: "below" 320 0 basechar 0
AnchorPoint: "above" 320 622 basechar 0
LayerCount: 2
Fore
SplineSet
46 30 m 0
 46 61 70 61 86 61 c 2
 140 61 l 1
 140 550 l 1
 86 550 l 2
 71 550 46 550 46 580 c 0
 46 611 70 611 86 611 c 2
 354 611 l 2
 499 611 626 537 626 443 c 0
 626 388 583 338 511 307 c 1x7c
 533 296 553 281 567 261 c 0
 587 231 587 215 587 161 c 0
 587 100 587 50 641 50 c 0
 662 50 682 64 685 95 c 0
 688 125 707 125 719 125 c 0
 729 125 754 125 754 94 c 0
 754 46 712 -11 641 -11 c 0
 600 -11 564 7 544 34 c 0
 518 70 518 97 518 157 c 0
 518 217 518 229 478 252 c 1
 456 263 409 275 352 275 c 2xb8
 209 275 l 1
 209 61 l 1
 263 61 l 2
 279 61 303 61 303 30 c 0
 303 0 278 0 263 0 c 2
 86 0 l 2
 71 0 46 0 46 30 c 0
209 336 m 1
 345 336 l 2
 452 336 557 380 557 443 c 0
 557 506 452 550 345 550 c 2
 209 550 l 1
 209 336 l 1
EndSplineSet
EndChar

StartChar: S
Encoding: 83 83 129
Width: 583
Flags: HW
TeX: 610 0
HStem: -11 61<291.5 362 288.5 381.5> 561 61<221 284 201.5 315.5>
VStem: 58 65<433 487 431 500> 459 65<135 183.5>
AnchorPoint: "below" 315 0 basechar 0
AnchorPoint: "above" 264 622 basechar 0
LayerCount: 2
Fore
SplineSet
58 30 m 2
 58 162 l 2
 58 182 58 203 93 203 c 0
 125 203 126 184 127 170 c 0
 130 125 146 100 182 78 c 0
 210 62 261 50 316 50 c 0
 408 50 459 108 459 162 c 0
 459 205 428 233 427 233 c 0
 394 261 379 264 317 277 c 2
 274 286 l 2
 183 305 148 312 107 350 c 0
 84 372 58 408 58 458 c 0
 58 542 139 622 264 622 c 0
 304 622 374 615 426 571 c 1
 441 615 443 622 465 622 c 0
 495 622 495 597 495 581 c 2
 495 449 l 2
 495 429 495 408 460 408 c 0
 431 408 428 423 425 440 c 0
 412 508 368 561 263 561 c 0
 179 561 123 512 123 462 c 0
 123 400 195 373 222 367 c 2
 370 336 l 2
 460 317 524 246 524 166 c 0
 524 79 448 -11 315 -11 c 0
 268 -11 185 -5 127 37 c 1
 113 -1 110 -11 88 -11 c 0
 58 -11 58 14 58 30 c 2
EndSplineSet
EndChar

StartChar: T
Encoding: 84 84 130
Width: 758
Flags: HW
TeX: 610 0
HStem: 0 61<243.5 344 251 344 413 506> 550 61<107 344 107 107 413 650 413 413>
VStem: 38 69<497 550 487 570> 344 69<61 550 61 550> 650 69<497 550 550 550>
CounterMasks: 1 1c
AnchorPoint: "below" 378 0 basechar 0
AnchorPoint: "above" 378 622 basechar 0
LayerCount: 2
Fore
SplineSet
38 497 m 2
 38 570 l 2
 38 603 46 611 79 611 c 2
 679 611 l 2
 713 611 719 601 719 570 c 2
 719 497 l 2
 719 477 719 456 684 456 c 0
 650 456 650 478 650 497 c 2
 650 550 l 1
 413 550 l 1
 413 61 l 1
 506 61 l 2
 521 61 547 61 547 30 c 0
 547 0 520 0 506 0 c 2
 251 0 l 2
 236 0 210 0 210 31 c 0
 210 61 237 61 251 61 c 2
 344 61 l 1
 344 550 l 1
 107 550 l 1
 107 497 l 2
 107 477 107 456 72 456 c 0
 38 456 38 478 38 497 c 2
EndSplineSet
EndChar

StartChar: U
Encoding: 85 85 131
Width: 758
Flags: HW
TeX: 610 0
HStem: -11 61<341 415 341 443.5> 550 61<78.5 263 86 140 209 209 209 263 494 548 617 671 617 617>
VStem: 140 69<206 212 212 550> 548 69<212 550>
AnchorPoint: "ogonek" 378 0 basechar 0
AnchorPoint: "below" 378 0 basechar 0
AnchorPoint: "above" 378 622 basechar 0
LayerCount: 2
Fore
SplineSet
46 580 m 0
 46 611 70 611 86 611 c 2
 263 611 l 2
 279 611 303 611 303 580 c 0
 303 550 278 550 263 550 c 2
 209 550 l 1
 209 212 l 2
 209 100 303 50 379 50 c 0
 451 50 548 98 548 212 c 2
 548 550 l 1
 494 550 l 2
 479 550 454 550 454 580 c 0
 454 611 478 611 494 611 c 2
 671 611 l 2
 687 611 711 611 711 580 c 0
 711 550 686 550 671 550 c 2
 617 550 l 1
 617 206 l 2
 617 82 509 -11 378 -11 c 0
 251 -11 140 80 140 206 c 2
 140 550 l 1
 86 550 l 2
 71 550 46 550 46 580 c 0
EndSplineSet
EndChar

StartChar: V
Encoding: 86 86 132
Width: 758
Flags: HW
TeX: 610 0
ItalicCorrection: 14
HStem: -8 21<350 369 369 388> 550 61<60 222 68 109 183 183 183 222 535 574 648 689 648 648>
VStem: 28 701<565.5 595.5 565 596>
AnchorPoint: "below" 378 0 basechar 0
AnchorPoint: "above" 378 622 basechar 0
LayerCount: 2
Fore
SplineSet
28 581 m 0
 28 611 53 611 68 611 c 2
 222 611 l 2
 238 611 263 611 263 580 c 0
 263 550 237 550 222 550 c 2
 183 550 l 1
 379 51 l 1
 574 550 l 1
 535 550 l 2
 520 550 494 550 494 580 c 0
 494 611 519 611 535 611 c 2
 689 611 l 2
 705 611 729 611 729 580 c 0
 729 550 704 550 689 550 c 2
 648 550 l 1
 443 27 l 2
 430 -7 412 -8 388 -8 c 2
 369 -8 l 2
 331 -8 324 3 314 28 c 2
 109 550 l 1
 68 550 l 2
 52 550 28 550 28 581 c 0
EndSplineSet
EndChar

StartChar: W
Encoding: 87 87 133
Width: 1050
Flags: HW
TeX: 610 0
ItalicCorrection: 14
HStem: -8 21<301.5 324 720.5 750> 550 61<57.5 200 65 99 158 158 158 200 849 891 950 984 950 950>
VStem: 24 1001<565.5 595.5 565 596>
AnchorPoint: "below" 524 0 basechar 0
AnchorPoint: "above" 524 622 basechar 0
LayerCount: 2
Fore
SplineSet
24 581 m 0
 24 611 50 611 65 611 c 2
 200 611 l 2
 215 611 241 611 241 580 c 0
 241 550 215 550 200 550 c 2
 158 550 l 1
 310 43 l 1
 471 577 l 2
 481 611 498 611 525 611 c 0
 547 611 569 611 579 577 c 2
 739 43 l 1
 891 550 l 1
 849 550 l 2
 835 550 808 550 808 580 c 0
 808 611 833 611 849 611 c 2
 984 611 l 2
 999 611 1025 611 1025 580 c 0
 1025 550 999 550 984 550 c 2
 950 550 l 1
 793 26 l 2
 783 -8 761 -8 739 -8 c 0
 702 -8 694 -1 685 30 c 2
 524 562 l 1
 364 29 l 2
 353 -7 338 -8 310 -8 c 0
 293 -8 271 -8 260 14 c 1
 99 550 l 1
 65 550 l 2
 50 550 24 550 24 581 c 0
EndSplineSet
EndChar

StartChar: X
Encoding: 88 88 134
Width: 758
Flags: HW
TeX: 610 0
HStem: 0 61<76 132 83 132 216 239 515 536 622 672> 550 61<92 256 100 149 237 237 237 256 474 496 581 581 581 630>
AnchorPoint: "below" 378 0 basechar 0
AnchorPoint: "above" 378 622 basechar 0
LayerCount: 2
Fore
SplineSet
42 30 m 0
 42 61 68 61 83 61 c 2
 132 61 l 1
 332 324 l 1
 149 550 l 1
 100 550 l 2
 84 550 59 550 59 581 c 0
 59 611 85 611 100 611 c 2
 256 611 l 2
 272 611 297 611 297 580 c 0
 297 550 271 550 256 550 c 2
 237 550 l 1
 371 382 l 1
 496 550 l 1
 474 550 l 2
 459 550 433 550 433 581 c 0
 433 611 459 611 474 611 c 2
 630 611 l 2
 645 611 671 611 671 580 c 0
 671 550 645 550 630 550 c 2
 581 550 l 1
 410 324 l 1
 622 61 l 1
 672 61 l 2
 687 61 713 61 713 30 c 0
 713 0 686 0 672 0 c 2
 515 0 l 2
 500 0 475 0 475 30 c 0
 475 61 499 61 515 61 c 2
 536 61 l 1
 371 273 l 1
 216 61 l 1
 239 61 l 2
 255 61 280 61 280 30 c 0
 280 0 254 0 239 0 c 2
 83 0 l 2
 69 0 42 0 42 30 c 0
EndSplineSet
EndChar

StartChar: Y
Encoding: 89 89 135
Width: 758
Flags: HW
TeX: 610 0
ItalicCorrection: 26
HStem: 0 61<282.5 344 290 344 413 467> 550 61<63.5 227 71 119 204 204 204 227 530 553 638 686 638 638>
VStem: 344 69<61 244 61 244>
AnchorPoint: "below" 378 0 basechar 0
AnchorPoint: "above" 378 622 basechar 0
LayerCount: 2
Fore
SplineSet
30 581 m 0
 30 611 56 611 71 611 c 2
 227 611 l 2
 242 611 268 611 268 580 c 0
 268 550 242 550 227 550 c 2
 204 550 l 1
 378 314 l 1
 553 550 l 1
 530 550 l 2
 515 550 489 550 489 581 c 0
 489 611 515 611 530 611 c 2
 686 611 l 2
 701 611 727 611 727 580 c 0
 727 550 701 550 686 550 c 2
 638 550 l 1
 413 244 l 1
 413 61 l 1
 467 61 l 2
 483 61 507 61 507 30 c 0
 507 0 482 0 467 0 c 2
 290 0 l 2
 275 0 250 0 250 30 c 0
 250 61 274 61 290 61 c 2
 344 61 l 1
 344 244 l 1
 119 550 l 1
 71 550 l 2
 56 550 30 550 30 581 c 0
EndSplineSet
EndChar

StartChar: Z
Encoding: 90 90 136
Width: 641
Flags: HW
TeX: 610 0
HStem: 0 61<89.5 520 155 520 155 549> 550 61<142 486 142 142>
VStem: 73 69<497 550 487 570> 520 69<61 133>
AnchorPoint: "below" 324 0 basechar 0
AnchorPoint: "above" 324 622 basechar 0
LayerCount: 2
Fore
SplineSet
58 34 m 0
 58 50 59 53 70 65 c 2
 486 550 l 1
 142 550 l 1
 142 497 l 2
 142 477 142 456 107 456 c 0
 73 456 73 478 73 497 c 2
 73 570 l 2
 73 603 81 611 114 611 c 2
 542 611 l 2
 561 611 583 611 583 577 c 0
 583 561 582 558 571 546 c 2
 155 61 l 1
 520 61 l 1
 520 133 l 2
 520 153 520 174 555 174 c 0
 589 174 589 152 589 133 c 2
 589 41 l 2
 589 9 582 0 549 0 c 2
 99 0 l 2
 80 0 58 0 58 34 c 0
EndSplineSet
EndChar

StartChar: bracketleft
Encoding: 91 91 137
Width: 297
Flags: HW
TeX: 694 83
HStem: -83 61<180 272.802> 632 62<180 272.719>
VStem: 110 70<-22 632>
LayerCount: 2
Fore
SplineSet
110 -45 m 2
 110 658 l 2
 110 669 110 694 146 694 c 2
 237 694 l 2
 269 694 274 674 274 663 c 0
 274 647 265 632 238 632 c 2
 180 632 l 1
 180 -22 l 1
 239 -22 l 2
 267 -22 274 -38 274 -52 c 0
 274 -68 265 -83 237 -83 c 2
 147 -83 l 2
 109 -83 110 -57 110 -45 c 2
EndSplineSet
EndChar

StartChar: backslash
Encoding: 92 92 138
Width: 525
Flags: HW
TeX: 694 83
DStem2: 456 -24 67 638 0.434603 -0.900622<-791.277 29.5642>
LayerCount: 2
Fore
SplineSet
58 663 m 0
 58 681 75 694 89 694 c 0
 110 694 117 675 123 663 c 2
 456 -24 l 2
 460 -32 465 -42 465 -53 c 0
 465 -71 450 -83 435 -83 c 0
 414 -83 405 -63 399 -50 c 2
 67 638 l 2
 64 645 58 653 58 663 c 0
EndSplineSet
EndChar

StartChar: bracketright
Encoding: 93 93 139
Width: 297
Flags: HW
TeX: 694 83
HStem: -83 61<23.1514 116> 632 62<23.2812 116>
VStem: 116 70<-22 632>
LayerCount: 2
Fore
SplineSet
22 -53 m 0
 22 -39 29 -22 57 -22 c 2
 116 -22 l 1
 116 632 l 1
 57 632 l 2
 29 632 22 649 22 663 c 0
 22 674 27 694 59 694 c 2
 146 694 l 2
 181 694 186 682 186 656 c 2
 186 -47 l 2
 186 -59 186 -83 150 -83 c 2
 59 -83 l 2
 27 -83 22 -64 22 -53 c 0
EndSplineSet
EndChar

StartChar: asciicircum
Encoding: 94 94 140
Width: 642
Flags: HW
TeX: 610 0
HStem: 422 72<105.024 183.319 455.673 534.976> 496 69<266.104 375.884>
LayerCount: 2
Fore
SplineSet
100 462 m 0
 100 481 117 488 132 494 c 0
 306 562 313 565 320 565 c 2
 321 565 l 2
 328 565 330 564 508 494 c 0
 520 490 540 482 540 463 c 0
 540 456 533 422 507 422 c 2
 506 422 l 2
 489 422 333 496 320 496 c 0
 311 496 152 422 133 422 c 0
 107 422 100 456 100 462 c 0
EndSplineSet
EndChar

StartChar: underscore
Encoding: 95 95 141
Width: 816
Flags: HW
TeX: 0 95
HStem: -95 70<89.6365 725.104>
LayerCount: 2
Fore
SplineSet
87 -60 m 0
 87 -51 91 -25 129 -25 c 2
 687 -25 l 2
 724 -25 728 -52 728 -60 c 0
 728 -72 720 -95 689 -95 c 2
 131 -95 l 2
 94 -95 87 -74 87 -60 c 0
EndSplineSet
EndChar

StartChar: quoteleft
Encoding: 8216 8216 142
Width: 292
Flags: HW
TeX: 610 0
HStem: 372 100<143.181 186.039> 590 20G<160 179>
VStem: 80 115<392.5 463.183>
LayerCount: 2
Fore
SplineSet
80 462 m 0
 80 551 148 610 172 610 c 0
 186 610 204 597 204 579 c 0
 204 548 151 547 142 472 c 1
 185 471 195 438 195 422 c 0
 195 396 175 372 145 372 c 0
 106 372 80 408 80 462 c 0
EndSplineSet
EndChar

StartChar: a
Encoding: 97 97 143
Width: 510
Flags: HW
TeX: 430 0
HStem: -6 61<191 224.5 191 246> 218 61 379 61<215 257.5>
VStem: 53 69<109 150 109 173.5> 344 69<134 218 218 218 277 285 69 312.5>
AnchorPoint: "ogonek" 378 0 basechar 0
AnchorPoint: "affricate-below" 510 -222 basechar 0
AnchorPoint: "affricate-above" 510 611 basechar 0
AnchorPoint: "below" 220 0 basechar 0
AnchorPoint: "above" 220 440 basechar 0
LayerCount: 2
Fore
SplineSet
53 128 m 0
 53 219 164 274 344 277 c 1
 344 348 294 379 221 379 c 0
 209 379 196 379 184 378 c 0
 168 376 167 375 167 367 c 0
 166 331 140 321 123 321 c 0
 99 321 78 337 78 367 c 0
 78 440 178 440 220 440 c 0
 358 440 413 358 413 285 c 2
 413 69 l 1
 422 65 431 61 469 61 c 0
 484 61 509 61 509 31 c 0
 509 0 487 0 460 0 c 0
 417 0 375 3 355 32 c 1
 329 14 279 -6 213 -6 c 0
 116 -6 53 58 53 128 c 0
122 128 m 0
 122 90 161 55 221 55 c 0
 228 55 270 55 305 71 c 0
 344 89 344 112 344 134 c 2
 344 218 l 1
 187 213 122 172 122 128 c 0
EndSplineSet
EndChar

StartChar: b
Encoding: 98 98 144
Width: 583
Flags: HW
TeX: 610 0
HStem: -6 61<281.5 351.5 268 373.5> 376 61<301.5 362.5> 550 61<49.5 140 57 111>
VStem: 111 69<41 53 167.5 195 195 262 383 550 550 550> 469 69<169.5 258>
AnchorPoint: "affricate-below" 583 -222 basechar 0
AnchorPoint: "affricate-above" 583 611 basechar 0
AnchorPoint: "below" 324 0 basechar 0
AnchorPoint: "above" 324 611 basechar 0
LayerCount: 2
Fore
SplineSet
17 580 m 0
 17 611 41 611 57 611 c 2
 140 611 l 2
 174 611 180 601 180 570 c 2
 180 383 l 1
 225 422 278 437 325 437 c 0
 444 437 538 336 538 216 c 0
 538 90 433 -6 314 -6 c 0
 249 -6 205 26 180 53 c 1
 180 18 180 0 146 0 c 0
 111 0 111 21 111 41 c 2
 111 550 l 1
 57 550 l 2
 42 550 17 550 17 580 c 0
180 195 m 2
 180 140 226 55 310 55 c 0
 393 55 469 123 469 216 c 0
 469 300 406 376 319 376 c 0
 249 376 180 325 180 262 c 2
 180 195 l 2
EndSplineSet
EndChar

StartChar: c
Encoding: 99 99 145
Width: 466
Flags: HW
TeX: 430 0
HStem: -6 61<227.5 307 227.5 333.5> 379 61<208.5 286.5>
VStem: 44 69<170.5 240 170.5 260> 341 84
AnchorPoint: "affricate-below" 466 -222 basechar 0
AnchorPoint: "affricate-above" 466 611 basechar 0
AnchorPoint: "below" 264 0 basechar 0
AnchorPoint: "above" 276 440 basechar 0
LayerCount: 2
Fore
SplineSet
44 216 m 0
 44 304 104 440 276 440 c 0
 321 440 425 440 425 367 c 0
 425 338 404 321 380 321 c 0
 356 321 337 335 336 370 c 0
 336 379 297 379 276 379 c 0
 141 379 113 264 113 216 c 0
 113 125 185 55 270 55 c 0
 344 55 363 102 369 115 c 1
 376 135 386 137 402 137 c 0
 408 137 437 137 437 109 c 0
 437 92 403 -6 264 -6 c 0
 138 -6 44 96 44 216 c 0
EndSplineSet
EndChar

StartChar: d
Encoding: 100 100 146
Width: 583
Flags: HW
TeX: 610 0
HStem: -6 61<220.5 292.5> 376 61<230 290.5 206.5 308> 550 61<340 431 348 402>
VStem: 44 69<171.5 260.5 171.5 277> 402 69<41 570 58 570 197 263 263 292.5 386 550 550 550>
AnchorPoint: "affricate-below" 583 -222 basechar 0
AnchorPoint: "affricate-above" 583 611 basechar 0
AnchorPoint: "below" 304 0 basechar 0
AnchorPoint: "above" 258 611 basechar 0
LayerCount: 2
Fore
SplineSet
44 215 m 0
 44 339 145 437 268 437 c 0
 313 437 361 422 402 386 c 1
 402 550 l 1
 348 550 l 2
 332 550 308 550 308 581 c 0
 308 611 333 611 348 611 c 2
 431 611 l 2
 465 611 471 601 471 570 c 2
 471 61 l 1
 525 61 l 2
 541 61 565 61 565 30 c 0
 565 0 540 0 525 0 c 2
 442 0 l 2
 408 0 402 10 402 41 c 2
 402 58 l 1
 377 31 328 -6 257 -6 c 0
 141 -6 44 92 44 215 c 0
113 215 m 0
 113 128 179 55 262 55 c 0
 347 55 402 137 402 197 c 2
 402 263 l 2
 402 322 343 376 273 376 c 0
 187 376 113 306 113 215 c 0
EndSplineSet
EndChar

StartChar: e
Encoding: 101 101 147
Width: 466
Flags: HW
TeX: 430 0
HStem: -6 61<231.5 285 231.5 326.5> 191 60<110 366 110 397 109 366> 379 61<215 273>
VStem: 38 71<191 191 191 278> 366 71<251 251>
AnchorPoint: "ogonek" 263 0 basechar 0
AnchorPoint: "affricate-below" 466 -222 basechar 0
AnchorPoint: "affricate-above" 466 611 basechar 0
AnchorPoint: "below" 263 0 basechar 0
AnchorPoint: "above" 248 440 basechar 0
LayerCount: 2
Fore
SplineSet
38 218 m 0
 38 338 130 440 248 440 c 0
 371 440 437 347 437 228 c 0
 437 191 418 191 397 191 c 2
 109 191 l 1
 123 109 194 55 269 55 c 0
 301 55 349 67 369 115 c 1
 376 135 386 137 402 137 c 0
 408 137 437 137 437 109 c 0
 437 83 390 -6 263 -6 c 0
 137 -6 38 94 38 218 c 0
110 251 m 1
 366 251 l 1
 358 354 298 379 248 379 c 0
 182 379 124 326 110 251 c 1
EndSplineSet
EndChar

StartChar: f
Encoding: 102 102 148
Width: 320
Flags: HW
TeX: 610 0
ItalicCorrection: 74
HStem: 0 61<49.5 111 57 111 180 258> 370 61<60.5 111 69 111 69 111 180 261> 556 61<260.5 274.5 227 275>
VStem: 111 69<61 370 61 370 431 478> 275 87<554 556>
AnchorPoint: "affricate-below" 320 -222 basechar 0
AnchorPoint: "affricate-above" 320 611 basechar 0
AnchorPoint: "above" 267 611 basechar 0
AnchorPoint: "below" 146 0 basechar 0
LayerCount: 2
Fore
SplineSet
17 30 m 0
 17 61 41 61 57 61 c 2
 111 61 l 1
 111 370 l 1
 68 370 l 2
 53 370 28 370 28 400 c 0
 28 431 53 431 69 431 c 2
 111 431 l 1
 111 484 l 2
 111 571 187 617 267 617 c 0
 282 617 362 617 362 557 c 0
 362 529 339 513 319 513 c 0
 284 513 275 552 275 556 c 1
 246 556 180 556 180 478 c 2
 180 431 l 1
 261 431 l 2
 277 431 301 431 301 400 c 0
 301 370 276 370 261 370 c 2
 180 370 l 1
 180 61 l 1
 258 61 l 2
 274 61 298 61 298 30 c 0
 298 0 273 0 258 0 c 2
 57 0 l 2
 42 0 17 0 17 30 c 0
EndSplineSet
EndChar

StartChar: g
Encoding: 103 103 149
Width: 525
Flags: HW
TeX: 430 222
ItalicCorrection: 14
HStem: -229 60<212 312 212 326> 4 57<211 279.5> 116 60<208.5 259 206 279> 377 60<207 256 186 260>
VStem: 68 69<255.5 304.5> 329 69<248.5 292 232.5 303.5> 437 58<-104 -63.5 -124.5 -39>
AnchorPoint: "affricate-below" 525 -222 basechar 0
AnchorPoint: "affricate-above" 525 611 basechar 0
AnchorPoint: "below" 262 -222 basechar 0
AnchorPoint: "above" 232 440 basechar 0
LayerCount: 2
Fore
SplineSet
29 -82 m 0
 29 -71 29 -3 103 42 c 1
 94 54 80 79 80 114 c 0
 80 144 89 166 100 182 c 1
 85 201 68 234 68 277 c 0
 68 362 139 437 233 437 c 0
 279 437 314 418 330 407 c 1
 376 441 425 442 436 442 c 0
 490 442 509 411 509 388 c 0
 509 359 486 347 469 347 c 0
 459 347 436 354 430 381 c 1
 417 380 393 376 372 364 c 1
 389 336 398 307 398 277 c 0
 398 188 325 116 233 116 c 0
 184 116 146 139 143 141 c 1
 139 131 137 117 137 113 c 0
 137 111 138 91 149 77 c 0
 161 63 167 63 182 63 c 1
 190 61 203 61 211 61 c 2
 281 61 l 2
 371 61 413 39 426 32 c 0
 477 5 495 -45 495 -82 c 0
 495 -167 390 -229 262 -229 c 0
 134 -229 29 -168 29 -82 c 0
87 -82 m 0
 87 -126 162 -169 262 -169 c 0
 362 -169 437 -126 437 -82 c 0
 437 4 324 4 235 4 c 0
 162 4 153 4 128 -12 c 0
 96 -32 87 -64 87 -82 c 0
137 276 m 0
 137 223 179 176 233 176 c 0
 285 176 329 220 329 277 c 0
 329 330 287 377 233 377 c 0
 181 377 137 333 137 276 c 0
EndSplineSet
EndChar

StartChar: h
Encoding: 104 104 150
Width: 583
Flags: HW
TeX: 610 0
HStem: 0 61<49.5 111 57 111 180 234 348 402 471 525> 376 61<298 356> 550 61<49.5 140 57 111>
VStem: 111 69<61 237 380 550 550 550> 402 69<61 285 285 291 61 313>
AnchorPoint: "affricate-below" 583 -222 basechar 0
AnchorPoint: "affricate-above" 583 611 basechar 0
AnchorPoint: "below" 291 0 basechar 0
AnchorPoint: "above" 291 611 basechar 0
LayerCount: 2
Fore
SplineSet
17 30 m 0
 17 61 41 61 57 61 c 2
 111 61 l 1
 111 550 l 1
 57 550 l 2
 42 550 17 550 17 580 c 0
 17 611 41 611 57 611 c 2
 140 611 l 2
 174 611 180 601 180 570 c 2
 180 380 l 1
 219 416 269 437 327 437 c 0
 409 437 471 399 471 291 c 2
 471 61 l 1
 525 61 l 2
 541 61 565 61 565 30 c 0
 565 0 540 0 525 0 c 2
 348 0 l 2
 332 0 308 0 308 31 c 0
 308 61 333 61 348 61 c 2
 402 61 l 1
 402 285 l 2
 402 341 391 376 321 376 c 0
 266 376 180 342 180 237 c 2
 180 61 l 1
 234 61 l 2
 250 61 274 61 274 30 c 0
 274 0 249 0 234 0 c 2
 57 0 l 2
 42 0 17 0 17 30 c 0
EndSplineSet
EndChar

StartChar: i
Encoding: 105 105 151
Width: 291
Flags: HW
TeX: 610 0
HStem: 0 61<49.5 111 57 111 180 224 224 225> 370 61<54.5 140 62 111> 512 100<116 144>
VStem: 111 69<61 370 370 370>
AnchorPoint: "above" 146 592 basechar 0
AnchorPoint: "ogonek" 141 0 basechar 0
AnchorPoint: "affricate-below" 291 -222 basechar 0
AnchorPoint: "affricate-above" 291 611 basechar 0
AnchorPoint: "below" 146 0 basechar 0
LayerCount: 2
Fore
SplineSet
80 562 m 0
 80 590 102 612 130 612 c 0
 158 612 180 590 180 562 c 0
 180 534 158 512 130 512 c 0
 102 512 80 534 80 562 c 0
EndSplineSet
Refer: 71 305 S 1 0 0 1 0 0 3
EndChar

StartChar: j
Encoding: 106 106 152
Width: 320
Flags: HW
TeX: 610 222
HStem: -228 61<71 104 71 123.5> 370 61<69 169 77 140> 512 100<145 173>
VStem: -46 89<-159.5 -137.5> 140 69<-43 370 370 370>
AnchorPoint: "affricate-below" 320 -222 basechar 0
AnchorPoint: "affricate-above" 320 611 basechar 0
AnchorPoint: "below" 106 -222 basechar 0
LayerCount: 2
Fore
SplineSet
109 562 m 0
 109 590 131 612 159 612 c 0
 187 612 209 590 209 562 c 0
 209 534 187 512 159 512 c 0
 131 512 109 534 109 562 c 0
EndSplineSet
Refer: 72 567 S 1 0 0 1 0 0 3
EndChar

StartChar: k
Encoding: 107 107 153
Width: 554
Flags: HW
TeX: 610 0
HStem: 0 61<56.5 118 64 118 174 228 369 388 460 495> 370 61<300.5 472 308 348 433 433 433 472> 550 61<56.5 134 64 118>
VStem: 118 56<61 141 216 550 550 550>
AnchorPoint: "affricate-below" 554 -222 basechar 0
AnchorPoint: "affricate-above" 554 611 basechar 0
AnchorPoint: "below" 280 0 basechar 0
AnchorPoint: "above" 280 611 basechar 0
LayerCount: 2
Fore
SplineSet
24 30 m 0
 24 61 48 61 64 61 c 2
 118 61 l 1
 118 550 l 1
 64 550 l 2
 49 550 24 550 24 580 c 0
 24 611 48 611 64 611 c 2
 134 611 l 2
 168 611 174 601 174 570 c 2
 174 216 l 1
 348 370 l 1
 308 370 l 2
 293 370 268 370 268 400 c 0
 268 431 292 431 308 431 c 2
 472 431 l 2
 487 431 513 431 513 400 c 0
 513 370 487 370 472 370 c 2
 433 370 l 1
 303 255 l 1
 460 61 l 1
 495 61 l 2
 510 61 536 61 536 30 c 0
 536 0 510 0 495 0 c 2
 369 0 l 2
 353 0 329 0 329 31 c 0
 329 61 354 61 369 61 c 2
 388 61 l 1
 261 218 l 1
 174 141 l 1
 174 61 l 1
 228 61 l 2
 244 61 268 61 268 30 c 0
 268 0 243 0 228 0 c 2
 64 0 l 2
 49 0 24 0 24 30 c 0
EndSplineSet
EndChar

StartChar: l
Encoding: 108 108 154
Width: 291
Flags: HW
TeX: 610 0
HStem: 0 61<49.5 111 57 111 180 234> 550 61<49.5 140 57 111>
VStem: 111 69<61 550 550 550>
AnchorPoint: "affricate-below" 291 -222 basechar 0
AnchorPoint: "affricate-above" 291 611 basechar 0
AnchorPoint: "below" 146 0 basechar 0
AnchorPoint: "above" 146 611 basechar 0
LayerCount: 2
Fore
SplineSet
17 30 m 0
 17 61 41 61 57 61 c 2
 111 61 l 1
 111 550 l 1
 57 550 l 2
 42 550 17 550 17 580 c 0
 17 611 41 611 57 611 c 2
 140 611 l 2
 174 611 180 601 180 570 c 2
 180 61 l 1
 234 61 l 2
 250 61 274 61 274 30 c 0
 274 0 249 0 234 0 c 2
 57 0 l 2
 42 0 17 0 17 30 c 0
EndSplineSet
EndChar

StartChar: m
Encoding: 109 109 155
Width: 875
Flags: HW
TeX: 430 0
HStem: 0 61<49.5 111 57 111 180 234 349 403 472 526 641 695 764 818> 370 61<49.5 140 57 111>
VStem: 111 69<61 237 61 370> 403 69<61 237 61 285 61 314> 695 69<61 285 285 291 61 314>
AnchorPoint: "affricate-below" 875 -222 basechar 0
AnchorPoint: "affricate-above" 875 611 basechar 0
AnchorPoint: "below" 438 0 basechar 0
AnchorPoint: "above" 438 440 basechar 0
LayerCount: 2
Fore
SplineSet
17 30 m 0
 17 61 41 61 57 61 c 2
 111 61 l 1
 111 370 l 1
 57 370 l 2
 42 370 17 370 17 400 c 0
 17 431 41 431 57 431 c 2
 140 431 l 2
 180 431 180 417 180 380 c 1
 222 418 272 437 327 437 c 0
 380 437 433 422 458 366 c 1
 507 418 564 437 619 437 c 0
 710 437 764 391 764 291 c 2
 764 61 l 1
 818 61 l 2
 834 61 858 61 858 30 c 0
 858 0 833 0 818 0 c 2
 641 0 l 2
 626 0 601 0 601 30 c 0
 601 61 625 61 641 61 c 2
 695 61 l 1
 695 285 l 2
 695 343 682 376 613 376 c 0
 560 376 472 343 472 237 c 2
 472 61 l 1
 526 61 l 2
 542 61 566 61 566 30 c 0
 566 0 541 0 526 0 c 2
 349 0 l 2
 334 0 309 0 309 30 c 0
 309 61 333 61 349 61 c 2
 403 61 l 1
 403 285 l 2
 403 343 390 376 321 376 c 0
 268 376 180 343 180 237 c 2
 180 61 l 1
 234 61 l 2
 250 61 274 61 274 30 c 0
 274 0 249 0 234 0 c 2
 57 0 l 2
 42 0 17 0 17 30 c 0
EndSplineSet
EndChar

StartChar: n
Encoding: 110 110 156
Width: 583
Flags: HW
TeX: 430 0
HStem: 0 61<49.5 111 57 111 180 234 348 402 471 525> 376 61<298 356>
VStem: 111 69<61 237 61 370> 402 69<61 285 285 291 61 313>
AnchorPoint: "affricate-below" 583 -222 basechar 0
AnchorPoint: "affricate-above" 583 611 basechar 0
AnchorPoint: "below" 291 0 basechar 0
AnchorPoint: "above" 291 440 basechar 0
LayerCount: 2
Fore
SplineSet
17 30 m 0
 17 61 41 61 57 61 c 2
 111 61 l 1
 111 370 l 1
 57 370 l 2
 42 370 17 370 17 400 c 0
 17 431 41 431 57 431 c 2
 140 431 l 2
 180 431 180 417 180 380 c 1
 219 416 269 437 327 437 c 0
 409 437 471 399 471 291 c 2
 471 61 l 1
 525 61 l 2
 541 61 565 61 565 30 c 0
 565 0 540 0 525 0 c 2
 348 0 l 2
 332 0 308 0 308 31 c 0
 308 61 333 61 348 61 c 2
 402 61 l 1
 402 285 l 2
 402 341 391 376 321 376 c 0
 266 376 180 342 180 237 c 2
 180 61 l 1
 234 61 l 2
 250 61 274 61 274 30 c 0
 274 0 249 0 234 0 c 2
 57 0 l 2
 42 0 17 0 17 30 c 0
EndSplineSet
EndChar

StartChar: o
Encoding: 111 111 157
Width: 525
Flags: HW
TeX: 430 0
HStem: -6 61<218.5 305 218.5 323.5> 379 61<220.5 303.5>
VStem: 38 69<177.5 268 177.5 277> 417 69<177.5 268>
AnchorPoint: "ogonek" 262 0 basechar 0
AnchorPoint: "affricate-below" 525 -222 basechar 0
AnchorPoint: "affricate-above" 525 611 basechar 0
AnchorPoint: "below" 262 0 basechar 0
AnchorPoint: "above" 262 440 basechar 0
LayerCount: 2
Fore
SplineSet
38 216 m 0
 38 338 137 440 262 440 c 0
 387 440 486 338 486 216 c 0
 486 92 385 -6 262 -6 c 0
 139 -6 38 92 38 216 c 0
107 223 m 0
 107 132 175 55 262 55 c 0
 348 55 417 132 417 223 c 0
 417 313 345 379 262 379 c 0
 179 379 107 313 107 223 c 0
EndSplineSet
EndChar

StartChar: p
Encoding: 112 112 158
Width: 583
Flags: HW
TeX: 430 222
HStem: -222 61<49.5 111 57 111 180 234> -6 61<281.5 351.5 268 373.5> 370 61<49.5 140 57 111>
VStem: 111 69<-161 53 167.5 195 195 262> 469 69<169.5 258>
AnchorPoint: "affricate-below" 583 -222 basechar 0
AnchorPoint: "affricate-above" 583 611 basechar 0
AnchorPoint: "below" 324 -222 basechar 0
AnchorPoint: "above" 324 440 basechar 0
LayerCount: 2
Fore
SplineSet
17 -192 m 0
 17 -161 41 -161 57 -161 c 2
 111 -161 l 1
 111 370 l 1
 57 370 l 2
 42 370 17 370 17 400 c 0
 17 431 41 431 57 431 c 2
 140 431 l 2
 180 431 180 416 180 383 c 1
 225 422 278 437 325 437 c 0
 444 437 538 336 538 216 c 0
 538 90 433 -6 314 -6 c 0
 249 -6 205 26 180 53 c 1
 180 -161 l 1
 234 -161 l 2
 250 -161 274 -161 274 -192 c 0
 274 -222 249 -222 234 -222 c 2
 57 -222 l 2
 42 -222 17 -222 17 -192 c 0
180 195 m 2
 180 140 226 55 310 55 c 0
 393 55 469 123 469 216 c 0
 469 300 406 376 319 376 c 0
 249 376 180 325 180 262 c 2
 180 195 l 2
EndSplineSet
EndChar

StartChar: q
Encoding: 113 113 159
Width: 554
Flags: HW
TeX: 430 222
HStem: -222 61<340 402 348 402 471 525> -6 61<220.5 284.5> 376 61<230.5 306 208 312.5>
VStem: 44 69<171.5 261.5 171.5 278> 402 69<-161 57 57 57 195 232 232 265 378 396 -161 406>
AnchorPoint: "affricate-below" 554 -222 basechar 0
AnchorPoint: "affricate-above" 554 611 basechar 0
AnchorPoint: "below" 258 -222 basechar 0
AnchorPoint: "above" 258 440 basechar 0
LayerCount: 2
Fore
SplineSet
44 215 m 0
 44 341 148 437 268 437 c 0
 344 437 387 393 402 378 c 1
 402 396 l 2
 402 416 402 437 437 437 c 0
 471 437 471 415 471 396 c 2
 471 -161 l 1
 525 -161 l 2
 541 -161 565 -161 565 -192 c 0
 565 -222 540 -222 525 -222 c 2
 348 -222 l 2
 332 -222 308 -222 308 -191 c 0
 308 -161 333 -161 348 -161 c 2
 402 -161 l 1
 402 57 l 1
 360 16 312 -6 257 -6 c 0
 141 -6 44 92 44 215 c 0
113 215 m 0
 113 128 179 55 262 55 c 0
 347 55 402 136 402 195 c 2
 402 232 l 2
 402 298 353 376 272 376 c 0
 189 376 113 308 113 215 c 0
EndSplineSet
EndChar

StartChar: r
Encoding: 114 114 160
Width: 408
Flags: HW
TeX: 430 0
HStem: 0 61<49.5 111 57 111 180 258> 370 61<49.5 140 57 111>
VStem: 111 69<61 188 61 370>
AnchorPoint: "affricate-below" 408 -222 basechar 0
AnchorPoint: "affricate-above" 408 611 basechar 0
AnchorPoint: "below" 158 0 basechar 0
AnchorPoint: "above" 188 440 basechar 0
LayerCount: 2
Fore
SplineSet
17 30 m 0
 17 61 41 61 57 61 c 2
 111 61 l 1
 111 370 l 1
 57 370 l 2
 42 370 17 370 17 400 c 0
 17 431 41 431 57 431 c 2
 140 431 l 2
 180 431 180 418 180 376 c 1
 210 411 251 437 303 437 c 0
 353 437 378 403 378 375 c 0
 378 348 358 332 336 332 c 0
 323 332 296 339 294 375 c 1
 217 366 180 276 180 188 c 2
 180 61 l 1
 258 61 l 2
 274 61 298 61 298 30 c 0
 298 0 273 0 258 0 c 2
 57 0 l 2
 42 0 17 0 17 30 c 0
EndSplineSet
EndChar

StartChar: s
Encoding: 115 115 161
Width: 414
Flags: HW
TeX: 430 0
HStem: -6 61<190 217 172.5 275> 379 61<164 218.5 131 238.5>
VStem: 35 61<301.5 337.5 301.5 341> 317 61<97.5 145>
AnchorPoint: "affricate-below" 414 -222 basechar 0
AnchorPoint: "affricate-above" 414 611 basechar 0
AnchorPoint: "below" 209 0 basechar 0
AnchorPoint: "above" 203 440 basechar 0
LayerCount: 2
Fore
SplineSet
35 35 m 2
 35 131 l 2
 35 151 35 172 70 172 c 0
 97 172 101 159 104 147 c 0
 116 105 135 55 210 55 c 0
 224 55 317 55 317 125 c 0
 317 165 274 185 241 193 c 0
 237 193 188 202 180 204 c 0
 143 211 35 231 35 322 c 0
 35 360 59 440 203 440 c 0
 234 440 267 435 293 420 c 1
 295 426 302 440 322 440 c 0
 352 440 352 415 352 399 c 2
 352 330 l 2
 352 310 352 289 317 289 c 0
 286 289 284 307 283 321 c 0
 281 341 276 379 201 379 c 0
 127 379 96 353 96 322 c 0
 96 281 149 271 227 257 c 0
 259 251 378 229 378 125 c 0
 378 70 341 -6 209 -6 c 0
 171 -6 132 2 100 28 c 1
 98 20 90 -6 65 -6 c 0
 35 -6 35 19 35 35 c 2
EndSplineSet
EndChar

StartChar: t
Encoding: 116 116 162
Width: 408
Flags: HW
TeX: 554 0
HStem: -6 61<204.5 241.5 204.5 258.5> 370 61<51.5 111 60 111 60 111 180 291> 534 20<128.5 163>
VStem: 111 69<123 129 129 370 431 513> 280 69<101.5 134.5 86.5 135>
AnchorPoint: "affricate-below" 408 -222 basechar 0
AnchorPoint: "affricate-above" 408 611 basechar 0
AnchorPoint: "below" 202 0 basechar 0
AnchorPoint: "above" 146 554 basechar 0
LayerCount: 2
Fore
SplineSet
19 400 m 0
 19 431 44 431 60 431 c 2
 111 431 l 1
 111 513 l 2
 111 533 111 554 146 554 c 0
 180 554 180 532 180 513 c 2
 180 431 l 1
 291 431 l 2
 307 431 331 431 331 400 c 0
 331 370 306 370 291 370 c 2
 180 370 l 1
 180 129 l 2
 180 107 180 55 229 55 c 0
 254 55 280 77 280 126 c 0
 280 144 280 165 314 165 c 0
 349 165 349 144 349 125 c 0
 349 48 292 -6 225 -6 c 0
 178 -6 111 21 111 123 c 2
 111 370 l 1
 59 370 l 2
 44 370 19 370 19 400 c 0
EndSplineSet
EndChar

StartChar: u
Encoding: 117 117 163
Width: 583
Flags: HW
TeX: 430 0
HStem: -6 61<237.5 288 225.5 299> 370 61<49.5 140 57 111 348 402>
VStem: 111 69<115 121 121 370 370 370> 402 69<17.5 390 157 370 370 370>
AnchorPoint: "ogonek" 436 0 basechar 0
AnchorPoint: "affricate-below" 583 -222 basechar 0
AnchorPoint: "affricate-above" 583 611 basechar 0
AnchorPoint: "below" 291 0 basechar 0
AnchorPoint: "above" 291 440 basechar 0
LayerCount: 2
Fore
SplineSet
17 400 m 0
 17 431 41 431 57 431 c 2
 140 431 l 2
 174 431 180 421 180 390 c 2
 180 121 l 2
 180 90 180 55 271 55 c 0
 305 55 402 63 402 157 c 2
 402 370 l 1
 348 370 l 2
 332 370 308 370 308 401 c 0
 308 431 333 431 348 431 c 2
 431 431 l 2
 465 431 471 421 471 390 c 2
 471 61 l 1
 525 61 l 2
 541 61 565 61 565 30 c 0
 565 0 540 0 525 0 c 2
 442 0 l 2
 423 0 402 0 402 35 c 1
 376 15 333 -6 265 -6 c 0
 210 -6 111 3 111 115 c 2
 111 370 l 1
 57 370 l 2
 42 370 17 370 17 400 c 0
EndSplineSet
EndChar

StartChar: v
Encoding: 118 118 164
Width: 554
Flags: HW
TeX: 430 0
ItalicCorrection: 14
HStem: -4 21<264.5 288> 370 61<58.5 206 66 106 165 165 165 206 347 388 447 487 447 447>
VStem: 26 501<385 415.5>
AnchorPoint: "affricate-below" 554 -222 basechar 0
AnchorPoint: "affricate-above" 554 611 basechar 0
AnchorPoint: "below" 277 0 basechar 0
AnchorPoint: "above" 276 440 basechar 0
LayerCount: 2
Fore
SplineSet
26 400 m 0
 26 431 50 431 66 431 c 2
 206 431 l 2
 222 431 247 431 247 400 c 0
 247 370 221 370 206 370 c 2
 165 370 l 1
 277 42 l 1
 388 370 l 1
 347 370 l 2
 331 370 306 370 306 401 c 0
 306 431 332 431 347 431 c 2
 487 431 l 2
 503 431 527 431 527 400 c 0
 527 370 502 370 487 370 c 2
 447 370 l 1
 332 30 l 2
 321 -4 299 -4 277 -4 c 0
 252 -4 233 -4 221 31 c 2
 106 370 l 1
 66 370 l 2
 51 370 26 370 26 400 c 0
EndSplineSet
EndChar

StartChar: w
Encoding: 119 119 165
Width: 758
Flags: HW
TeX: 430 0
ItalicCorrection: 14
HStem: -4 21<230.5 254 493.5 527> 370 61<56.5 199 64 97 155 155 155 199 558 602 660 693 660 660>
VStem: 23 711<385.5 415.5 385 416>
AnchorPoint: "affricate-below" 758 -222 basechar 0
AnchorPoint: "affricate-above" 758 611 basechar 0
AnchorPoint: "below" 380 0 basechar 0
AnchorPoint: "above" 378 440 basechar 0
LayerCount: 2
Fore
SplineSet
23 401 m 0
 23 431 49 431 64 431 c 2
 199 431 l 2
 214 431 240 431 240 400 c 0
 240 370 214 370 199 370 c 2
 155 370 l 1
 242 52 l 1
 335 395 l 2
 342 420 351 431 381 431 c 0
 416 431 421 413 426 396 c 2
 518 60 l 1
 602 370 l 1
 558 370 l 2
 543 370 517 370 517 401 c 0
 517 431 543 431 558 431 c 2
 693 431 l 2
 708 431 734 431 734 400 c 0
 734 370 708 370 693 370 c 2
 660 370 l 1
 567 30 l 2
 558 -4 539 -4 515 -4 c 0
 472 -4 469 7 459 45 c 0
 445 96 431 147 418 198 c 0
 385 327 380 360 380 360 c 1
 373 294 297 22 293 15 c 0
 283 -4 264 -4 244 -4 c 0
 217 -4 199 -4 189 32 c 2
 97 370 l 1
 64 370 l 2
 49 370 23 370 23 401 c 0
EndSplineSet
EndChar

StartChar: x
Encoding: 120 120 166
Width: 554
Flags: HW
TeX: 430 0
HStem: 0 61<61.5 119 69 119 184 209 343 366 433 483> 370 61<68 216 76 126 195 195 195 216 327 349 417 417 417 467>
AnchorPoint: "affricate-below" 554 -222 basechar 0
AnchorPoint: "affricate-above" 554 611 basechar 0
AnchorPoint: "below" 276 0 basechar 0
AnchorPoint: "above" 276 440 basechar 0
LayerCount: 2
Fore
SplineSet
28 30 m 0
 28 61 53 61 69 61 c 2
 119 61 l 1
 245 223 l 1
 126 370 l 1
 76 370 l 2
 60 370 35 370 35 401 c 0
 35 431 61 431 76 431 c 2
 216 431 l 2
 232 431 256 431 256 400 c 0
 256 370 231 370 216 370 c 2
 195 370 l 1
 274 270 l 1
 349 370 l 1
 327 370 l 2
 312 370 286 370 286 401 c 0
 286 431 312 431 327 431 c 2
 467 431 l 2
 483 431 507 431 507 400 c 0
 507 370 482 370 467 370 c 2
 417 370 l 1
 302 223 l 1
 433 61 l 1
 483 61 l 2
 498 61 524 61 524 30 c 0
 524 0 498 0 483 0 c 2
 343 0 l 2
 327 0 303 0 303 31 c 0
 303 61 328 61 343 61 c 2
 366 61 l 1
 273 186 l 1
 184 61 l 1
 209 61 l 2
 225 61 249 61 249 30 c 0
 249 0 224 0 209 0 c 2
 69 0 l 2
 54 0 28 0 28 30 c 0
EndSplineSet
EndChar

StartChar: y
Encoding: 121 121 167
Width: 554
Flags: HW
TeX: 430 222
ItalicCorrection: 14
HStem: -228 61<118 162 118 164> 370 61<61.5 209 69 110 171 171 171 209 346 387 447 487 447 447>
VStem: 20 87<-150 -133>
AnchorPoint: "affricate-below" 554 -222 basechar 0
AnchorPoint: "affricate-above" 554 611 basechar 0
AnchorPoint: "below" 274 -222 basechar 0
AnchorPoint: "above" 283 440 basechar 0
LayerCount: 2
Fore
SplineSet
20 -146 m 0
 20 -120 37 -102 64 -102 c 0
 87 -102 107 -118 107 -146 c 0
 107 -154 105 -159 105 -162 c 0
 105 -167 116 -167 120 -167 c 0
 204 -167 232 -85 239 -62 c 1
 252 -25 252 -23 261 0 c 1
 110 370 l 1
 69 370 l 2
 54 370 28 370 28 401 c 0
 28 431 54 431 69 431 c 2
 209 431 l 2
 225 431 249 431 249 400 c 0
 249 370 224 370 209 370 c 2
 171 370 l 1
 266 132 l 2
 274 111 282 90 289 69 c 1
 387 370 l 1
 346 370 l 2
 331 370 306 370 306 400 c 0
 306 431 330 431 346 431 c 2
 487 431 l 2
 503 431 527 431 527 400 c 0
 527 370 502 370 487 370 c 2
 447 370 l 1
 292 -83 l 2
 271 -145 210 -228 118 -228 c 0
 60 -228 20 -189 20 -146 c 0
EndSplineSet
EndChar

StartChar: z
Encoding: 122 122 168
Width: 466
Flags: HW
TeX: 430 0
HStem: 0 61<60 353 127 353 127 382> 370 61<113 321 113 113>
VStem: 44 69<344 370 334 390 334 406.5> 353 69<61 99 25 109>
AnchorPoint: "affricate-below" 466 -222 basechar 0
AnchorPoint: "affricate-above" 466 611 basechar 0
AnchorPoint: "below" 226 0 basechar 0
AnchorPoint: "above" 226 440 basechar 0
LayerCount: 2
Fore
SplineSet
29 35 m 0
 29 40 30 50 32 55 c 1
 321 370 l 1
 113 370 l 1
 113 344 l 2
 113 324 113 303 78 303 c 0
 44 303 44 325 44 344 c 2
 44 390 l 2
 44 423 52 431 85 431 c 2
 378 431 l 2
 398 431 419 431 419 396 c 0
 419 391 418 381 416 376 c 1
 127 61 l 1
 353 61 l 1
 353 99 l 2
 353 119 353 140 388 140 c 0
 422 140 422 118 422 99 c 2
 422 41 l 2
 422 9 415 0 382 0 c 2
 70 0 l 2
 50 0 29 0 29 35 c 0
EndSplineSet
EndChar

StartChar: braceleft
Encoding: 123 123 169
Width: 525
Flags: HW
TeX: 694 83
HStem: -83 76<304.156 456.922> 617 77<302.578 455.379>
VStem: 227 70<0.366943 250.148 361.362 610.794>
LayerCount: 2
Fore
SplineSet
56 305 m 0
 56 320 65 332 78 335 c 0
 88 337 214 332 226 389 c 0
 227 396 227 402 227 409 c 2
 227 568 l 2
 227 644 276 693 432 694 c 0
 460 694 467 678 467 664 c 0
 467 612 401 647 329 617 c 0
 298 604 297 585 297 570 c 2
 297 409 l 2
 297 386 298 338 239 306 c 1
 239 305 l 1
 297 273 297 226 297 202 c 2
 297 45 l 2
 297 28 295 8 333 -7 c 0
 401 -33 467 -3 467 -52 c 0
 467 -65 461 -82 434 -83 c 1
 423 -83 l 1
 276 -80 227 -33 227 42 c 2
 227 202 l 2
 227 221 228 242 191 258 c 0
 122 288 56 255 56 305 c 0
EndSplineSet
EndChar

StartChar: bar
Encoding: 124 124 170
Width: 292
Flags: HW
TeX: 694 83
VStem: 110 70<-79.9881 691.104>
LayerCount: 2
Fore
SplineSet
110 -42 m 2
 110 648 l 2
 110 654 110 659 111 665 c 0
 114 679 127 694 145 694 c 0
 153 694 180 690 180 653 c 2
 180 -37 l 2
 180 -43 180 -49 179 -55 c 0
 177 -67 165 -83 145 -83 c 0
 137 -83 110 -78 110 -42 c 2
EndSplineSet
EndChar

StartChar: braceright
Encoding: 125 125 171
Width: 525
Flags: HW
TeX: 694 83
HStem: -83 59<57.0393 198.364> 276 60<327.518 466.027> 632 62<57.3008 203.737>
VStem: 227 70<1.0899 249.153 360.815 610.21>
LayerCount: 2
Fore
SplineSet
56 -52 m 0
 56 -38 63 -28 73 -24 c 0
 87 -18 209 -28 225 23 c 0
 227 30 227 38 227 46 c 2
 227 202 l 2
 227 231 228 275 284 305 c 1
 284 306 l 1
 229 336 227 381 227 403 c 2
 227 565 l 2
 227 591 230 628 92 632 c 0
 86 632 56 631 56 663 c 0
 56 676 62 693 89 694 c 1
 101 694 l 1
 250 691 297 643 297 568 c 2
 297 409 l 2
 297 386 292 340 431 336 c 1
 432 336 l 2
 438 336 467 335 467 306 c 0
 467 291 458 279 445 276 c 0
 434 273 311 278 298 222 c 0
 297 215 297 209 297 202 c 2
 297 43 l 2
 297 -58 206 -82 91 -83 c 0
 62 -83 56 -66 56 -52 c 0
EndSplineSet
EndChar

StartChar: asciitilde
Encoding: 126 126 172
Width: 642
Flags: HW
TeX: 610 0
HStem: 490 67<339.255 471.018> 545 66<170.291 300.055>
LayerCount: 2
Fore
SplineSet
87 522 m 0
 87 537 101 547 107 553 c 0
 163 604 208 611 233 611 c 0x40
 306 611 354 557 410 557 c 0
 468 557 496 610 522 610 c 0
 537 610 553 595 553 579 c 0
 553 565 542 555 536 550 c 0
 479 497 434 490 408 490 c 0x80
 336 490 285 545 230 545 c 0x40
 173 545 144 491 119 491 c 0
 104 491 87 505 87 522 c 0
EndSplineSet
EndChar

StartChar: Abreve
Encoding: 258 258 174
Width: 758
Flags: HW
TeX: 819 0
HStem: 0 62<41.9844 126 201 279.986 477.327 556 631 714.985> 171 61<262 495> 603 20<347.5 408.5> 652 64<284.048 447.074>
VStem: 188 63<745.971 817.557> 479 62<747.062 817.664>
DStem2: 126 62 201 62 0.337947 0.941165<25.346 141.113 205.959 551.809> 442 588 379 558 0.338149 -0.941092<6.92937 352.951 418.135 533.564>
AnchorPoint: "below" 378 0 basechar 0
AnchorPoint: "above" 378 798 basechar 0
LayerCount: 2
Fore
SplineSet
188 788 m 0
 188 807 201 819 219 819 c 0
 251 819 249 787 251 779 c 0
 259 745 301 717 365 716 c 0
 411 716 473 735 479 786 c 0
 479 788 479 819 510 819 c 0
 522 819 541 812 541 787 c 0
 541 713 467 652 365 652 c 0
 259 652 188 717 188 788 c 0
EndSplineSet
Refer: 111 65 S 1 0 0 1 0 0 3
AlternateSubs2: "Stilistic set 01 subtable" Abreve.vn
AlternateSubs2: "Latin alternatives subtable" Abreve.vn
Substitution2: "Latin Vietnamese substitutions subtable" Abreve.vn
EndChar

StartChar: Aogonek
Encoding: 260 260 175
Width: 758
Flags: HW
TeX: 610 222
HStem: -233 62<598.57 685.038> -0 62<42.0566 126 201 279.906 477.225 556 631 715.943> 171 61<262 495> 603 20G<346.5 408.5>
VStem: 513 63<-148.513 -48.9704>
DStem2: 126 62 201 62 0.337947 0.941165<25.346 141.113 205.959 551.809> 442 588 379 558 0.338149 -0.941092<6.92937 352.951 418.135 533.564>
AnchorPoint: "above" 379 622 basechar 0
LayerCount: 2
Fore
SplineSet
41 31 m 0
 41 60 65 62 78 62 c 0
 94 62 110 62 126 62 c 1
 312 580 l 2
 322 609 330 623 363 623 c 2
 395 623 l 2
 422 623 434 610 442 588 c 2
 631 62 l 1
 680 62 l 2
 693 62 717 59 717 31 c 0
 717 2 694 0 679 -0 c 2
 673 -0 l 2
 637 0 576 -56 576 -100 c 0
 576 -142 615 -171 646 -171 c 0
 695 -171 686 -118 721 -117 c 0
 736 -117 753 -128 754 -146 c 1
 754 -168 717 -233 645 -233 c 0
 578 -233 513 -176 513 -103 c 0
 513 -59 536 -24 559 0 c 1
 513 0 l 2
 498 0 476 1 476 31 c 0
 476 59 501 62 512 62 c 2
 556 62 l 1
 518 171 l 1
 240 171 l 1
 201 62 l 1
 245 62 l 2
 258 62 281 61 281 31 c 0
 281 2 256 0 246 -0 c 2
 79 -0 l 2
 64 0 41 1 41 31 c 0
262 232 m 1
 495 232 l 1
 379 558 l 1
 262 232 l 1
EndSplineSet
Ligature2: "Latin ligatures subtable" A uni0328
EndChar

StartChar: Ccaron
Encoding: 268 268 177
Width: 758
Flags: HW
TeX: 819 0
HStem: -11 61<300.566 539.313> 560 62<300.433 527.614> 636 75<414 438.545>
VStem: 58 70<211.385 398.821> 620 79<560 605.026> 629 70<115.196 200.609>
AnchorPoint: "below" 410 0 basechar 0
AnchorPoint: "above" 408 784 basechar 0
LayerCount: 2
Fore
SplineSet
270 775 m 0
 270 791 284 804 299 804 c 0
 314 804 323 793 391 732 c 2
 414 711 l 1
 415 711 l 1
 423 719 431 726 497 785 c 0
 509 795 517 804 530 804 c 0xf0
 545 804 559 791 559 775 c 0
 559 762 550 753 545 748 c 0
 427 635 430 636 415 636 c 0
 400 636 403 635 285 748 c 0
 280 753 270 762 270 775 c 0
EndSplineSet
Refer: 113 67 S 1 0 0 1 0 -0 3
EndChar

StartChar: Dcaron
Encoding: 270 270 178
Width: 787
Flags: HW
TeX: 819 0
HStem: -0 62<46.1094 140 210 498.217> 549 62<46.3209 140 210 498.581> 636 75<354 378.545>
VStem: 140 70<62 549> 658 70<205.973 393.643>
AnchorPoint: "below" 364 0 basechar 0
AnchorPoint: "above" 364 795 basechar 0
LayerCount: 2
Fore
SplineSet
210 776 m 0
 210 791 224 804 239 804 c 0
 254 804 262 794 331 732 c 2
 354 711 l 1
 355 711 l 1
 363 719 371 726 437 785 c 0
 449 795 457 804 470 804 c 0
 485 804 499 791 499 775 c 0
 499 762 490 753 485 748 c 0
 367 635 370 636 355 636 c 0
 340 636 343 635 225 748 c 0
 218 755 210 763 210 776 c 0
EndSplineSet
Refer: 114 68 S 1 0 0 1 0 -0 3
EndChar

StartChar: Ecaron
Encoding: 282 282 179
Width: 700
Flags: HW
TeX: 819 0
HStem: 0 62<46.388 140 210 600> 286 62<210 407> 549 62<46.0176 140 210 571> 636 75<340 363.545>
VStem: 140 70<62 286 348 549> 407 70<230.504 286 348 402.77> 571 70<456.334 549> 600 70<62 170.679>
AnchorPoint: "below" 358 0 basechar 0
AnchorPoint: "above" 358 795 basechar 0
LayerCount: 2
Fore
SplineSet
196 776 m 0xfc
 196 791 210 804 225 804 c 0
 240 804 249 793 317 732 c 2
 340 711 l 1
 341 711 l 1
 349 719 357 726 423 785 c 0
 435 795 443 804 456 804 c 0
 471 804 485 791 485 775 c 0
 485 762 475 753 470 748 c 0
 352 635 355 636 340 636 c 0
 325 636 328 635 210 748 c 0
 203 755 196 763 196 776 c 0xfc
EndSplineSet
Refer: 115 69 S 1 0 0 1 0 0 3
EndChar

StartChar: Eogonek
Encoding: 280 280 180
Width: 700
Flags: HW
TeX: 610 222
HStem: -233 62<507.469 594.536> 0 62<46.0156 140 210 468 534.022 600> 286 61<210 408> 549 62<46.0176 140 210 571>
VStem: 140 70<62 286 347 549> 408 69<230.504 286 347 402.775> 422 64<-148.997 -48.4961> 571 70<456.334 549> 600 70<62 170.354>
AnchorPoint: "above" 342 622 basechar 0
LayerCount: 2
Fore
SplineSet
45 31 m 0
 45 60 68 62 82 62 c 2
 140 62 l 1
 140 549 l 1
 83 549 l 2
 68 549 45 551 45 580 c 0
 45 608 66 611 82 611 c 2
 605 611 l 2
 643 611 641 585 641 572 c 2
 641 490 l 1
 642 462 625 455 608 455 c 2
 606 455 l 2
 594 455 572 455 571 488 c 1
 571 549 l 1
 210 549 l 1
 210 347 l 1
 408 347 l 1
 408 367 l 2
 408 382 410 404 440 404 c 2
 443 404 l 2
 454 404 477 404 477 367 c 2
 477 265 l 2
 477 247 470 229 444 229 c 2xfd
 441 229 l 2
 408 229 408 255 408 266 c 2
 408 286 l 1xfd
 210 286 l 1
 210 62 l 1
 600 62 l 1
 600 137 l 2
 600 152 605 172 633 172 c 2
 635 172 l 2
 668 172 670 150 670 135 c 2
 670 36 l 2
 670 20 669 0 634 0 c 2
 582 0 l 2
 551 0 486 -51 486 -101 c 0
 486 -141 522 -171 555 -171 c 0
 602 -171 598 -117 631 -117 c 0
 647 -117 663 -129 663 -147 c 0
 663 -165 628 -233 554 -233 c 0
 487 -233 422 -176 422 -103 c 0xfa80
 422 -62 442 -27 468 0 c 1
 83 0 l 2
 62 0 45 6 45 31 c 0
EndSplineSet
EndChar

StartChar: Gbreve
Encoding: 286 286 181
Width: 816
Flags: HW
TeX: 819 0
HStem: -11 61<301.221 512.408> 0 21G<645 680> 208 61<499.378 626 699 770.628> 492 130<632.611 697.38> 560 62<309.388 602.068> 652 64<326.644 489.68>
VStem: 58 70<212.296 396.13> 231 63<745.971 817.257> 522 62<747.062 817.664> 629 70<1.58698 76>
LayerCount: 2
Fore
SplineSet
58 305 m 0
 58 470 201 622 411 622 c 0xafc0
 511 622 571 619 629 597 c 1
 645 613 653 622 669 622 c 0
 679 622 699 617 699 588 c 2
 699 535 l 2
 699 518 701 492 667 492 c 2x37c0
 662 492 l 2x37c0
 616 492 654 535 555 553 c 0
 531 557 506 560 431 560 c 0
 239 560 128 428 128 305 c 0
 128 166 255 50 411 50 c 0xafc0
 518 50 606 116 626 208 c 1
 533 208 l 2
 509 208 498 224 498 239 c 0
 498 254 509 269 529 269 c 2
 739 269 l 2
 765 269 772 250 772 238 c 0
 772 209 747 207 737 207 c 0
 735 207 734 208 733 208 c 2
 699 208 l 1
 699 37 l 2
 699 19 697 0 663 0 c 2
 662 0 l 2x67c0
 628 0 629 29 629 39 c 2
 629 76 l 1
 579 26 500 -11 406 -11 c 0
 211 -11 58 134 58 305 c 0
231 788 m 0
 231 807 243 819 261 819 c 0
 293 819 292 787 294 779 c 0
 302 745 344 717 408 716 c 0
 454 716 516 735 522 786 c 0
 522 788 522 819 553 819 c 0
 570 819 584 808 584 787 c 0
 584 713 509 652 407 652 c 0x27c0
 301 652 231 717 231 788 c 0
EndSplineSet
EndChar

StartChar: Lcaron
Encoding: 317 317 183
Width: 641
Flags: HW
TeX: 819 0
HStem: 0 62<46.4355 140 210 527> 549 62<46.3209 140 210 325.931>
VStem: 140 70<62 549> 412 114<591.502 664.232> 527 70<62 170.529>
LayerCount: 2
Fore
SplineSet
403 522 m 0
 403 544 422 546 447 564 c 1
 459 583 l 1
 430 585 412 607 412 633 c 0
 412 660 432 683 462 683 c 0
 500 683 526 648 526 608 c 0
 526 534 460 491 434 491 c 0
 421 491 403 504 403 522 c 0
EndSplineSet
Refer: 122 76 S 1 0 0 1 -0 0 3
EndChar

StartChar: Lslash
Encoding: 321 321 184
Width: 642
Flags: HW
TeX: 610 0
HStem: -0 62<46.4355 140 210 527> 549 62<46.3209 140 210 325.931>
VStem: 140 70<62 253 315.192 316.997 383 549> 527 70<62 170.529>
LayerCount: 2
Fore
SplineSet
45 31 m 0
 45 37 47 51 61 58 c 0
 70 62 81 62 90 62 c 2
 140 62 l 1
 140 253 l 1
 102 224 97 220 86 220 c 0
 69 220 55 236 55 252 c 0
 55 264 58 273 140 330 c 1
 140 549 l 1
 79 549 l 1
 52 550 45 567 45 580 c 0
 45 590 50 611 81 611 c 2
 291 611 l 2
 308 611 327 606 327 580 c 0
 327 566 321 549 293 549 c 2
 210 549 l 1
 210 383 l 1
 340 482 340 484 353 484 c 0
 370 484 384 468 384 452 c 0
 384 433 383 436 225 317 c 0
 212 307 210 305 210 293 c 2
 210 62 l 1
 527 62 l 1
 527 137 l 1
 528 170 550 172 561 172 c 2
 565 172 l 2
 585 172 597 159 597 138 c 2
 597 36 l 2
 597 20 595 0 560 -0 c 2
 82 -0 l 2
 62 0 45 6 45 31 c 0
EndSplineSet
EndChar

StartChar: Ncaron
Encoding: 327 327 186
Width: 758
Flags: HW
TeX: 819 0
HStem: 0 62<53.0156 147 203 296.773> 549 62<53.375 147 461.227 554 611 703.786> 636 75<379 402.545>
VStem: 147 56<62 549> 554 57<50 549>
DStem2: 258 565 203 561 0.499152 -0.866515<-22.8469 593.908>
LayerCount: 2
Fore
SplineSet
234 776 m 0
 234 791 248 804 263 804 c 0
 278 804 287 793 355 732 c 0
 363 725 371 718 379 711 c 1
 380 711 l 1
 388 719 396 726 462 785 c 0
 474 795 482 804 495 804 c 0
 510 804 524 791 524 775 c 0
 524 762 514 753 509 748 c 0
 391 635 394 636 379 636 c 0
 364 636 367 635 249 748 c 0
 242 755 234 763 234 776 c 0
EndSplineSet
Refer: 124 78 S 1 0 0 1 0 -0 3
EndChar

StartChar: Eng
Encoding: 330 330 187
Width: 816
Flags: HW
TeX: 610 0
HStem: -11 61<508.878 654.577> -0 62<46.2755 140 210 302.861> 549 62<46.2301 140> 559 70<321.937 576.066>
VStem: 140 70<62 474.98> 421 88<76.3289 139.711> 687 70<80.0231 475.179>
LayerCount: 2
Fore
SplineSet
45 31 m 0
 45 60 68 62 82 62 c 2
 140 62 l 1
 140 549 l 1
 80 549 l 2
 50 549 45 568 45 580 c 0
 45 609 67 611 84 611 c 2
 171 611 l 2x6e
 191 611 210 609 210 572 c 2
 210 553 l 1
 283 612 374 629 450 629 c 0
 584 629 737 570 756 433 c 0
 758 420 757 407 757 394 c 2
 757 149 l 2
 757 144 758 140 758 135 c 0
 758 40 674 -11 586 -11 c 0
 493 -11 421 32 421 100 c 0
 421 127 440 146 465 146 c 0
 491 146 509 125 509 101 c 0
 509 91 506 83 502 76 c 1
 512 69 535 50 586 50 c 0
 649 50 683 89 687 120 c 1
 687 391 l 2
 687 451 674 465 652 492 c 1
 639 503 582 559 449 559 c 0x9e
 317 559 259 504 245 492 c 1
 212 452 210 439 210 388 c 2
 210 62 l 1
 267 62 l 2
 278 62 304 61 304 31 c 0
 304 2 279 0 269 -0 c 2
 80 -0 l 2
 52 0 45 17 45 31 c 0
EndSplineSet
EndChar

StartChar: Ohungarumlaut
Encoding: 336 336 188
Width: 816
Flags: HW
TeX: 778 0
HStem: -11 61<299.169 513.115> 560 62<292.298 522.67>
VStem: 58 70<217.629 407.741> 687 70<218.297 408.28>
AnchorPoint: "below" 408 0 basechar 0
AnchorPoint: "above" 408 787 basechar 0
LayerCount: 2
Fore
SplineSet
247 727 m 0
 247 753 264 753 408 802 c 0
 415 804 422 807 429 807 c 0
 448 807 463 793 463 770 c 2
 463 761 l 1
 596 806 594 807 604 807 c 0
 623 807 638 790 638 772 c 0
 638 749 620 741 605 736 c 0
 469 690 459 686 453 686 c 0
 434 686 420 706 421 732 c 1
 294 689 285 686 279 686 c 0
 254 686 247 719 247 727 c 0
EndSplineSet
Refer: 125 79 S 1 0 0 1 0 0 3
EndChar

StartChar: Rcaron
Encoding: 344 344 190
Width: 758
Flags: HW
TeX: 819 0
HStem: -11 62<600.136 676.944> -0 62<46.2755 140 210 302.861> 275 61<210 470.13> 549 62<46.2965 140 210 469.951> 636 75<324 347.545>
VStem: 140 70<62 275 336 549> 517 70<62.719 238.582> 556 70<397.292 487.881> 684 70<56.801 124.05>
AnchorPoint: "below" 320 0 basechar 0
AnchorPoint: "above" 320 795 basechar 0
LayerCount: 2
Fore
SplineSet
179 775 m 0
 179 791 194 804 209 804 c 0
 224 804 232 793 300 732 c 0
 308 725 316 718 324 711 c 1
 325 711 l 1
 333 719 341 726 407 785 c 0
 419 795 427 804 440 804 c 0x3c80
 455 804 469 791 469 775 c 0
 469 762 459 753 454 748 c 0
 336 635 339 636 324 636 c 0
 309 636 312 635 194 748 c 0
 189 753 179 762 179 775 c 0
EndSplineSet
Refer: 128 82 S 1 0 0 1 0 -0 3
EndChar

StartChar: Scaron
Encoding: 352 352 192
Width: 583
Flags: HW
TeX: 819 0
HStem: -11 61<198.875 400.517> 560 62<176.775 358.99> 636 75<291 314.545>
VStem: 58 66<-7.73243 37 410.663 512.872> 428 67<409.334 489.134 572 618.265> 458 66<102.747 218.949>
DStem2: 218 369 185 305 0.968277 -0.249878<-79.4721 251.196>
AnchorPoint: "below" 315 0 basechar 0
AnchorPoint: "above" 264 784 basechar 0
LayerCount: 2
Fore
SplineSet
147 775 m 0
 147 791 161 804 176 804 c 0
 191 804 200 793 268 732 c 2
 291 711 l 1
 292 711 l 1
 300 719 308 726 374 785 c 0
 386 795 394 804 407 804 c 0xf0
 422 804 436 791 436 775 c 0
 436 762 426 753 421 748 c 0
 303 635 306 636 291 636 c 0
 276 636 279 635 161 748 c 0
 156 753 147 762 147 775 c 0
EndSplineSet
Refer: 129 83 S 1 0 0 1 0 -0 3
EndChar

StartChar: Scedilla
Encoding: 350 350 193
Width: 583
Flags: HW
TeX: 610 194
HStem: -208 60<199.072 362.312> -10 60<199.768 291> 560 62<175.882 358.99>
VStem: 58 66<-7.46945 37 409.845 513.465> 372 70<-133.446 -76.4731> 428 67<408.473 488.727 572 618.265> 458 66<103.418 219.653>
DStem2: 194 377 186 305 0.970153 -0.242495<-57.6508 271.53>
LayerCount: 2
Fore
SplineSet
58 27 m 2
 58 167 l 2
 58 189 66 203 93 203 c 0
 153 203 105 150 158 98 c 0
 199 57 277 50 316 50 c 0
 407 50 458 108 458 161 c 0xfa
 458 200 431 240 382 260 c 0
 351 273 223 293 186 305 c 0
 132 322 58 372 58 459 c 0
 58 543 141 622 264 622 c 0
 361 622 410 584 426 572 c 1
 435 604 441 622 465 622 c 0
 489 622 495 605 495 584 c 2
 495 443 l 2
 495 415 480 407 461 407 c 2
 460 407 l 2
 449 407 436 409 428 425 c 0xf4
 421 439 420 560 264 560 c 0
 178 560 124 511 124 461 c 0
 124 429 146 397 194 377 c 0
 230 362 351 344 389 332 c 0
 453 312 524 256 524 166 c 0
 524 133 511 22 352 -10 c 1
 392 -19 442 -48 442 -107 c 0
 442 -124 439 -158 400 -182 c 0
 360 -206 302 -208 241 -208 c 2
 235 -208 l 2xfa
 217 -208 198 -203 198 -177 c 0
 198 -163 206 -151 220 -148 c 0
 239 -143 372 -157 372 -107 c 0
 372 -97 365 -71 317 -67 c 1
 304 -67 285 -61 285 -34 c 0
 285 -20 290 -12 291 -10 c 1
 191 -6 147 24 126 37 c 1
 120 16 115 -11 88 -11 c 0
 64 -11 58 6 58 27 c 2
EndSplineSet
EndChar

StartChar: Tcaron
Encoding: 356 356 194
Width: 758
Flags: HW
TeX: 819 0
HStem: -0 62<211.094 343 413 544.816> 455 156<38.4217 105.604 650.43 717.471> 549 62<107 343 413 649> 636 75<378 401.545>
VStem: 37 70<456.25 549> 343 70<62 549> 649 70<456.528 549>
CounterMasks: 1 0e
AnchorPoint: "below" 378 0 basechar 0
AnchorPoint: "above" 378 795 basechar 0
LayerCount: 2
Fore
SplineSet
233 776 m 0x9e
 233 791 248 804 263 804 c 0
 278 804 287 793 355 732 c 2
 378 711 l 1
 379 711 l 1
 387 719 395 726 461 785 c 0
 473 795 481 804 494 804 c 0
 509 804 523 791 523 775 c 0
 523 762 513 753 508 748 c 0
 390 635 393 636 378 636 c 0
 363 636 366 635 248 748 c 0
 241 755 233 763 233 776 c 0x9e
EndSplineSet
Refer: 130 84 S 1 0 0 1 0 -0 3
EndChar

StartChar: Tcommaaccent
Encoding: 354 354 195
Width: 758
Flags: HW
TeX: 610 194
HStem: -208 58<256.971 417.744> 0 62<211.486 343 413 545.715> 455 156<38.4217 105.604 650.43 717.471> 549 62<107 343 413 649>
VStem: 37 70<456.25 549> 343 70<-16.7871 0 62 549> 430 71<-133.798 -76.6485> 649 70<456.528 549>
LayerCount: 2
Fore
SplineSet
37 489 m 2
 37 573 l 2
 37 587 37 611 72 611 c 2
 684 611 l 2
 704 611 719 604 719 576 c 2
 719 491 l 2
 719 483 720 455 685 455 c 0xef
 666 455 649 458 649 491 c 2
 649 549 l 1
 413 549 l 1
 413 62 l 1
 514 62 l 2
 537 62 547 46 547 31 c 0
 547 16 539 0 510 0 c 2
 413 0 l 1
 413 -10 l 1
 413 -10 501 -29 501 -107 c 0
 501 -156 467 -183 429 -195 c 0
 389 -207 349 -208 302 -208 c 2
 290 -208 l 2
 285 -208 256 -208 256 -177 c 0
 256 -166 261 -156 273 -150 c 0
 291 -142 430 -159 430 -107 c 0
 430 -83 404 -71 383 -68 c 0
 360 -65 343 -68 343 -26 c 2
 343 0 l 1
 243 0 l 2
 220 0 210 15 210 30 c 0
 210 45 218 62 247 62 c 2
 343 62 l 1
 343 549 l 1
 107 549 l 1xdf
 107 491 l 2
 107 473 102 455 74 455 c 2xef
 69 455 l 2
 54 455 37 461 37 489 c 2
EndSplineSet
EndChar

StartChar: Uring
Encoding: 366 366 197
Width: 758
Flags: HW
TeX: 819 0
HStem: -11 62<294.938 464.797> 549 62<46.1619 140 210 302.724 454.227 547 618 710.612> 590 62<335.154 422.907> 766 61<334.481 423.606>
VStem: 140 70<129.461 549> 262 59<665.601 752.792> 436 59<665.011 752.792> 547 71<131.609 549>
LayerCount: 2
Fore
SplineSet
262 709 m 0
 262 780 319 827 378 827 c 0
 437 827 495 780 495 709 c 0
 495 638 438 590 379 590 c 0
 320 590 262 638 262 709 c 0
321 709 m 0
 321 681 345 652 379 652 c 0
 413 652 436 680 436 709 c 0
 436 734 417 766 379 766 c 0xbf
 341 766 321 734 321 709 c 0
EndSplineSet
Refer: 131 85 S 1 0 0 1 -0 0 3
EndChar

StartChar: Ydieresis
Encoding: 376 376 198
Width: 758
Flags: HW
TeX: 819 0
ItalicCorrection: 26
HStem: 0 62<250.547 343 413 506.826> 549 62<31.1504 130.996 205 266.72 489.122 551 625.004 725.016> 719 100<235.593 317.035 439.117 520.474>
VStem: 226 100<728.526 809.771> 343 70<62 269.844> 430 100<728.229 809.508>
DStem2: 205 549 131 531 0.595298 -0.803505<0 291.81> 379 314 423 257 0.593399 0.804908<0 291.218>
CounterMasks: 1 1c
AnchorPoint: "below" 378 0 basechar 0
AnchorPoint: "above" 378 810 basechar 0
LayerCount: 2
Fore
SplineSet
226 769 m 0
 226 794 247 819 276 819 c 0
 302 819 326 798 326 769 c 0
 326 740 303 719 277 719 c 0
 247 719 226 744 226 769 c 0
430 769 m 0
 430 795 452 819 480 819 c 0
 510 819 530 793 530 769 c 0
 530 744 509 719 480 719 c 0
 454 719 430 740 430 769 c 0
EndSplineSet
Refer: 135 89 S 1 0 0 1 0 0 3
EndChar

StartChar: Zcaron
Encoding: 381 381 200
Width: 641
Flags: HW
TeX: 819 0
HStem: -0 62<157 518> 549 62<143 484> 636 75<327 350.545>
VStem: 73 70<456.544 549> 518 70<62 173.643>
DStem2: 79 76 157 62 0.650395 0.759597<40.0964 622.699>
AnchorPoint: "below" 324 0 basechar 0
AnchorPoint: "above" 324 795 basechar 0
LayerCount: 2
Fore
SplineSet
182 776 m 0
 182 791 197 804 212 804 c 0
 227 804 235 794 304 732 c 2
 327 711 l 1
 328 711 l 1
 336 719 344 726 410 785 c 0
 422 795 430 804 443 804 c 0
 458 804 472 791 472 775 c 0
 472 762 462 753 457 748 c 0
 339 635 342 636 327 636 c 0
 312 636 315 635 197 748 c 0
 190 755 182 763 182 776 c 0
EndSplineSet
Refer: 136 90 S 1 0 0 1 0 -0 3
EndChar

StartChar: IJ
Encoding: 306 306 202
Width: 875
Flags: HW
TeX: 610 0
HStem: -11 61<507.785 654.979> -0 62<41.274 139 209 306.722> 549 62<41.2656 139 209 306.805 565.246 687 757 825.628>
VStem: 139 70<62 549> 420 89<76.5142 139.444> 687 70<80.6582 549>
LayerCount: 2
Fore
SplineSet
40 31 m 0
 40 44 46 61 74 62 c 1
 139 62 l 1x7c
 139 549 l 1
 74 549 l 1
 45 550 40 569 40 580 c 0
 40 591 45 611 76 611 c 2
 273 611 l 2
 301 611 308 594 308 580 c 0
 308 567 302 550 274 549 c 1
 209 549 l 1
 209 62 l 1
 274 62 l 1
 304 61 308 41 308 31 c 0
 308 20 304 0 273 -0 c 2
 76 -0 l 2
 48 0 40 17 40 31 c 0
420 100 m 0
 420 127 440 146 465 146 c 0
 489 146 509 128 509 101 c 0
 509 96 507 87 501 76 c 1
 511 68 534 50 585 50 c 0
 622 50 687 67 687 138 c 2
 687 549 l 1
 599 549 l 2
 582 549 564 555 564 580 c 0
 564 598 575 610 595 611 c 1
 795 611 l 2
 814 611 827 598 827 580 c 0
 827 551 802 549 792 549 c 2xbc
 757 549 l 1
 757 136 l 1
 759 50 683 -11 587 -11 c 0
 490 -11 420 33 420 100 c 0
EndSplineSet
Ligature2: "Latin Dutch ligatures subtable" I J
EndChar

StartChar: dcroat
Encoding: 273 273 204
Width: 583
Flags: HW
TeX: 610 0
HStem: -5 61<187.525 331.299 471 562.95> 374 62<193.316 345.588> 462 61<148.281 401 471 564.679> 549 62<308.25 401>
VStem: 43 70<135.518 293.913> 401 70<128.23 322.389 386 462 523 549>
LayerCount: 2
Fore
SplineSet
43 214 m 0
 43 335 142 436 267 436 c 0
 323 436 365 416 401 386 c 1
 401 462 l 1
 184 462 l 2
 152 462 147 480 147 492 c 0
 147 503 152 523 184 523 c 2
 401 523 l 1
 401 549 l 1
 342 549 l 2
 312 549 307 569 307 580 c 0
 307 591 311 611 344 611 c 2
 434 611 l 2
 472 611 471 587 471 570 c 2
 471 523 l 1
 532 523 l 1
 559 522 566 505 566 492 c 0
 566 479 559 470 550 465 c 0
 541 460 531 462 522 462 c 2
 471 462 l 1
 471 62 l 1
 531 62 l 2
 559 62 566 45 566 31 c 0
 566 20 561 0 531 -0 c 2
 438 -0 l 2
 399 0 401 25 401 39 c 2
 401 58 l 1
 364 21 320 -5 257 -5 c 0
 134 -5 43 99 43 214 c 0
113 215 m 0
 113 125 182 56 261 56 c 0
 338 56 401 127 401 200 c 2
 401 267 l 2
 401 316 346 374 273 374 c 0
 189 374 113 308 113 215 c 0
EndSplineSet
AlternateSubs2: "Stilistic set 01 subtable" dcroat.vn
AlternateSubs2: "Latin alternatives subtable" dcroat.vn
Substitution2: "Latin Vietnamese substitutions subtable" dcroat.vn
EndChar

StartChar: section
Encoding: 167 167 205
Width: 467
Flags: HW
TeX: 610 222
HStem: -227 61<177.326 296.928> 554 62<167.333 287.971>
VStem: 72 57<149.349 256.689 409.853 516.26> 87 68<-144.164 -66.818> 309 69<455.818 531.077> 336 56<-127.565 -20.9379 132.095 238.889>
LayerCount: 2
Fore
SplineSet
72 200 m 0
 72 226 79 286 145 331 c 1
 111 355 72 398 72 461 c 0
 72 541 137 616 232 616 c 0
 311 616 378 560 378 491 c 0
 378 461 355 453 343 453 c 0
 325 453 312 466 309 480 c 0
 308 483 308 554 231 554 c 0
 174 554 129 509 129 461 c 0xe8
 129 387 235 364 281 342 c 0
 355 305 392 250 392 189 c 0
 392 111 337 70 319 58 c 1
 353 34 392 -9 392 -72 c 0
 392 -153 326 -227 232 -227 c 0
 151 -227 87 -169 87 -102 c 0xd4
 87 -72 110 -64 122 -64 c 0
 140 -64 152 -77 155 -91 c 0
 156 -95 156 -166 233 -166 c 0
 282 -166 336 -128 336 -72 c 0xd4
 336 2 230 24 184 47 c 0
 154 62 72 108 72 200 c 0
129 200 m 0
 129 129 240 97 249 97 c 0
 274 97 336 127 336 188 c 0xe4
 336 259 225 292 216 292 c 0
 194 292 129 264 129 200 c 0
EndSplineSet
EndChar

StartChar: abreve
Encoding: 259 259 206
Width: 510
Flags: HW
TeX: 638 0
HStem: -5 61<151.176 313.429> 0 69<413.869 505.235> 217 60<196.362 343> 320 114<99.2382 160.025> 377 62<166 304.25> 498 65<162.363 361.289>
VStem: 52 70<83.8157 169.127> 78 88<326.329 374.652> 86 62<581.51 637.557> 343 70<82.831 217 277 340.027> 373 65<579.202 636.866>
AnchorPoint: "below" 220 0 basechar 0
AnchorPoint: "above" 220 619 basechar 0
LayerCount: 2
Fore
SplineSet
86 608 m 0
 86 627 99 639 116 639 c 0
 147 639 147 608 148 604 c 0
 158 565 238 563 261 563 c 0
 299 563 359 569 373 598 c 0
 377 607 374 639 407 639 c 0
 425 639 438 627 438 608 c 0
 438 564 401 498 262 498 c 0x24a0
 122 498 86 564 86 608 c 0
EndSplineSet
Refer: 143 97 S 1 0 0 1 0 0 3
AlternateSubs2: "Stilistic set 01 subtable" abreve.vn
AlternateSubs2: "Latin alternatives subtable" abreve.vn
Substitution2: "Latin Vietnamese substitutions subtable" abreve.vn
EndChar

StartChar: aogonek
Encoding: 261 261 207
Width: 510
Flags: HW
TeX: 430 222
HStem: -233 62<385.832 472.138> -5 61<151.176 311.797 414.195 506.244> 218 59<196.362 343> 320 114<99.2382 160.025> 377 62<166 304.25>
VStem: 52 70<83.8157 169.223> 78 88<326.329 374.652> 300 64<-148.096 -47.0755> 343 70<83.9173 218 277 340.027>
AnchorPoint: "above" 218 440 basechar 0
LayerCount: 2
Fore
SplineSet
52 129 m 0xed
 52 248 230 277 343 277 c 1
 344 355 278 377 225 377 c 0
 204 377 185 376 166 373 c 1
 166 367 l 2xea80
 166 339 148 320 122 320 c 0xf4
 98 320 78 339 78 366 c 0
 78 384 85 422 147 434 c 0xf2
 169 438 193 439 215 439 c 2
 221 439 l 1
 262 437 l 1
 294 433 413 405 413 279 c 2
 413 69 l 1xea80
 436 60 456 62 475 62 c 2
 476 62 l 2
 502 62 509 43 509 31 c 0
 509 16 502 0 474 -0 c 2
 458 -0 l 2
 426 0 364 -52 364 -100 c 0
 364 -140 402 -171 433 -171 c 0
 481 -170 475 -116 509 -116 c 0
 525 -116 541 -130 541 -146 c 0
 541 -165 506 -233 432 -233 c 0
 365 -233 300 -174 300 -102 c 0xe9
 300 -45 339 -4 367 18 c 1
 354 32 l 1
 342 25 297 -5 213 -5 c 0
 109 -5 52 65 52 129 c 0xed
122 129 m 0
 122 88 166 56 220 56 c 0xe480
 262 56 343 69 343 129 c 2
 343 218 l 1
 216 216 122 182 122 129 c 0
EndSplineSet
EndChar

StartChar: cacute
Encoding: 263 263 208
Width: 466
Flags: HW
TeX: 610 0
HStem: -5 61<191.795 337.204> 377 62<192.608 335.154>
VStem: 43 70<135.239 298.019> 336 88<326.262 374.06> 365 71<82.4693 135.194>
AnchorPoint: "below" 264 0 basechar 0
AnchorPoint: "above" 276 619 basechar 0
LayerCount: 2
Fore
SplineSet
158 546 m 0
 158 567 177 573 188 578 c 0
 319 635 326 639 337 639 c 0
 354 639 371 625 371 604 c 0
 371 582 353 573 341 568 c 0
 197 505 202 506 192 506 c 0xe0
 170 506 158 532 158 546 c 0
EndSplineSet
Refer: 145 99 S 1 0 0 1 0 -0 3
EndChar

StartChar: ccaron
Encoding: 269 269 209
Width: 466
Flags: HW
TeX: 638 0
HStem: -5 61<191.795 337.204> 377 62<192.608 335.154> 484 78<206.597 269.31>
VStem: 43 70<135.239 298.019> 336 88<326.262 374.06> 365 71<82.4693 135.194>
AnchorPoint: "below" 264 0 basechar 0
AnchorPoint: "above" 276 619 basechar 0
LayerCount: 2
Fore
SplineSet
94 610 m 0
 94 626 108 639 123 639 c 0
 146 639 226 562 238 562 c 0xf0
 253 562 330 639 354 639 c 0
 371 639 384 622 384 610 c 0
 384 591 379 592 264 496 c 0
 259 492 250 484 239 484 c 2
 236 484 l 2
 227 484 223 488 114 579 c 0
 105 586 94 595 94 610 c 0
EndSplineSet
Refer: 145 99 S 1 0 0 1 -0 0 3
EndChar

StartChar: dcaron
Encoding: 271 271 210
Width: 698
Flags: HW
TeX: 610 0
HStem: -5 61<187.525 331.299 471 562.95> 374 62<193.316 345.588> 440 21G<517.5 537> 549 62<308.366 401>
VStem: 43 70<135.518 293.913> 401 70<128.23 322.389 386 549> 501 115<543.491 613.232>
LayerCount: 2
Fore
SplineSet
493 472 m 0
 493 494 519 502 520 503 c 0
 537 512 541 518 549 532 c 1
 509 535 501 570 501 583 c 0
 501 610 522 632 552 632 c 0
 590 632 616 597 616 557 c 0
 616 483 550 440 524 440 c 0
 511 440 493 454 493 472 c 0
EndSplineSet
Refer: 146 100 S 1 0 0 1 -0 0 2
EndChar

StartChar: ecaron
Encoding: 283 283 211
Width: 466
Flags: HW
TeX: 638 0
HStem: -5 61<189.528 335.985> 191 61<110 365> 377 62<176.841 316.146> 484 78<214.597 277.31>
VStem: 365 71<82.6808 135.328 252 323.362>
AnchorPoint: "below" 263 0 basechar 0
AnchorPoint: "above" 248 619 basechar 0
LayerCount: 2
Fore
SplineSet
102 610 m 0
 102 626 116 639 131 639 c 0
 154 639 234 562 246 562 c 0
 261 562 338 639 362 639 c 0
 379 639 391 622 391 610 c 0
 391 591 387 592 272 496 c 0
 267 492 258 484 247 484 c 2
 243 484 l 2
 234 484 231 488 122 579 c 0
 113 586 102 595 102 610 c 0
EndSplineSet
Refer: 147 101 S 1 0 0 1 -0 0 3
EndChar

StartChar: eogonek
Encoding: 281 281 212
Width: 467
Flags: HW
TeX: 430 222
HStem: -233 62<278.881 364.017> 191 61<110 364> 377 62<178.564 314.392>
VStem: 193 64<-149.397 -47.7767> 365 70<82.6113 135.328 252 322.141>
AnchorPoint: "above" 247 440 basechar 0
LayerCount: 2
Fore
SplineSet
37 217 m 0
 37 342 133 439 247 439 c 0
 344 439 436 375 436 226 c 0
 436 192 414 191 398 191 c 2
 109 191 l 1
 127 96 207 56 268 56 c 0
 321 56 354 86 365 111 c 0
 372 128 379 137 400 137 c 0
 419 137 435 132 435 110 c 0
 435 89 419 60 392 37 c 0
 339 -8 257 -34 257 -101 c 0
 257 -141 293 -171 326 -171 c 0
 373 -171 367 -117 402 -117 c 0
 418 -117 434 -129 434 -147 c 0
 434 -164 400 -233 325 -233 c 0
 260 -233 193 -178 193 -103 c 0
 193 -59 215 -27 235 -4 c 1
 121 8 37 105 37 217 c 0
110 252 m 1
 364 252 l 1
 355 353 294 377 247 377 c 0
 192 377 128 338 110 252 c 1
EndSplineSet
EndChar

StartChar: lcaron
Encoding: 318 318 215
Width: 406
Flags: HW
TeX: 610 0
HStem: -0 62<17.0156 110 180 273.016> 440 21G<226.5 246> 549 62<17.2535 110>
VStem: 110 70<62 549> 210 115<543.491 613.232>
LayerCount: 2
Fore
SplineSet
201 472 m 0
 201 495 220 495 245 514 c 1
 253 524 l 1
 258 532 l 1
 218 535 210 570 210 583 c 0
 210 610 231 632 261 632 c 0
 299 632 325 597 325 557 c 0
 325 483 259 440 233 440 c 0
 220 440 201 454 201 472 c 0
EndSplineSet
Refer: 154 108 S 1 0 0 1 -0 -0 2
EndChar

StartChar: lslash
Encoding: 322 322 216
Width: 353
Flags: HW
TeX: 610 0
HStem: -0 62<46.0156 139 209 302.016> 549 62<46.125 139>
VStem: 139 70<62 280 411 549>
DStem2: 139 358 139 280 0.793621 0.608413<-97.0603 -47.4562 89.333 153.117>
AnchorPoint: "above" 174 611 basechar 0
LayerCount: 2
Fore
SplineSet
45 31 m 0
 45 59 68 62 82 62 c 2
 139 62 l 1
 139 280 l 1
 122 267 109 255 95 255 c 0
 78 255 64 271 64 287 c 0
 64 299 65 305 139 358 c 1
 139 549 l 1
 80 549 l 2
 69 549 45 551 45 580 c 0
 45 591 49 611 81 611 c 2
 173 611 l 2
 211 611 209 586 209 572 c 2
 209 411 l 1
 231 428 250 445 266 445 c 0
 283 445 295 426 295 413 c 0
 295 398 285 391 276 384 c 0
 205 330 209 336 209 319 c 2
 209 62 l 1
 267 62 l 2
 281 62 303 60 303 31 c 0
 303 16 296 0 268 -0 c 2
 81 -0 l 2
 62 0 45 6 45 31 c 0
EndSplineSet
EndChar

StartChar: nacute
Encoding: 324 324 217
Width: 583
Flags: HW
TeX: 610 0
HStem: -0 62<17.0156 111 181 273.861 309.208 402 472 564.909> 369 61<17.1072 111 236.88 388.76>
VStem: 111 70<62 314.713> 402 70<62 356.239>
LayerCount: 2
Fore
SplineSet
203 546 m 0
 203 567 221 573 232 578 c 0
 363 635 370 639 381 639 c 0
 398 639 415 625 415 604 c 0
 415 582 397 573 385 568 c 0
 241 505 246 506 236 506 c 0
 214 506 203 532 203 546 c 0
EndSplineSet
Refer: 156 110 S 1 0 0 1 0 -0 3
EndChar

StartChar: ncaron
Encoding: 328 328 218
Width: 583
Flags: HW
TeX: 638 0
HStem: -0 62<17.0156 111 181 273.861 309.208 402 472 564.909> 369 61<17.1072 111 236.88 388.76> 484 78<207.729 269.31>
VStem: 111 70<62 314.713> 402 70<62 356.239>
LayerCount: 2
Fore
SplineSet
95 610 m 0
 95 626 109 639 124 639 c 0
 147 639 227 562 239 562 c 0
 254 562 331 639 355 639 c 0
 372 639 384 622 384 610 c 0
 384 591 379 592 264 496 c 0
 259 492 250 484 239 484 c 2
 236 484 l 2
 227 484 223 488 114 579 c 0
 105 586 95 595 95 610 c 0
EndSplineSet
Refer: 156 110 S 1 0 0 1 -0 -0 3
EndChar

StartChar: eng
Encoding: 331 331 219
Width: 583
Flags: HW
TeX: 430 222
HStem: -228 62<304.054 377.819> -0 62<17.2755 111 181 273.861> 369 61<17.1072 111 235.192 388.232>
VStem: 111 70<62 314.713> 215 88<-163.879 -113.064> 402 70<-140 355.146>
AnchorPoint: "affricate-below" 583 -222 basechar 0
AnchorPoint: "affricate-above" 583 611 basechar 0
AnchorPoint: "below" 292 -222 basechar 0
AnchorPoint: "above" 292 440 basechar 0
LayerCount: 2
Fore
SplineSet
16 31 m 0
 16 60 39 62 53 62 c 2
 111 62 l 1
 111 369 l 1
 51 369 l 2
 21 369 16 388 16 400 c 0
 16 411 21 430 53 430 c 2
 148 430 l 2
 165 430 181 422 181 395 c 2
 181 380 l 1
 214 410 261 436 328 436 c 0
 443 436 472 365 472 284 c 2
 472 32 l 2
 472 -80 460 -228 335 -228 c 0
 237 -228 215 -182 215 -152 c 0
 215 -121 239 -107 259 -107 c 0
 284 -107 303 -125 303 -151 c 0
 303 -154 303 -158 302 -162 c 1
 315 -164 326 -166 335 -166 c 0
 375 -166 402 -146 402 16 c 2
 402 282 l 2
 402 340 390 374 322 374 c 0
 270 374 242 354 217 333 c 1
 185 294 181 279 181 228 c 2
 181 62 l 1
 238 62 l 2
 249 62 275 61 275 31 c 0
 275 2 250 0 240 -0 c 2
 52 -0 l 2
 22 0 16 19 16 31 c 0
EndSplineSet
EndChar

StartChar: ohungarumlaut
Encoding: 337 337 220
Width: 525
Flags: HW
TeX: 610 0
ItalicCorrection: 7
HStem: -5 61<186.529 334.36> 377 62<182.528 339.41>
VStem: 37 70<139.994 300.655> 416 70<140.607 302.316>
AnchorPoint: "below" 262 0 basechar 0
AnchorPoint: "above" 262 619 basechar 0
LayerCount: 2
Fore
SplineSet
114 546 m 0
 114 569 122 568 264 630 c 0
 273 634 283 639 293 639 c 0
 314 639 327 622 327 604 c 0
 327 589 318 580 313 575 c 1
 449 634 456 639 467 639 c 0
 488 639 502 622 502 604 c 0
 502 582 483 572 470 567 c 0
 342 511 331 506 322 506 c 0
 305 506 289 525 289 545 c 0
 289 560 297 565 300 569 c 1
 158 507 157 506 149 506 c 2
 148 506 l 2
 121 506 114 540 114 546 c 0
EndSplineSet
Refer: 157 111 S 1 0 0 1 -0 -0 3
EndChar

StartChar: racute
Encoding: 341 341 221
Width: 408
Flags: HW
TeX: 610 0
HStem: 0 62<17.4519 110 180 296.666> 330 106<299.156 359.605> 369 61<16.9746 110 240.813 294>
VStem: 110 70<62 294.856> 294 84<335.425 373>
AnchorPoint: "below" 158 0 basechar 0
AnchorPoint: "above" 188 622 basechar 0
LayerCount: 2
Fore
SplineSet
129 546 m 0
 129 567 148 573 159 578 c 0
 290 635 297 639 308 639 c 0
 325 639 342 625 342 604 c 0
 342 582 324 573 312 568 c 0
 168 505 172 506 162 506 c 0x98
 140 506 129 532 129 546 c 0
EndSplineSet
Refer: 160 114 S 1 0 0 1 0 -0 3
EndChar

StartChar: rcaron
Encoding: 345 345 222
Width: 408
Flags: HW
TeX: 638 0
HStem: 0 62<17.4519 110 180 296.666> 330 106<299.156 359.605> 369 61<16.9746 110 240.813 294> 484 78<193.729 255.31>
VStem: 110 70<62 294.856> 294 84<335.425 373>
AnchorPoint: "below" 158 0 basechar 0
AnchorPoint: "above" 188 622 basechar 0
LayerCount: 2
Fore
SplineSet
80 610 m 0
 80 626 94 639 109 639 c 0
 132 639 213 562 225 562 c 0x9c
 240 562 317 639 341 639 c 0
 358 639 370 622 370 610 c 0
 370 591 365 592 250 496 c 0
 245 492 236 484 225 484 c 2
 222 484 l 2
 213 484 209 488 100 579 c 0
 91 586 80 595 80 610 c 0
EndSplineSet
Refer: 160 114 S 1 0 0 1 0 -0 3
EndChar

StartChar: sacute
Encoding: 347 347 223
Width: 414
Flags: HW
TeX: 610 0
HStem: -5 61<142.926 297.085> 288 151<293.332 351.126> 377 62<111.739 268.41>
VStem: 35 62<108.137 170.433 287.307 360.161> 317 62<76.7589 165.789>
AnchorPoint: "above" 203 619 basechar 0
LayerCount: 2
Fore
SplineSet
35 31 m 2
 35 125 l 2
 35 150 35 172 71 172 c 0
 81 172 91 170 98 161 c 0
 112 142 112 56 211 56 c 0
 268 56 317 70 317 124 c 0
 317 160 279 179 263 185 c 0
 207 206 96 197 49 272 c 0
 41 285 35 301 35 321 c 0
 35 368 60 439 202 439 c 0xb8
 244 439 269 432 293 420 c 1
 300 432 312 439 324 439 c 0
 339 439 353 428 353 404 c 2
 353 329 l 2
 353 315 353 288 318 288 c 0xd8
 248 288 325 377 199 377 c 0
 154 377 97 370 97 320 c 0
 97 297 122 276 178 266 c 0
 259 251 295 247 335 214 c 0
 363 191 379 161 379 125 c 0
 379 73 353 -5 211 -5 c 0
 157 -5 127 9 100 28 c 1
 93 10 86 -5 65 -5 c 0
 54 -5 35 -1 35 31 c 2
118 546 m 0
 118 567 137 573 148 578 c 0
 279 635 286 639 297 639 c 0
 314 639 331 625 331 604 c 0
 331 582 313 573 301 568 c 0
 157 505 161 506 151 506 c 0x98
 129 506 118 532 118 546 c 0
EndSplineSet
EndChar

StartChar: scaron
Encoding: 353 353 224
Width: 414
Flags: HW
TeX: 638 0
HStem: -5 61<142.926 297.085> 288 151<293.332 351.126> 377 62<111.739 268.41> 484 78<161.597 224.31>
VStem: 35 62<108.137 170.433 286.755 360.161> 317 62<76.7589 167.427>
AnchorPoint: "above" 203 619 basechar 0
LayerCount: 2
Fore
SplineSet
35 31 m 2
 35 125 l 2
 35 150 35 172 71 172 c 0
 81 172 91 170 98 161 c 0
 112 142 112 56 211 56 c 0
 268 56 317 70 317 124 c 0
 317 196 201 195 140 211 c 0
 95 223 35 255 35 321 c 0
 35 368 60 439 202 439 c 0xbc
 244 439 269 432 293 420 c 1
 300 432 312 439 324 439 c 0
 339 439 353 428 353 404 c 2
 353 329 l 2
 353 315 353 288 318 288 c 0xdc
 248 288 325 377 199 377 c 0
 154 377 97 370 97 320 c 0
 97 250 259 278 335 214 c 0
 363 191 379 161 379 125 c 0
 379 73 353 -5 211 -5 c 0
 157 -5 127 9 100 28 c 1
 93 10 86 -5 65 -5 c 0
 54 -5 35 -1 35 31 c 2
49 610 m 0
 49 626 63 639 78 639 c 0
 101 639 181 562 193 562 c 0x9c
 208 562 285 639 309 639 c 0
 326 639 338 622 338 610 c 0
 338 591 334 592 219 496 c 0
 214 492 205 484 194 484 c 2
 190 484 l 2
 181 484 178 488 69 579 c 0
 60 586 49 595 49 610 c 0
EndSplineSet
EndChar

StartChar: scedilla
Encoding: 351 351 225
Width: 414
Flags: HW
TeX: 430 194
HStem: -208 58<86.1166 246.65> -5 21G<59.5 75.5> 289 150<293.283 349.862> 377 62<112.125 269.162>
VStem: 35 62<108.732 170.433 286.758 359.569> 259 70<-133.224 -77.4549> 317 62<77.2045 166.331>
LayerCount: 2
Fore
SplineSet
35 31 m 2
 35 119 l 2
 35 150 35 172 71 172 c 0
 81 172 91 170 98 161 c 0
 116 137 108 57 216 57 c 0
 268 57 317 70 317 124 c 0
 317 183 229 194 212 197 c 0
 159 207 35 220 35 321 c 0
 35 368 60 439 202 439 c 0xda
 244 439 269 432 293 420 c 1
 299 430 307 439 322 439 c 0
 332 439 353 434 353 404 c 2
 353 329 l 1
 353 329 355 290 319 289 c 1xea
 247 289 326 377 199 377 c 0
 126 377 97 355 97 321 c 0
 97 265 215 262 263 250 c 0
 312 238 379 200 379 125 c 0xda
 379 81 360 7 242 -4 c 1
 242 -10 l 1
 242 -10 329 -29 329 -108 c 0
 329 -144 309 -181 252 -197 c 0
 214 -208 176 -208 131 -208 c 2xdc
 117 -208 l 2
 98 -208 85 -196 85 -178 c 0
 85 -170 86 -157 101 -150 c 0
 120 -141 259 -159 259 -107 c 0xdc
 259 -89 239 -72 212 -68 c 0
 189 -65 172 -68 172 -25 c 2
 172 -2 l 1
 137 5 120 14 100 28 c 1
 93 10 86 -5 65 -5 c 0
 54 -5 35 -1 35 31 c 2
EndSplineSet
EndChar

StartChar: tcaron
Encoding: 357 357 226
Width: 408
Flags: HW
TeX: 610 0
HStem: -5 62<188.619 265.541> 369 61<20.0156 110 180 329.859> 433 21G<269.5 289>
VStem: 110 70<63.112 369 430 551.428> 253 115<536.491 606.232> 280 69<71.7812 163.288>
LayerCount: 2
Fore
SplineSet
19 399 m 0
 19 428 42 430 56 430 c 2
 110 430 l 1
 110 518 l 2
 110 526 109 553 145 553 c 2
 146 553 l 2
 177 553 180 534 180 518 c 2
 180 430 l 1
 297 430 l 2
 324 430 331 414 331 399 c 0
 331 390 327 369 296 369 c 2
 180 369 l 1
 180 126 l 2
 180 88 187 57 227 57 c 0
 283 57 279 137 280 140 c 0
 283 157 298 165 314 165 c 0
 342 165 349 148 349 128 c 0xf4
 349 44 288 -5 224 -5 c 0
 166 -5 110 22 110 129 c 2
 110 369 l 1
 56 369 l 2
 42 369 19 371 19 399 c 0
244 465 m 0
 244 487 271 495 272 496 c 0
 289 505 293 511 301 525 c 1
 272 527 253 549 253 575 c 0
 253 602 274 625 304 625 c 0
 342 625 368 590 368 550 c 0
 368 476 302 433 276 433 c 0xf8
 263 433 244 447 244 465 c 0
EndSplineSet
EndChar

StartChar: tcommaaccent
Encoding: 355 355 227
Width: 408
Flags: HW
TeX: 554 194
HStem: -208 58<108.46 269.133> 369 61<20.0156 110 180 329.896>
VStem: 110 70<63.5317 369 430 551.281> 194 71<-17.5854 4.28171> 282 70<-133.497 -77.132 71.59 162.218>
LayerCount: 2
Fore
SplineSet
19 399 m 0
 19 428 42 430 56 430 c 2
 110 430 l 1
 110 518 l 2
 110 532 113 553 145 553 c 2
 146 553 l 2
 174 553 180 538 180 518 c 2
 180 430 l 1
 297 430 l 2
 328 430 331 409 331 400 c 0
 331 389 327 369 297 369 c 2
 180 369 l 1
 180 120 l 1
 181 84 189 57 227 57 c 0
 268 57 279 104 279 120 c 0
 279 136 277 165 315 165 c 0
 340 165 349 149 349 124 c 0
 349 79 327 24 265 1 c 1
 265 -10 l 1
 265 -10 352 -29 352 -108 c 0
 352 -144 332 -181 275 -197 c 0
 237 -208 199 -208 154 -208 c 2
 140 -208 l 2
 119 -208 107 -193 107 -177 c 0
 107 -166 113 -155 124 -150 c 0
 144 -140 282 -158 282 -107 c 0
 282 -91 265 -72 235 -68 c 0
 212 -65 194 -68 194 -25 c 2
 194 -2 l 1
 112 15 110 92 110 130 c 2
 110 369 l 1
 56 369 l 2
 42 369 19 371 19 399 c 0
EndSplineSet
EndChar

StartChar: uhungarumlaut
Encoding: 369 369 228
Width: 583
Flags: HW
TeX: 610 0
HStem: -5 61<192.735 357.709 472 563.619> 369 61<17.1514 111 308.428 402>
VStem: 111 70<69.2363 369> 402 70<95.174 369>
AnchorPoint: "below" 291 0 basechar 0
AnchorPoint: "above" 291 628 basechar 0
LayerCount: 2
Fore
SplineSet
144 546 m 0
 144 569 152 568 294 630 c 0
 303 634 313 639 323 639 c 0
 344 639 357 622 357 604 c 0
 357 589 348 580 343 575 c 1
 479 634 486 639 497 639 c 0
 518 639 531 622 531 604 c 0
 531 582 513 572 500 567 c 0
 372 511 361 506 352 506 c 0
 335 506 319 525 319 545 c 0
 319 560 327 565 330 569 c 1
 188 507 187 506 179 506 c 2
 177 506 l 2
 150 506 144 540 144 546 c 0
EndSplineSet
Refer: 163 117 S 1 0 0 1 -0 -0 3
EndChar

StartChar: zacute
Encoding: 378 378 231
Width: 466
Flags: HW
TeX: 610 0
HStem: -0 62<129 352> 369 61<114 320>
VStem: 44 70<302.797 369> 352 70<62 138.22>
DStem2: 42 67 129 62 0.677268 0.735737<55.2436 410.473>
AnchorPoint: "below" 226 0 basechar 0
AnchorPoint: "above" 226 628 basechar 0
LayerCount: 2
Fore
SplineSet
144 546 m 0
 144 567 163 573 174 578 c 0
 305 635 312 639 323 639 c 0
 340 639 357 625 357 604 c 0
 357 582 339 573 327 568 c 0
 183 505 188 506 178 506 c 0
 156 506 144 532 144 546 c 0
EndSplineSet
Refer: 168 122 S 1 0 0 1 0 -0 3
EndChar

StartChar: zcaron
Encoding: 382 382 232
Width: 466
Flags: HW
TeX: 638 0
HStem: -0 62<129 352> 369 61<114 320> 484 78<199.597 261.31>
VStem: 44 70<302.797 369> 352 70<62 138.22>
DStem2: 42 67 129 62 0.677268 0.735737<55.2436 410.473>
AnchorPoint: "below" 226 0 basechar 0
AnchorPoint: "above" 226 628 basechar 0
LayerCount: 2
Fore
SplineSet
87 610 m 0
 87 626 101 639 116 639 c 0
 139 639 219 562 231 562 c 0
 246 562 323 639 347 639 c 0
 364 639 376 622 376 610 c 0
 376 591 371 592 256 496 c 0
 251 492 243 484 232 484 c 2
 228 484 l 2
 219 484 216 488 107 579 c 0
 98 586 87 595 87 610 c 0
EndSplineSet
Refer: 168 122 S 1 0 0 1 -0 -0 3
EndChar

StartChar: ij
Encoding: 307 307 234
Width: 612
Flags: HW
TeX: 610 222
HStem: -228 62<349.261 416.489> -0 62<25.0688 118 188 271.685> 369 61<29.9295 118 336.173 439> 511 100<97.2319 178.474 417.232 498.474>
VStem: 88 100<520.229 601.768> 118 70<62 369> 260 89<-164.273 -113.309> 408 100<520.229 601.768> 439 70<-141.264 369>
LayerCount: 2
Fore
SplineSet
24 31 m 0
 24 59 47 62 61 62 c 2
 118 62 l 1
 118 369 l 1
 62 369 l 1
 33 370 29 388 29 400 c 0
 29 415 37 430 64 430 c 2
 153 430 l 2
 186 430 188 410 188 394 c 2
 188 62 l 1xf6
 236 62 l 2
 254 62 273 57 273 31 c 0
 273 17 265 0 237 -0 c 2
 60 -0 l 2
 43 0 24 4 24 31 c 0
260 -152 m 0
 260 -120 286 -107 305 -107 c 0
 329 -107 349 -126 349 -151 c 0
 349 -155 349 -158 348 -162 c 1
 360 -165 369 -166 377 -166 c 0
 427 -166 439 -100 439 -41 c 2
 439 369 l 1
 369 369 l 1
 344 370 335 385 335 399 c 0
 335 413 342 430 369 430 c 2
 472 430 l 2
 484 430 509 430 509 395 c 2
 509 -37 l 2xf280
 509 -128 474 -228 375 -228 c 0
 305 -228 260 -197 260 -152 c 0
EndSplineSet
Refer: 92 46 S 1 0 0 1 313 511 2
Refer: 92 46 S 1 0 0 1 -7 511 2
Ligature2: "Latin Dutch ligatures subtable" i j
EndChar

StartChar: exclamdown
Encoding: 161 161 235
Width: 292
Flags: HW
TeX: 388 222
HStem: 288 100<104.232 185.474>
VStem: 95 100<-223.773 66.7 297.229 378.768> 105 81<-73.7 203.422>
LayerCount: 2
Fore
SplineSet
95 -179 m 1xc0
 105 172 l 2
 105 199 121 205 141 205 c 0
 165 205 185 205 186 171 c 2xa0
 195 -180 l 2
 195 -216 168 -233 145 -233 c 0xc0
 128 -233 95 -222 95 -179 c 1xc0
EndSplineSet
Refer: 92 46 S 1 0 0 1 0 288 2
EndChar

StartChar: questiondown
Encoding: 191 191 236
Width: 496
Flags: HW
TeX: 388 222
HStem: -227 61<148.191 336.794> 288 100<192.232 273.474>
VStem: 58 70<-144.845 -61.6868> 183 100<297.229 378.768> 193 80<58.875 203.194> 357 80<-145.578 -102.422>
LayerCount: 2
Fore
SplineSet
58 -103 m 0
 58 -94 59 -48 101 -15 c 0
 136 13 193 48 193 149 c 2
 193 165 l 2
 193 187 193 205 232 205 c 2
 237 205 l 2
 268 205 273 190 273 169 c 2xec
 273 145 l 2
 273 12 164 -45 144 -66 c 0
 131 -79 128 -95 128 -102 c 0
 128 -127 144 -166 231 -166 c 0
 314 -166 342 -144 357 -131 c 1
 357 -130 l 1
 351 -120 348 -111 348 -102 c 0
 348 -77 369 -59 392 -59 c 0
 416 -59 437 -78 437 -106 c 0
 437 -155 398 -227 233 -227 c 0
 86 -227 58 -148 58 -103 c 0
EndSplineSet
Refer: 92 46 S 1 0 0 1 88 288 2
EndChar

StartChar: sterling
Encoding: 163 163 237
Width: 671
Flags: HW
TeX: 610 0
HStem: -5 127<83.1175 236.401> -5 65<373.191 552.431> 275 61<148.029 256 326 464.02> 557 62<368.914 500.552>
VStem: 256 70<115.65 275 336 513.981> 523 89<420.382 489.625> 573 68<81.7653 149.047>
LayerCount: 2
Fore
SplineSet
58 52 m 0
 58 80 75 122 175 122 c 0
 201 122 226 119 248 115 c 1
 253 129 256 134 256 163 c 2
 256 275 l 1
 181 275 l 1
 151 276 147 294 147 306 c 0
 147 320 153 336 181 336 c 2
 256 336 l 1
 256 450 l 1
 253 558 348 619 436 619 c 0
 541 619 612 539 612 462 c 0
 612 423 582 414 567 414 c 0
 544 414 523 431 523 458 c 0xbc
 523 474 530 482 536 490 c 1
 523 526 486 557 436 557 c 0
 400 557 326 535 326 449 c 2
 326 336 l 1
 427 336 l 2
 444 336 465 333 465 305 c 0
 465 277 443 275 425 275 c 2
 326 275 l 1
 326 163 l 2
 326 138 323 116 316 98 c 1
 387 78 439 60 493 60 c 0
 572 60 570 124 573 131 c 0
 578 144 592 151 606 151 c 0x7a
 620 151 641 145 641 119 c 0
 641 64 591 -5 490 -5 c 0x7a
 411 -5 289 40 278 40 c 0
 263 40 232 -5 144 -5 c 0
 71 -5 58 29 58 52 c 0
EndSplineSet
EndChar

StartChar: Acircumflex
Encoding: 194 194 240
Width: 758
Flags: HW
TeX: 819 0
HStem: 0 62<41.9844 126 201 279.986 477.327 556 631 714.985> 171 61<262 495> 603 20<347.5 408.5> 751 73<337.5 389.263>
DStem2: 126 62 201 62 0.337947 0.941165<25.346 141.113 205.959 551.809> 442 588 379 558 0.338149 -0.941092<6.92937 352.951 418.135 533.564>
AnchorPoint: "below" 378 0 basechar 0
AnchorPoint: "above" 378 803 basechar 0
LayerCount: 2
Fore
SplineSet
202 697 m 0
 202 712 213 721 220 726 c 0
 354 824 351 824 365 824 c 2
 367 824 l 2
 378 824 379 821 507 727 c 0
 514 722 528 713 528 697 c 0
 528 683 511 659 492 659 c 0
 477 659 458 677 365 751 c 1
 364 751 l 1
 259 668 254 659 238 659 c 0
 219 659 202 682 202 697 c 0
EndSplineSet
Refer: 111 65 S 1 0 0 1 -0 -0 3
AlternateSubs2: "Stilistic set 01 subtable" Acircumflex.vn
AlternateSubs2: "Latin alternatives subtable" Acircumflex.vn
Substitution2: "Latin Vietnamese substitutions subtable" Acircumflex.vn
EndChar

StartChar: Atilde
Encoding: 195 195 241
Width: 758
Flags: HW
TeX: 819 0
HStem: 0 62<41.9844 126 201 279.986 477.327 556 631 714.985> 171 61<262 495> 603 20<347.5 408.5> 690 67<402.606 497.259> 753 66<259.846 353.414>
DStem2: 126 62 201 62 0.337947 0.941165<25.346 141.113 205.959 551.809> 442 588 379 558 0.338149 -0.941092<6.92937 352.951 418.135 533.564>
AnchorPoint: "below" 378 0 basechar 0
AnchorPoint: "above" 378 798 basechar 0
LayerCount: 2
Fore
SplineSet
175 721 m 0
 175 741 240 819 306 819 c 0xe8
 371 819 411 757 453 757 c 0
 496 757 524 818 549 818 c 0
 564 818 582 806 582 788 c 0
 582 768 518 690 452 690 c 0xf0
 387 690 345 753 304 753 c 0xe8
 259 753 234 690 207 690 c 0xf0
 190 690 175 706 175 721 c 0
EndSplineSet
Refer: 111 65 S 1 0 0 1 -0 -0 3
AlternateSubs2: "Stilistic set 01 subtable" Atilde.vn
AlternateSubs2: "Latin alternatives subtable" Atilde.vn
Substitution2: "Latin Vietnamese substitutions subtable" Atilde.vn
EndChar

StartChar: Adieresis
Encoding: 196 196 242
Width: 758
Flags: HW
TeX: 819 0
HStem: 0 62<41.9844 126 201 279.986 477.327 556 631 714.985> 171 61<262 495> 603 20<347.5 408.5> 719 100<236.526 318.035 439.965 521.407>
VStem: 227 100<728.229 809.771> 431 100<728.229 809.474>
DStem2: 126 62 201 62 0.337947 0.941165<25.346 141.113 205.959 551.809> 442 588 379 558 0.338149 -0.941092<6.92937 352.951 418.135 533.564>
AnchorPoint: "below" 378 0 basechar 0
AnchorPoint: "above" 378 798 basechar 0
LayerCount: 2
Fore
SplineSet
227 769 m 0
 227 794 248 819 277 819 c 0
 303 819 327 798 327 769 c 0
 327 740 303 719 277 719 c 0
 247 719 227 744 227 769 c 0
431 769 m 0
 431 798 454 819 480 819 c 0
 510 819 531 793 531 769 c 0
 531 744 510 719 481 719 c 0
 455 719 431 740 431 769 c 0
EndSplineSet
Refer: 111 65 S 1 0 0 1 0 0 3
EndChar

StartChar: Aring
Encoding: 197 197 243
Width: 758
Flags: HW
TeX: 778 0
HStem: 0 62<41.9844 126 201 279.986 477.327 556 631 714.985> 171 61<262 495> 766 61<323.286 405.786>
VStem: 248 58<641.524 748.829> 423 58<640.895 750.277>
DStem2: 126 62 201 62 0.338072 0.94112<25.3554 141.122 205.968 551.407> 441 594 379 558 0.336336 -0.941742<13.0499 359.073 424.255 539.685>
LayerCount: 2
Fore
SplineSet
41 31 m 0
 41 60 63 62 83 62 c 2
 126 62 l 1
 311 577 l 1
 252 614 248 674 248 695 c 0
 248 765 297 827 364 827 c 0
 425 827 481 772 481 694 c 0
 481 652 464 616 441 594 c 1
 631 62 l 1
 675 62 l 2
 695 62 716 60 716 31 c 0
 716 5 698 0 681 0 c 2
 513 0 l 2
 494 0 476 6 476 30 c 0
 476 60 500 62 513 62 c 2
 556 62 l 1
 518 171 l 1
 240 171 l 1
 201 62 l 1
 245 62 l 2
 258 62 281 61 281 31 c 0
 281 6 264 0 245 0 c 2
 77 0 l 2
 58 0 41 6 41 31 c 0
262 232 m 1
 495 232 l 1
 379 558 l 1
 262 232 l 1
306 695 m 0
 306 655 334 624 365 624 c 0
 399 624 423 660 423 695 c 0
 423 731 400 766 365 766 c 0
 339 766 306 740 306 695 c 0
EndSplineSet
EndChar

StartChar: AE
Encoding: 198 198 244
Width: 933
Flags: HW
TeX: 610 0
HStem: -0 62<45.0566 132 208 283.719 399.219 469 539 833> 183 61<289 469> 286 62<539 684> 549 62<290.109 346 422 469 539 804>
VStem: 469 70<62 183 244 286 348 549> 684 70<230.504 286 348 402.77> 804 70<456.469 549> 833 70<62 170.557>
DStem2: 132 62 208 62 0.402298 0.915509<30.5746 162.673 229.783 531.945>
AnchorPoint: "below" 474 0 basechar 0
AnchorPoint: "above" 504 622 basechar 0
LayerCount: 2
Fore
SplineSet
44 31 m 0
 44 60 68 62 81 62 c 0
 98 62 115 62 132 62 c 1
 346 549 l 1
 326 549 l 2
 308 549 289 554 289 581 c 0
 289 591 293 611 324 611 c 2
 839 611 l 2
 875 611 874 584 874 574 c 2
 874 489 l 2
 874 467 862 455 841 455 c 2
 840 455 l 2
 827 455 805 455 804 488 c 1
 804 549 l 1xfe
 539 549 l 1
 539 348 l 1
 684 348 l 1
 684 368 l 2
 684 382 687 404 717 404 c 2
 719 404 l 2
 730 404 754 405 754 368 c 2
 754 265 l 2
 754 247 747 229 721 229 c 2
 717 229 l 2
 684 229 684 255 684 266 c 2
 684 286 l 1
 539 286 l 1
 539 62 l 1
 833 62 l 1
 833 137 l 1xfd
 834 169 853 172 868 172 c 0
 869 172 870 172 871 172 c 0
 900 172 903 151 903 134 c 2
 903 37 l 2xfd
 903 23 903 0 866 -0 c 2
 434 -0 l 2
 426 0 398 1 398 31 c 0
 398 55 416 62 437 62 c 2
 469 62 l 1
 469 183 l 1
 261 183 l 1
 208 62 l 1
 245 62 l 2
 257 62 285 61 285 30 c 0
 285 19 280 0 248 0 c 2
 80 0 l 2
 51 0 44 16 44 31 c 0
289 244 m 1
 469 244 l 1xfc
 469 549 l 1
 422 549 l 1
 289 244 l 1
EndSplineSet
EndChar

StartChar: Ccedilla
Encoding: 199 199 245
Width: 758
Flags: HW
TeX: 610 194
HStem: -208 61<286.053 450.07> 560 62<301.412 530.263>
VStem: 58 70<210.857 400.222> 459 71<-134.105 -75.7446> 603 96<442.297 505.483> 620 79<560 605.026> 629 70<116.391 200.383>
AnchorPoint: "above" 408 622 basechar 0
LayerCount: 2
Fore
SplineSet
58 305 m 0
 58 475 208 622 408 622 c 0
 535 622 603 572 620 560 c 1
 641 608 648 622 669 622 c 0
 703 622 699 585 699 583 c 2xf4
 699 435 l 2xf2
 699 407 684 400 666 400 c 2
 665 400 l 2
 616 400 642 434 603 484 c 0xf8
 560 540 482 560 415 560 c 0
 252 560 128 442 128 306 c 0
 128 172 248 51 417 51 c 0
 527 51 623 90 629 167 c 0
 630 178 631 202 662 202 c 2
 664 202 l 2
 692 202 699 187 699 167 c 0
 699 142 688 101 655 67 c 0
 593 4 496 -5 443 -10 c 1
 505 -25 530 -68 530 -107 c 0
 530 -141 512 -167 486 -183 c 0
 461 -198 423 -208 328 -208 c 2
 322 -208 l 2xf2
 302 -208 285 -202 285 -177 c 0
 285 -149 309 -147 320 -147 c 2
 324 -147 l 1
 415 -146 459 -138 459 -107 c 0
 459 -83 433 -71 413 -68 c 0
 403 -66 372 -69 372 -34 c 0
 372 -24 373 -18 378 -10 c 1
 211 -1 58 131 58 305 c 0
EndSplineSet
EndChar

StartChar: Ecircumflex
Encoding: 202 202 248
Width: 700
Flags: HW
TeX: 819 0
HStem: -0 62<46.388 140 210 600> 286 62<210 407> 549 62<46.0176 140 210 571> 751 73<324.558 374.263>
VStem: 140 70<62 286 348 549> 407 70<230.504 286 348 402.77> 571 70<456.334 549> 600 70<62 170.679>
AnchorPoint: "below" 358 0 basechar 0
AnchorPoint: "above" 358 815 basechar 0
LayerCount: 2
Fore
SplineSet
187 697 m 0
 187 712 198 721 205 726 c 0
 339 824 336 824 350 824 c 2
 352 824 l 2
 363 824 364 821 492 727 c 0
 499 722 513 713 513 697 c 0
 513 683 496 659 477 659 c 0
 462 659 443 677 350 751 c 1
 349 751 l 1
 236 662 238 659 223 659 c 0xfc
 204 659 187 682 187 697 c 0
EndSplineSet
Refer: 115 69 S 1 0 0 1 0 -0 3
AlternateSubs2: "Stilistic set 01 subtable" Ecircumflex.vn
AlternateSubs2: "Latin alternatives subtable" Ecircumflex.vn
Substitution2: "Latin Vietnamese substitutions subtable" Ecircumflex.vn
EndChar

StartChar: Igrave
Encoding: 204 204 250
Width: 350
Flags: HW
TeX: 778 0
HStem: 0 62<41.274 139 209 306.586> 549 62<41.2656 139 209 306.805>
VStem: 139 70<62 549>
AnchorPoint: "below" 174 0 basechar 0
AnchorPoint: "above" 174 798 basechar 0
LayerCount: 2
Fore
SplineSet
60 772 m 0
 60 791 76 807 94 807 c 0
 101 807 102 806 247 757 c 0
 261 752 277 745 277 727 c 0
 277 717 270 686 244 686 c 2
 243 686 l 2
 238 686 234 688 93 736 c 0
 75 742 60 750 60 772 c 0
EndSplineSet
Refer: 119 73 S 1 0 0 1 -0 0 3
AlternateSubs2: "Stilistic set 01 subtable" Igrave.vn
AlternateSubs2: "Latin alternatives subtable" Igrave.vn
Substitution2: "Latin Vietnamese substitutions subtable" Igrave.vn
EndChar

StartChar: Icircumflex
Encoding: 206 206 252
Width: 350
Flags: HW
TeX: 819 0
HStem: 0 62<41.274 139 209 306.586> 549 62<41.2656 139 209 306.805> 751 73<149.342 199.309>
VStem: 11 326<683 712> 139 70<62 549>
AnchorPoint: "below" 174 0 basechar 0
AnchorPoint: "above" 174 815 basechar 0
LayerCount: 2
Fore
SplineSet
11 697 m 0
 11 713 24 721 32 727 c 0
 164 824 161 824 174 824 c 2
 176 824 l 2
 186 824 186 821 318 726 c 0
 325 721 337 712 337 697 c 0
 337 682 320 659 301 659 c 2
 300 659 l 2
 290 659 287 661 175 751 c 1
 174 751 l 1
 60 661 62 659 47 659 c 0xf0
 28 659 11 683 11 697 c 0
EndSplineSet
Refer: 119 73 S 1 0 0 1 0 0 3
EndChar

StartChar: Idieresis
Encoding: 207 207 253
Width: 350
Flags: HW
TeX: 819 0
HStem: -0 62<41.274 139 209 306.586> 549 62<41.2656 139 209 306.805> 719 100<30.9648 113.035 235.232 317.035>
VStem: 22 100<727.838 810.162> 139 70<62 549> 226 100<728.229 810.162>
CounterMasks: 1 1c
AnchorPoint: "below" 174 0 basechar 0
AnchorPoint: "above" 174 810 basechar 0
LayerCount: 2
Fore
SplineSet
22 769 m 0
 22 798 46 819 72 819 c 0
 98 819 122 798 122 769 c 0
 122 740 99 719 73 719 c 0
 43 719 22 742 22 769 c 0
226 769 m 0
 226 798 249 819 276 819 c 0
 302 819 326 798 326 769 c 0
 326 740 302 719 276 719 c 0
 246 719 226 744 226 769 c 0
EndSplineSet
Refer: 119 73 S 1 0 0 1 0 -0 3
EndChar

StartChar: Eth
Encoding: 208 208 254
Width: 787
Flags: HW
TeX: 610 0
HStem: 0 62<46.1094 140 210 498.217> 269 62<46.2783 140 210 434.726> 549 62<46.274 140 210 498.581>
VStem: 140 70<62 269 331 549> 658 70<205.973 393.643>
LayerCount: 2
Fore
SplineSet
45 31 m 0
 45 60 68 62 82 62 c 2
 140 62 l 1
 140 269 l 1
 78 269 l 1
 50 270 45 289 45 300 c 0
 45 329 68 331 83 331 c 2
 140 331 l 1
 140 549 l 1
 79 549 l 1
 51 550 45 567 45 580 c 0
 45 594 53 611 81 611 c 2
 400 611 l 2
 606 611 728 454 728 300 c 0
 728 137 595 17 442 2 c 0
 426 0 410 0 394 0 c 2
 80 0 l 2
 49 0 45 20 45 31 c 0
210 62 m 1
 377 62 l 2
 431 62 471 69 512 87 c 0
 582 118 658 193 658 300 c 0
 658 425 558 532 424 547 c 0
 408 549 392 549 376 549 c 2
 210 549 l 1
 210 331 l 1
 400 331 l 2
 430 331 436 312 436 300 c 0
 436 284 428 269 400 269 c 2
 210 269 l 1
 210 62 l 1
EndSplineSet
EndChar

StartChar: Ntilde
Encoding: 209 209 255
Width: 758
Flags: HW
TeX: 819 0
HStem: 0 62<53.0156 147 203 296.773> 549 62<53.375 147 461.227 554 611 703.786> 690 67<402.703 497.259> 753 66<260.177 353.744>
VStem: 147 56<62 549> 554 57<50 549>
DStem2: 258 565 203 561 0.499152 -0.866515<-22.8469 593.908>
LayerCount: 2
Fore
SplineSet
175 721 m 0
 175 741 240 819 306 819 c 0xdc
 371 819 411 757 453 757 c 0
 496 757 524 818 549 818 c 0
 564 818 582 806 582 788 c 0
 582 768 518 690 452 690 c 0xec
 387 690 346 753 305 753 c 0xdc
 260 753 234 690 207 690 c 0xec
 190 690 175 706 175 721 c 0
EndSplineSet
Refer: 124 78 S 1 0 0 1 -0 -0 3
EndChar

StartChar: Ocircumflex
Encoding: 212 212 258
Width: 816
Flags: HW
TeX: 819 0
HStem: -11 61<299.169 513.115> 560 62<292.298 522.67>
VStem: 58 70<217.629 407.741> 687 70<218.297 408.28>
AnchorPoint: "below" 408 0 basechar 0
AnchorPoint: "above" 408 804 basechar 0
LayerCount: 2
Fore
SplineSet
245 698 m 0
 245 713 257 721 264 726 c 0
 398 824 394 824 408 824 c 2
 410 824 l 2
 421 824 422 820 551 727 c 0
 558 722 571 713 571 697 c 0
 571 683 555 659 535 659 c 0
 520 659 501 677 408 751 c 1
 303 668 297 659 281 659 c 0
 262 659 245 683 245 698 c 0
EndSplineSet
Refer: 125 79 S 1 0 0 1 -0 -0 3
AlternateSubs2: "Stilistic set 01 subtable" Ocircumflex.vn
AlternateSubs2: "Latin alternatives subtable" Ocircumflex.vn
Substitution2: "Latin Vietnamese substitutions subtable" Ocircumflex.vn
EndChar

StartChar: Otilde
Encoding: 213 213 259
Width: 816
Flags: HW
TeX: 819 0
HStem: -11 61<299.169 513.115> 560 62<292.298 522.67> 690 67<431.606 526.053> 753 66<288.846 382.414>
VStem: 58 70<217.629 407.741> 687 70<218.297 408.28>
AnchorPoint: "below" 408 0 basechar 0
AnchorPoint: "above" 408 799 basechar 0
LayerCount: 2
Fore
SplineSet
204 721 m 0
 204 741 269 819 335 819 c 0xdc
 400 819 440 757 482 757 c 0
 525 757 553 818 578 818 c 0
 593 818 611 806 611 788 c 0
 611 768 546 690 481 690 c 0xec
 416 690 374 753 333 753 c 0xdc
 288 753 263 691 236 691 c 0
 219 691 204 706 204 721 c 0
EndSplineSet
Refer: 125 79 S 1 0 0 1 0 0 3
AlternateSubs2: "Stilistic set 01 subtable" Otilde.vn
AlternateSubs2: "Latin alternatives subtable" Otilde.vn
Substitution2: "Latin Vietnamese substitutions subtable" Otilde.vn
EndChar

StartChar: Odieresis
Encoding: 214 214 260
Width: 816
Flags: HW
TeX: 819 0
HStem: -11 61<299.169 513.115> 560 62<292.298 522.67> 719 100<265.526 347.035 468.648 550.407>
VStem: 58 70<217.629 407.741> 256 100<728.229 809.771> 460 100<728.232 809.474> 687 70<218.297 408.28>
AnchorPoint: "below" 408 0 basechar 0
AnchorPoint: "above" 408 799 basechar 0
LayerCount: 2
Fore
SplineSet
256 769 m 0
 256 794 277 819 306 819 c 0
 332 819 356 798 356 769 c 0
 356 740 332 719 306 719 c 0
 276 719 256 744 256 769 c 0
460 769 m 0
 460 798 483 819 509 819 c 0
 539 819 560 794 560 769 c 0
 560 739 535 719 510 719 c 0
 480 719 460 742 460 769 c 0
EndSplineSet
Refer: 125 79 S 1 0 0 1 -0 -0 3
EndChar

StartChar: OE
Encoding: 338 338 261
Width: 1050
Flags: HW
TeX: 610 0
HStem: -11 61<301.009 497.041> -0 62<594 950> 286 62<594 816> 549 62<594 921> 561 61<295.812 496.685>
VStem: 58 70<216.944 406.188> 524 70<77.001 286 348 534.279> 816 69<230.504 286 348 402.829> 921 69<456.189 549> 950 70<62 170.564>
AnchorPoint: "above" 559 622 basechar 0
LayerCount: 2
Fore
SplineSet
58 305 m 0
 58 475 210 622 407 622 c 0xaf40
 462 622 497 611 572 611 c 2
 955 611 l 2
 989 611 991 590 991 573 c 0
 991 571 990 570 990 568 c 2
 990 497 l 2x3780
 990 482 991 455 958 455 c 2
 954 455 l 2
 943 455 920 456 920 491 c 0
 920 494 921 496 921 499 c 2
 921 549 l 1x3780
 594 549 l 1
 594 348 l 1
 816 348 l 1
 816 368 l 2
 816 383 818 404 848 404 c 2
 851 404 l 2
 862 404 885 405 885 368 c 2
 885 265 l 2
 885 247 878 229 852 229 c 0
 851 229 850 229 849 229 c 0
 816 229 816 255 816 266 c 2
 816 286 l 1
 594 286 l 1
 594 62 l 1
 950 62 l 1
 950 135 l 2
 950 155 957 172 983 172 c 2
 987 172 l 2
 1005 172 1021 163 1020 136 c 1
 1020 37 l 2
 1020 2 999 0 983 -0 c 2
 574 -0 l 2x7740
 498 0 463 -11 407 -11 c 0
 211 -11 58 135 58 305 c 0
128 316 m 0
 128 186 235 50 413 50 c 0
 453 50 503 48 518 112 c 0
 524 139 524 170 524 201 c 2
 524 402 l 2
 524 444 527 512 497 540 c 0
 478 558 447 561 420 561 c 0xaf
 223 561 128 430 128 316 c 0
EndSplineSet
EndChar

StartChar: Oslash
Encoding: 216 216 262
Width: 816
Flags: HW
TeX: 666 55
HStem: -11 61<288.592 522.409> 560 62<292.424 526.106>
VStem: 58 57<210.695 396.74> 701 57<212.874 399.886>
DStem2: 191 57 180 -63 0.583474 0.812132<-133.018 0 66.5475 588.914 656.857 788.476>
LayerCount: 2
Fore
SplineSet
58 305 m 0
 58 475 210 622 408 622 c 0
 470 622 526 607 571 585 c 1
 577 594 584 604 635 675 c 0
 642 684 651 696 666 696 c 0
 679 696 697 683 697 665 c 0
 697 651 685 638 625 554 c 1
 705 498 758 405 758 306 c 0
 758 139 610 -11 407 -11 c 0
 342 -11 289 4 244 25 c 1
 238 16 231 8 180 -63 c 0
 173 -72 165 -85 150 -85 c 0
 138 -85 118 -74 118 -55 c 0
 118 -41 127 -32 191 57 c 1
 130 99 58 186 58 305 c 0
115 305 m 0
 115 225 158 152 226 105 c 1
 535 535 l 1
 499 550 458 560 408 560 c 0
 239 560 115 440 115 305 c 0
280 75 m 1
 316 61 357 50 408 50 c 0
 569 50 701 163 701 305 c 0
 701 346 690 431 590 505 c 1
 589 505 l 1
 280 75 l 1
EndSplineSet
EndChar

StartChar: Ucircumflex
Encoding: 219 219 265
Width: 758
Flags: HW
TeX: 819 0
HStem: -11 62<294.938 464.797> 549 62<46.1619 140 210 302.724 454.227 547 618 710.612> 751 73<351.5 403.263>
VStem: 140 70<129.461 549> 547 71<131.609 549>
AnchorPoint: "below" 378 0 basechar 0
AnchorPoint: "above" 378 815 basechar 0
LayerCount: 2
Fore
SplineSet
216 697 m 0
 216 712 227 721 234 726 c 0
 368 824 365 824 379 824 c 2
 381 824 l 2
 392 824 393 821 521 727 c 0
 528 722 542 713 542 697 c 0
 542 683 525 659 506 659 c 0
 491 659 472 677 379 751 c 1
 378 751 l 1
 273 668 268 659 252 659 c 0
 233 659 216 682 216 697 c 0
EndSplineSet
Refer: 131 85 S 1 0 0 1 -0 -0 3
EndChar

StartChar: Udieresis
Encoding: 220 220 266
Width: 758
Flags: HW
TeX: 819 0
HStem: -11 62<294.938 464.797> 549 62<46.1619 140 210 302.724 454.227 547 618 710.612> 719 100<236.232 317.035 439.965 521.407>
VStem: 140 70<129.461 549> 227 99<727.838 809.771> 431 100<728.229 809.474> 547 71<131.609 549>
AnchorPoint: "below" 378 0 basechar 0
AnchorPoint: "above" 378 810 basechar 0
LayerCount: 2
Fore
SplineSet
227 769 m 0
 227 794 247 819 276 819 c 0
 302 819 326 798 326 769 c 0
 326 740 303 719 277 719 c 0
 247 719 227 745 227 769 c 0
431 769 m 0
 431 798 454 819 480 819 c 0
 510 819 531 793 531 769 c 0
 531 744 510 719 481 719 c 0
 455 719 431 740 431 769 c 0
EndSplineSet
Refer: 131 85 S 1 0 0 1 0 0 3
EndChar

StartChar: Thorn
Encoding: 222 222 268
Width: 642
Flags: HW
TeX: 610 0
HStem: -0 62<46.0156 140 210 302.861> 159 61<210 435.817> 445 62<210 443.526> 549 62<46.3191 140 210 302.724>
VStem: 140 70<62 159 220 445 507 549> 512 70<279.358 388.998>
LayerCount: 2
Fore
SplineSet
45 31 m 0
 45 60 68 62 82 62 c 2
 140 62 l 1
 140 549 l 1
 83 549 l 2
 64 549 45 554 45 580 c 0
 45 594 53 611 81 611 c 2
 268 611 l 2
 297 611 304 594 304 580 c 0
 304 551 281 549 267 549 c 2
 210 549 l 1
 210 507 l 1
 363 507 l 2
 497 507 582 420 582 333 c 0
 582 264 522 159 351 159 c 2
 210 159 l 1
 210 62 l 1
 267 62 l 2
 278 62 304 61 304 31 c 0
 304 19 299 0 268 -0 c 2
 81 -0 l 2
 52 0 45 16 45 31 c 0
210 220 m 1
 323 220 l 2
 467 220 512 290 512 333 c 0
 512 395 439 445 350 445 c 2
 210 445 l 1
 210 220 l 1
EndSplineSet
EndChar

StartChar: Germandbls
Encoding: 61699 61699 269
Width: 1166
Flags: HW
TeX: 610 0
HStem: -11 61<198.875 400.517 782.673 982.748> 560 62<176.775 358.99 759.13 941.99>
VStem: 58 66<-7.73243 37 410.663 512.872> 428 67<409.334 489.134 572 618.265> 458 66<102.747 218.949> 641 66<-7.73243 37 410.663 512.488> 1011 67<409.334 489.134 572 618.265> 1041 66<103.661 219.297>
DStem2: 218 369 185 305 0.968277 -0.249878<-79.4721 251.196> 801 369 768 305 0.968277 -0.249878<-79.4721 250.52>
LayerCount: 2
Fore
SplineSet
641 27 m 2
 641 167 l 2
 641 189 649 203 676 203 c 0
 736 203 688 150 741 98 c 0
 782 57 860 50 899 50 c 0
 990 50 1041 109 1041 161 c 0
 1041 200 1014 240 965 260 c 0
 934 273 805 293 768 305 c 0
 714 322 641 372 641 459 c 0
 641 543 724 622 847 622 c 0
 944 622 993 584 1009 572 c 1
 1018 604 1024 622 1048 622 c 0xe5
 1072 622 1078 605 1078 584 c 2
 1078 443 l 2
 1078 415 1063 408 1044 408 c 2
 1043 408 l 2
 1032 408 1019 409 1011 425 c 0xe6
 1004 440 1003 560 847 560 c 0
 756 560 707 506 707 462 c 0
 707 425 739 385 801 369 c 0
 853 356 942 341 976 330 c 0
 1060 302 1107 234 1107 166 c 0
 1107 76 1027 -11 901 -11 c 0
 786 -11 732 22 709 37 c 1
 701 10 696 -11 671 -11 c 0
 647 -11 641 6 641 27 c 2
EndSplineSet
Refer: 129 83 S 1 0 0 1 0 0 2
EndChar

StartChar: aacute
Encoding: 225 225 271
Width: 510
Flags: HW
TeX: 610 0
HStem: -5 61<151.176 313.429> -0 69<413.869 505.235> 217 60<196.362 343> 320 114<99.2382 160.025> 377 62<166 304.25>
VStem: 52 70<83.8157 169.127> 78 88<326.329 374.652> 343 70<82.831 217 277 340.027>
AnchorPoint: "below" 220 0 basechar 0
AnchorPoint: "above" 220 619 basechar 0
LayerCount: 2
Fore
SplineSet
144 546 m 0
 144 567 163 573 174 578 c 0
 305 635 312 639 323 639 c 0
 340 639 357 625 357 604 c 0
 357 582 339 573 327 568 c 0
 183 505 187 506 177 506 c 0x21
 155 506 144 532 144 546 c 0
EndSplineSet
Refer: 143 97 S 1 0 0 1 0 -0 3
AlternateSubs2: "Stilistic set 01 subtable" aacute.vn
AlternateSubs2: "Latin alternatives subtable" aacute.vn
Substitution2: "Latin Vietnamese substitutions subtable" aacute.vn
EndChar

StartChar: atilde
Encoding: 227 227 273
Width: 510
Flags: HW
TeX: 638 0
HStem: -5 61<151.176 313.429> 0 69<413.869 505.235> 217 60<196.362 343> 320 114<99.2382 160.025> 377 62<166 304.25> 491 66<279.987 356.161> 544 67<167.847 243.62>
VStem: 52 70<83.8157 169.127> 78 88<326.329 374.652> 343 70<82.831 217 277 340.027>
AnchorPoint: "below" 220 0 basechar 0
AnchorPoint: "above" 220 591 basechar 0
LayerCount: 2
Fore
SplineSet
88 523 m 0
 88 536 96 544 104 551 c 0
 159 602 192 611 214 611 c 0x2240
 268 611 288 557 313 557 c 0
 346 557 382 610 404 610 c 0
 420 610 436 596 436 579 c 0
 436 566 427 558 420 551 c 0
 398 530 353 491 309 491 c 0x2440
 255 491 237 544 211 544 c 0x2240
 179 544 142 491 119 491 c 0x2440
 100 491 88 509 88 523 c 0
EndSplineSet
Refer: 143 97 S 1 0 0 1 0 0 3
AlternateSubs2: "Stilistic set 01 subtable" atilde.vn
AlternateSubs2: "Latin alternatives subtable" atilde.vn
Substitution2: "Latin Vietnamese substitutions subtable" atilde.vn
EndChar

StartChar: aring
Encoding: 229 229 275
Width: 510
Flags: HW
TeX: 638 0
HStem: -5 61<151.176 313.429> -0 69<413.869 505.235> 217 60<196.362 343> 320 114<99.2382 160.025> 377 62<166 304.25> 473 36<190.093 276.206> 612 35<189.846 274.635>
VStem: 52 70<83.8157 169.127> 78 88<326.329 374.652> 116 59<521.22 600.367> 290 59<520.02 600.741> 343 70<82.831 217 277 340.027>
LayerCount: 2
Fore
SplineSet
116 560 m 0
 116 608 168 647 233 647 c 0
 294 647 349 611 349 560 c 0
 349 520 306 473 232 473 c 0
 170 473 116 510 116 560 c 0
175 561 m 0
 175 528 206 509 233 509 c 0
 268 509 290 534 290 560 c 0x2660
 290 585 269 612 233 612 c 0
 195 612 175 584 175 561 c 0
EndSplineSet
Refer: 143 97 S 1 0 0 1 0 -0 3
EndChar

StartChar: ae
Encoding: 230 230 276
Width: 758
Flags: HW
TeX: 430 0
HStem: -5 61<146.802 319.529 495.078 631.311> 191 61<192.052 344 417 657> 377 62<166.652 306.448 481.792 612.122>
VStem: 52 70<79.5166 147.819> 78 88<326.355 373.876> 349 67<133.074 189> 657 71<79.5842 135.108 252 327.571>
AnchorPoint: "below" 390 0 basechar 0
AnchorPoint: "above" 372 440 basechar 0
LayerCount: 2
Fore
SplineSet
52 119 m 0xf6
 52 223 222 249 344 250 c 1
 344 278 l 1
 345 349 288 377 225 377 c 0
 189 377 172 374 166 373 c 1
 166 366 l 2xee
 166 339 146 320 122 320 c 0xf6
 100 320 78 337 78 366 c 0xee
 78 424 139 439 228 439 c 0
 327 439 375 388 392 360 c 1
 412 382 461 439 552 439 c 0
 669 439 728 343 728 227 c 0
 728 194 708 191 693 191 c 2
 416 191 l 1
 433 96 513 56 571 56 c 0
 616 56 645 82 657 110 c 0
 660 117 664 137 692 137 c 0
 708 137 727 133 728 110 c 1
 727 75 676 -5 566 -5 c 0
 498 -5 444 22 397 72 c 1
 367 13 283 -5 213 -5 c 0
 109 -5 52 58 52 119 c 0xf6
122 119 m 0xf6
 122 86 161 56 221 56 c 0
 290 56 321 77 336 89 c 1
 345 101 349 108 349 124 c 0
 349 137 347 170 345 189 c 1
 172 184 122 147 122 119 c 0xf6
417 252 m 1
 657 252 l 1
 648 353 593 377 551 377 c 0xe6
 496 377 435 337 417 252 c 1
EndSplineSet
EndChar

StartChar: ccedilla
Encoding: 231 231 277
Width: 467
Flags: HW
TeX: 430 194
HStem: -208 58<139.825 300.038> -2 59<192.259 226 296 340.603> 377 62<189.777 335.014>
VStem: 43 70<136.942 299.419> 313 71<-133.712 -76.8887> 336 89<326.556 372.925> 362 74<79.8319 134.094>
AnchorPoint: "above" 271 440 basechar 0
LayerCount: 2
Fore
SplineSet
43 215 m 0
 43 331 132 439 265 439 c 2
 277 439 l 2
 338 439 425 432 425 367 c 0
 425 342 407 320 380 320 c 0
 358 320 336 338 336 365 c 2
 336 373 l 1xf4
 315 376 292 377 269 377 c 0
 164 377 113 291 113 216 c 0
 113 133 176 57 271 57 c 0
 315 57 347 76 362 104 c 0
 370 120 371 137 401 137 c 0
 433 137 436 115 436 110 c 0xf2
 436 97 415 16 296 -3 c 1
 296 -10 l 1
 336 -20 384 -50 384 -107 c 0
 384 -139 368 -164 344 -180 c 0
 305 -206 247 -208 186 -208 c 2
 175 -208 l 2
 143 -208 139 -189 139 -178 c 0
 139 -169 141 -157 156 -150 c 0
 176 -140 313 -158 313 -107 c 0xf8
 313 -91 298 -73 267 -68 c 0
 244 -65 226 -68 226 -25 c 2
 226 -2 l 1
 109 18 43 117 43 215 c 0
EndSplineSet
EndChar

StartChar: eacute
Encoding: 233 233 279
Width: 466
Flags: HW
TeX: 610 0
HStem: -5 61<189.528 335.985> 191 61<110 365> 377 62<176.841 316.146>
VStem: 365 71<82.6808 135.328 252 323.362>
AnchorPoint: "below" 263 0 basechar 0
AnchorPoint: "above" 248 619 basechar 0
LayerCount: 2
Fore
SplineSet
115 546 m 0
 115 567 133 573 144 578 c 0
 275 635 282 639 293 639 c 0
 310 639 327 625 327 604 c 0
 327 582 309 573 297 568 c 0
 153 505 158 506 148 506 c 0
 126 506 115 532 115 546 c 0
EndSplineSet
Refer: 147 101 S 1 0 0 1 0 -0 3
AlternateSubs2: "Stilistic set 01 subtable" eacute.vn
AlternateSubs2: "Latin alternatives subtable" eacute.vn
Substitution2: "Latin Vietnamese substitutions subtable" eacute.vn
EndChar

StartChar: ecircumflex
Encoding: 234 234 280
Width: 466
Flags: HW
TeX: 638 0
HStem: -5 61<189.528 335.985> 191 61<110 365> 377 62<176.841 316.146> 568 76<197.716 267.598>
VStem: 365 71<82.6808 135.328 252 323.362>
AnchorPoint: "below" 263 0 basechar 0
AnchorPoint: "above" 248 624 basechar 0
LayerCount: 2
Fore
SplineSet
70 527 m 0
 70 543 81 550 92 557 c 0
 217 640 220 644 232 644 c 2
 233 644 l 2
 243 644 244 642 372 557 c 0
 378 553 395 545 395 526 c 0
 395 514 380 488 360 488 c 2
 358 488 l 2
 337 488 247 568 232 568 c 0
 225 568 219 562 201 549 c 0
 130 498 119 488 105 488 c 0
 85 488 70 513 70 527 c 0
EndSplineSet
Refer: 147 101 S 1 0 0 1 -0 -0 3
AlternateSubs2: "Stilistic set 01 subtable" ecircumflex.vn
AlternateSubs2: "Latin alternatives subtable" ecircumflex.vn
Substitution2: "Latin Vietnamese substitutions subtable" ecircumflex.vn
EndChar

StartChar: edieresis
Encoding: 235 235 281
Width: 466
Flags: HW
TeX: 610 0
HStem: -5 61<189.528 335.985> 191 61<110 365> 377 62<176.841 316.146> 511 100<89.3961 171.035 293.232 375.162>
VStem: 80 100<519.912 601.474> 284 100<519.438 601.982> 365 71<82.6808 135.328 252 323.362>
AnchorPoint: "below" 263 0 basechar 0
AnchorPoint: "above" 248 591 basechar 0
LayerCount: 2
Fore
SplineSet
80 560 m 0
 80 588 103 611 130 611 c 0
 156 611 180 590 180 561 c 0
 180 534 159 511 130 511 c 0
 100 511 80 535 80 560 c 0
284 560 m 0
 284 587 306 611 334 611 c 0
 364 611 384 587 384 561 c 0
 384 533 363 511 334 511 c 0xfc
 304 511 284 535 284 560 c 0
EndSplineSet
Refer: 147 101 S 1 0 0 1 0 -0 3
EndChar

StartChar: igrave
Encoding: 236 236 282
Width: 292
Flags: HW
TeX: 610 0
HStem: -0 62<18.0156 111 181 264.719> 369 61<22.1667 111>
VStem: 111 70<62 369>
AnchorPoint: "below" 146 0 basechar 0
AnchorPoint: "above" 146 628 basechar 0
LayerCount: 2
Fore
SplineSet
-7 604 m 0
 -7 625 10 639 27 639 c 2
 29 639 l 2
 38 639 40 637 178 577 c 0
 189 572 206 565 206 547 c 0
 206 541 199 506 173 506 c 2
 171 506 l 2
 163 506 162 508 24 568 c 0
 8 575 -7 583 -7 604 c 0
17 31 m 0
 17 59 40 62 54 62 c 2
 111 62 l 1
 111 369 l 1
 55 369 l 1
 32 370 21 384 21 399 c 0
 21 428 47 430 57 430 c 2
 145 430 l 2
 159 430 181 429 181 394 c 2
 181 62 l 1
 229 62 l 2
 261 62 266 42 266 31 c 0
 266 17 259 0 230 -0 c 2
 53 -0 l 2
 34 0 17 6 17 31 c 0
EndSplineSet
AlternateSubs2: "Stilistic set 01 subtable" igrave.vn
AlternateSubs2: "Latin alternatives subtable" igrave.vn
Substitution2: "Latin Vietnamese substitutions subtable" igrave.vn
Ligature2: "Latin ligatures excepting Turkic subtable" i gravecomb
EndChar

StartChar: iacute
Encoding: 237 237 283
Width: 291
Flags: HW
TeX: 610 0
ItalicCorrection: 8
HStem: 0 62<17.0156 110 180 263.673> 369 61<21.1667 110>
VStem: 110 70<62 369>
AnchorPoint: "below" 146 0 basechar 0
AnchorPoint: "above" 146 628 basechar 0
LayerCount: 2
Fore
SplineSet
56 546 m 0
 56 565 71 572 86 578 c 0
 216 635 224 639 234 639 c 0
 255 639 269 622 269 604 c 0
 269 583 254 575 239 568 c 0
 93 504 100 506 90 506 c 0
 63 506 56 540 56 546 c 0
EndSplineSet
Refer: 71 305 S 1 0 0 1 -0 0 3
AlternateSubs2: "Stilistic set 01 subtable" iacute.vn
AlternateSubs2: "Latin alternatives subtable" iacute.vn
Substitution2: "Latin Vietnamese substitutions subtable" iacute.vn
Ligature2: "Cyrillic ligatures subtable" afii10103 acutecomb
Ligature2: "Latin ligatures excepting Turkic subtable" i acutecomb
EndChar

StartChar: icircumflex
Encoding: 238 238 284
Width: 292
Flags: HW
TeX: 638 0
HStem: -0 62<18.0156 111 181 264.838> 369 61<23.0938 111> 568 76<111.67 181.792>
VStem: 111 70<62 369>
AnchorPoint: "below" 146 0 basechar 0
AnchorPoint: "above" 146 633 basechar 0
LayerCount: 2
Fore
SplineSet
-16 527 m 0
 -16 543 -4 550 6 557 c 0
 131 640 134 644 146 644 c 2
 147 644 l 2
 157 644 158 642 287 557 c 0
 293 553 309 545 309 526 c 0
 309 515 295 488 274 488 c 2
 272 488 l 2
 251 488 162 568 146 568 c 0
 139 568 133 562 115 549 c 0
 43 498 33 488 19 488 c 0
 -2 488 -16 515 -16 527 c 0
17 31 m 0
 17 59 40 62 54 62 c 2
 111 62 l 1
 111 369 l 1
 55 369 l 1
 32 370 22 384 22 399 c 0
 22 428 47 430 57 430 c 2
 146 430 l 2
 160 430 181 429 181 394 c 2
 181 62 l 1
 230 62 l 2
 262 62 266 42 266 31 c 0
 266 16 259 0 230 -0 c 2
 53 -0 l 2
 34 0 17 6 17 31 c 0
EndSplineSet
Ligature2: "Latin ligatures excepting Turkic subtable" i uni0302
EndChar

StartChar: idieresis
Encoding: 239 239 285
Width: 350
Flags: HW
TeX: 610 0
HStem: 0 62<46.0156 139 209 292.673> 369 61<50.1667 139> 511 100<30.9648 112.474 235.526 317.035>
VStem: 22 100<520.229 602.035> 139 70<62 369> 226 100<519.838 601.771>
CounterMasks: 1 1c
AnchorPoint: "above" 174 591 basechar 0
LayerCount: 2
Fore
SplineSet
22 561 m 0
 22 590 46 611 72 611 c 0
 102 611 122 587 122 561 c 0
 122 536 101 511 72 511 c 0
 46 511 22 532 22 561 c 0
226 561 m 0
 226 586 247 611 276 611 c 0
 302 611 326 590 326 561 c 0
 326 532 302 511 276 511 c 0
 246 511 226 537 226 561 c 0
EndSplineSet
Refer: 71 305 S 1 0 0 1 29 0 2
Ligature2: "Latin ligatures excepting Turkic subtable" i uni0308
EndChar

StartChar: eth
Encoding: 240 240 286
Width: 525
Flags: HW
TeX: 610 0
HStem: -5 61<186.377 334.868> 377 62<185.753 337.793> 484 103<202.163 296.736> 553 63<49.6693 199.966>
VStem: 37 70<140.146 301.051> 416 70<140.706 296.092>
LayerCount: 2
Fore
SplineSet
37 215 m 0
 37 332 131 439 262 439 c 0
 309 439 342 426 378 406 c 1
 349 454 317 481 276 509 c 1
 240 489 235 484 224 484 c 0xec
 209 484 192 500 192 519 c 0
 192 527 194 534 201 542 c 1
 179 548 153 553 126 553 c 0
 95 553 83 549 73 549 c 0
 56 549 44 563 44 577 c 0
 44 611 94 616 132 616 c 0xdc
 210 616 264 587 273 587 c 0xec
 287 587 309 610 329 610 c 0
 346 610 360 590 360 574 c 0
 360 562 352 553 340 547 c 1
 477 444 486 320 486 266 c 2
 486 223 l 1
 488 82 375 -5 261 -5 c 0
 133 -5 37 97 37 215 c 0
107 223 m 0
 107 130 178 56 261 56 c 0
 355 56 416 143 416 219 c 0
 416 297 353 377 261 377 c 0xcc
 183 377 107 315 107 223 c 0
EndSplineSet
EndChar

StartChar: ntilde
Encoding: 241 241 287
Width: 583
Flags: HW
TeX: 638 0
HStem: -0 62<17.0156 111 181 273.861 309.208 402 472 564.909> 369 61<17.1072 111 236.88 388.76> 491 66<309.383 385.657> 544 67<196.479 273.365>
VStem: 111 70<62 314.713> 402 70<62 356.239>
LayerCount: 2
Fore
SplineSet
117 523 m 0
 117 536 126 544 134 551 c 0
 189 602 222 611 244 611 c 0xdc
 299 611 315 557 342 557 c 0
 374 557 412 610 434 610 c 0
 449 610 465 597 465 579 c 0
 465 566 457 558 450 551 c 0
 428 530 383 491 339 491 c 0xec
 285 491 266 544 240 544 c 0xdc
 208 544 171 491 148 491 c 0xec
 129 491 117 509 117 523 c 0
EndSplineSet
Refer: 156 110 S 1 0 0 1 -0 -0 3
EndChar

StartChar: oacute
Encoding: 243 243 289
Width: 525
Flags: HW
TeX: 610 0
HStem: -5 61<186.529 334.36> 377 62<182.528 339.41>
VStem: 37 70<139.994 300.655> 416 70<140.607 302.316>
AnchorPoint: "below" 262 0 basechar 0
AnchorPoint: "above" 262 619 basechar 0
LayerCount: 2
Fore
SplineSet
144 546 m 0
 144 567 162 573 173 578 c 0
 304 635 311 639 322 639 c 0
 339 639 356 625 356 604 c 0
 356 582 338 573 326 568 c 0
 182 505 187 506 177 506 c 0
 155 506 144 532 144 546 c 0
EndSplineSet
Refer: 157 111 S 1 0 0 1 0 -0 3
AlternateSubs2: "Stilistic set 01 subtable" oacute.vn
AlternateSubs2: "Latin alternatives subtable" oacute.vn
Substitution2: "Latin Vietnamese substitutions subtable" oacute.vn
EndChar

StartChar: otilde
Encoding: 245 245 291
Width: 525
Flags: HW
TeX: 638 0
HStem: -5 61<186.529 334.36> 377 62<182.528 339.41> 491 66<279.637 355.865> 544 67<167.551 243.27>
VStem: 37 70<139.994 300.655> 416 70<140.607 302.316>
AnchorPoint: "below" 262 0 basechar 0
AnchorPoint: "above" 262 591 basechar 0
LayerCount: 2
Fore
SplineSet
87 523 m 0
 87 536 96 544 104 551 c 0
 159 602 192 611 214 611 c 0xdc
 268 611 287 557 312 557 c 0
 345 557 382 610 404 610 c 0
 420 610 436 596 436 579 c 0
 436 566 427 558 420 551 c 0
 398 530 353 491 309 491 c 0xec
 255 491 236 544 210 544 c 0xdc
 178 544 142 491 119 491 c 0xec
 100 491 87 509 87 523 c 0
EndSplineSet
Refer: 157 111 S 1 0 0 1 0 0 3
AlternateSubs2: "Stilistic set 01 subtable" otilde.vn
AlternateSubs2: "Latin alternatives subtable" otilde.vn
Substitution2: "Latin Vietnamese substitutions subtable" otilde.vn
EndChar

StartChar: oe
Encoding: 339 339 293
Width: 816
Flags: HW
TeX: 430 0
HStem: -5 61<183.681 325.539 552.31 688.05> 191 61<475 715> 377 62<180.704 328.205 540.339 670.451>
VStem: 37 70<138.717 300.808> 714 71<80.6094 134.923 252 327.246>
AnchorPoint: "below" 412 0 basechar 0
AnchorPoint: "above" 430 440 basechar 0
LayerCount: 2
Fore
SplineSet
37 216 m 0
 37 344 139 439 254 439 c 0
 341 439 405 387 435 339 c 1
 436 339 l 1
 476 403 540 439 609 439 c 0
 727 439 786 343 786 226 c 0
 786 193 765 191 750 191 c 2
 473 191 l 1
 490 97 571 56 629 56 c 0
 672 56 702 82 714 110 c 0
 719 121 722 137 751 137 c 0
 775 137 785 127 785 110 c 0
 785 75 732 -5 623 -5 c 0
 549 -5 477 33 437 96 c 1
 436 96 l 1
 406 46 342 -5 254 -5 c 0
 136 -5 37 92 37 216 c 0
107 223 m 0
 107 127 176 56 254 56 c 0
 331 56 401 127 401 223 c 0
 401 314 330 377 254 377 c 0
 178 377 107 313 107 223 c 0
475 252 m 1
 715 252 l 1
 704 356 651 377 609 377 c 0
 555 377 493 338 475 252 c 1
EndSplineSet
EndChar

StartChar: oslash
Encoding: 248 248 294
Width: 525
Flags: HW
TeX: 541 111
HStem: -5 61<210.654 341.8> 377 62<183.55 314.218>
VStem: 44 57<136.839 293.802> 423 56<137.753 296.032>
DStem2: 126 43 179 11 0.501926 0.864911<-174.093 2.75566 61.1898 375.75 433.776 608.049>
LayerCount: 2
Fore
SplineSet
42 -110 m 0
 42 -100 43 -100 126 43 c 1
 72 85 44 150 44 215 c 0
 44 341 144 439 262 439 c 0
 300 439 322 430 346 422 c 1
 352 434 360 445 415 541 c 0
 423 554 429 571 449 571 c 0
 463 571 481 559 481 541 c 0
 481 521 431 451 399 389 c 1
 452 345 479 280 479 215 c 0
 479 90 379 -5 262 -5 c 0
 234 -5 205 0 179 11 c 1
 93 -138 96 -140 75 -140 c 0
 60 -140 42 -129 42 -110 c 0
101 215 m 0
 101 175 115 131 157 95 c 1
 315 368 l 1
 300 373 283 377 262 377 c 0
 178 377 101 310 101 215 c 0
210 65 m 1
 225 60 243 56 261 56 c 0
 354 56 423 131 423 215 c 0
 423 275 394 312 369 337 c 1
 368 337 l 1
 210 65 l 1
EndSplineSet
EndChar

StartChar: uacute
Encoding: 250 250 296
Width: 583
Flags: HW
TeX: 610 0
HStem: -5 61<192.735 357.709 472 563.619> 369 61<17.1514 111 308.428 402>
VStem: 111 70<69.2363 369> 402 70<95.174 369>
AnchorPoint: "below" 291 0 basechar 0
AnchorPoint: "above" 291 628 basechar 0
LayerCount: 2
Fore
SplineSet
174 546 m 0
 174 567 192 573 203 578 c 0
 334 635 341 639 352 639 c 0
 369 639 386 625 386 604 c 0
 386 582 368 573 356 568 c 0
 212 505 217 506 207 506 c 0
 185 506 174 532 174 546 c 0
EndSplineSet
Refer: 163 117 S 1 0 0 1 0 -0 3
AlternateSubs2: "Stilistic set 01 subtable" uacute.vn
AlternateSubs2: "Latin alternatives subtable" uacute.vn
Substitution2: "Latin Vietnamese substitutions subtable" uacute.vn
EndChar

StartChar: udieresis
Encoding: 252 252 298
Width: 583
Flags: HW
TeX: 610 0
HStem: -5 61<192.735 357.709 472 563.619> 369 61<17.1514 111 308.428 402> 511 100<147.965 229.771 352.593 434.035>
VStem: 111 70<69.2363 369> 139 100<520.117 601.474> 343 100<519.912 601.474> 402 70<95.174 369>
AnchorPoint: "below" 291 0 basechar 0
AnchorPoint: "above" 291 600 basechar 0
LayerCount: 2
Fore
SplineSet
139 561 m 0
 139 590 162 611 189 611 c 0
 214 611 239 590 239 561 c 0xe8
 239 533 218 511 189 511 c 0
 163 511 139 532 139 561 c 0
343 560 m 0
 343 588 366 611 393 611 c 0
 419 611 443 590 443 561 c 0
 443 532 420 511 394 511 c 0xe4
 364 511 343 535 343 560 c 0
EndSplineSet
Refer: 163 117 S 1 0 0 1 0 -0 3
EndChar

StartChar: yacute
Encoding: 253 253 299
Width: 554
Flags: HW
TeX: 610 222
ItalicCorrection: 14
HStem: -227 61<103.17 183.477> 369 61<29.1387 110 171 247.98 307.135 387 439.947 526.138>
VStem: 20 86<-162.719 -107.701>
DStem2: 171 369 110 369 0.377214 -0.926126<0 321.046> 259 -2 299 -62 0.324773 0.945792<-89.7091 26.4632 77.8402 392.46>
AnchorPoint: "below" 274 -222 basechar 0
AnchorPoint: "above" 283 628 basechar 0
LayerCount: 2
Fore
SplineSet
217 546 m 0
 217 567 236 573 247 578 c 0
 378 635 385 639 396 639 c 0
 413 639 430 625 430 604 c 0
 430 582 412 573 400 568 c 0
 256 505 260 506 250 506 c 0
 228 506 217 532 217 546 c 0
EndSplineSet
Refer: 167 121 S 1 0 0 1 0 -0 3
AlternateSubs2: "Stilistic set 01 subtable" yacute.vn
AlternateSubs2: "Latin alternatives subtable" yacute.vn
Substitution2: "Latin Vietnamese substitutions subtable" yacute.vn
EndChar

StartChar: thorn
Encoding: 254 254 300
Width: 583
Flags: HW
TeX: 610 222
HStem: -222 62<17.0156 111 181 273.861> -5 61<243.431 387.185> 374 62<242.024 393.779> 549 62<17.3152 111>
VStem: 111 70<-160 53 122.927 318.606 382 549> 469 70<135.729 297.485>
LayerCount: 2
Fore
SplineSet
16 -191 m 0
 16 -162 39 -160 53 -160 c 2
 111 -160 l 1
 111 549 l 1
 51 549 l 2
 23 549 16 567 16 580 c 0
 16 591 20 611 53 611 c 2
 144 611 l 2
 183 611 181 585 181 572 c 2
 181 382 l 1
 220 415 267 436 325 436 c 0
 443 436 539 339 539 216 c 0
 539 94 437 -5 314 -5 c 0
 254 -5 212 21 181 53 c 1
 181 -160 l 1
 238 -160 l 2
 249 -160 275 -161 275 -191 c 0
 275 -203 270 -222 239 -222 c 2
 52 -222 l 2
 23 -222 16 -206 16 -191 c 0
181 191 m 2
 181 146 223 56 309 56 c 0
 390 56 469 121 469 215 c 0
 469 296 409 374 320 374 c 0
 244 374 181 318 181 266 c 2
 181 191 l 2
EndSplineSet
EndChar

StartChar: germandbls
Encoding: 223 223 301
Width: 525
Flags: HW
TeX: 610 0
HStem: -5 61<18.478 110 323.08 410.83> 369 61<17.0183 110> 555 61<198.504 378.672>
VStem: 16 164<1.54675 60.3323 370.494 428.497> 110 70<62 369 430 535.95> 238 62<273.187 366.204> 239 83<57.5573 158.071> 395 71<445.976 538.722> 427 62<71.8415 174.469>
LayerCount: 2
Fore
SplineSet
16 30 m 0xf0
 16 45 23 62 51 62 c 2
 110 62 l 1
 110 369 l 1xe8
 53 369 l 2
 39 369 16 371 16 399 c 0xf0
 16 413 22 429 49 430 c 1
 110 430 l 1
 110 501 l 2
 110 547 132 616 287 616 c 0
 438 616 466 549 466 505 c 0
 466 443 434 381 357 377 c 0
 339 376 332 377 314 365 c 1
 304 350 300 340 300 322 c 0xed
 300 257 356 263 391 253 c 0
 441 239 489 194 489 125 c 0
 489 47 437 -5 354 -5 c 0
 331 -5 316 -1 296 10 c 1
 293 5 285 -5 269 -5 c 0
 258 -5 239 -2 239 30 c 2
 239 131 l 1
 238 164 259 167 274 167 c 2xe280
 276 167 l 2
 319 167 303 126 322 80 c 0
 330 62 340 56 355 56 c 0
 387 56 427 70 427 125 c 0xe280
 427 146 420 158 407 175 c 1
 368 206 346 193 309 209 c 0
 273 224 238 265 238 321 c 0
 238 385 275 433 344 438 c 0
 356 438 395 438 395 501 c 0
 395 530 376 555 285 555 c 2
 283 555 l 2
 268 555 195 553 182 516 c 0
 180 510 180 504 180 498 c 2xed
 180 37 l 1
 181 2 159 0 143 -0 c 2
 52 -0 l 2
 20 0 16 19 16 30 c 0xf0
EndSplineSet
EndChar

StartChar: grave.uc
Encoding: 65542 -1 302
Width: 525
Flags: HW
TeX: 598 0
VStem: 119 216<559.496 574.199>
LayerCount: 2
Fore
SplineSet
119 592 m 0
 119 608 131 627 153 627 c 0
 160 627 161 626 306 577 c 0
 320 572 335 565 335 547 c 0
 335 537 329 506 303 506 c 2
 302 506 l 2
 297 506 293 507 152 555 c 0
 134 561 119 570 119 592 c 0
EndSplineSet
EndChar

StartChar: acute.uc
Encoding: 65543 -1 303
Width: 525
Flags: HW
TeX: 598 0
HStem: 506 121
VStem: 189 216<559.95 574.546>
LayerCount: 2
Fore
SplineSet
189 547 m 0
 189 569 209 574 221 578 c 0
 362 626 361 627 371 627 c 0
 388 627 405 613 405 592 c 0
 405 570 389 561 373 556 c 0
 237 510 227 506 221 506 c 0
 195 506 189 538 189 547 c 0
EndSplineSet
EndChar

StartChar: tilde.uc
Encoding: 65544 -1 304
Width: 525
Flags: HW
TeX: 638 0
HStem: 510 67<285.468 380.754> 572 67<143.177 237.156>
LayerCount: 2
Fore
SplineSet
58 541 m 0
 58 561 123 639 189 639 c 0x40
 257 639 291 577 336 577 c 0x80
 381 577 407 639 434 639 c 0x40
 444 639 465 627 465 607 c 0
 465 587 401 510 335 510 c 0x80
 270 510 229 572 188 572 c 0x40
 143 572 117 510 90 510 c 0x80
 73 510 58 526 58 541 c 0
EndSplineSet
EndChar

StartChar: hungarumlaut.uc
Encoding: 65545 -1 306
Width: 525
Flags: HW
TeX: 598 0
HStem: 506 121<278.88 314.142>
LayerCount: 2
Fore
SplineSet
100 546 m 0
 100 572 118 573 262 622 c 0
 269 624 276 627 283 627 c 0
 302 627 317 613 317 590 c 0
 317 587 316 584 316 581 c 1
 449 626 448 627 458 627 c 0
 477 627 492 610 492 592 c 0
 492 569 474 560 459 555 c 0
 323 509 313 506 307 506 c 0
 288 506 274 526 275 552 c 1
 148 509 138 506 132 506 c 0
 107 506 100 538 100 546 c 0
EndSplineSet
EndChar

StartChar: ring.uc
Encoding: 65546 -1 307
Width: 758
Flags: HW
TeX: 638 0
HStem: 410 61<333.394 422.703> 585 62<334.093 423.563>
VStem: 262 59<484.208 571.989> 436 59<484.508 571.508>
LayerCount: 2
Fore
SplineSet
262 528 m 0
 262 599 319 647 378 647 c 0
 437 647 495 598 495 528 c 0
 495 457 438 410 379 410 c 0
 320 410 262 457 262 528 c 0
321 528 m 0
 321 503 340 471 378 471 c 0
 412 471 436 499 436 528 c 0
 436 558 412 585 378 585 c 0
 344 585 321 557 321 528 c 0
EndSplineSet
EndChar

StartChar: twelveudash
Encoding: 61700 61700 308
Width: 700
Flags: HW
TeX: 430 0
ItalicCorrection: 29
HStem: 235 62<1.33381 697.906>
LayerCount: 2
Fore
SplineSet
0 266 m 0
 0 278 7 297 34 297 c 2
 664 297 l 2
 692 297 699 281 699 266 c 0
 699 255 695 235 665 235 c 2
 35 235 l 2
 7 235 0 252 0 266 c 0
EndSplineSet
EndChar

StartChar: threequartersemdash
Encoding: 63198 63198 309
Width: 787
Flags: HW
TeX: 430 0
ItalicCorrection: 29
HStem: 235 62<1.39062 785.75>
LayerCount: 2
Fore
SplineSet
0 266 m 0
 0 278 7 297 34 297 c 2
 752 297 l 2
 782 297 787 277 787 266 c 0
 787 255 782 235 752 235 c 2
 35 235 l 2
 6 235 0 254 0 266 c 0
EndSplineSet
EndChar

StartChar: arrowleft
Encoding: 8592 8592 310
Width: 1050
Flags: HW
TeX: 415 -195
HStem: 271 69<61.3511 155.189 248 987.323>
VStem: 272 82<65.5682 156.047> 282 71<465.168 552.126>
LayerCount: 2
Fore
SplineSet
58 306 m 0
 58 333 89 335 93 336 c 0
 217 367 268 466 282 517 c 0
 287 535 287 554 318 554 c 2
 320 554 l 2
 346 554 353 540 353 525 c 0xa0
 353 511 340 424 248 340 c 1
 947 340 l 2
 986 340 990 316 990 306 c 0
 990 289 978 273 960 271 c 1
 248 271 l 1
 340 188 354 95 354 86 c 0
 354 69 340 57 321 57 c 1
 320 58 l 2
 319 58 319 57 318 57 c 0
 282 57 289 82 272 124 c 0xc0
 260 153 213 248 89 276 c 0
 84 277 58 282 58 306 c 0
EndSplineSet
EndChar

StartChar: arrowright
Encoding: 8594 8594 311
Width: 1050
Flags: HW
TeX: 415 -195
HStem: 271 69<60.6042 801>
VStem: 695 72<59.3898 147.255>
LayerCount: 2
Fore
SplineSet
58 306 m 0
 58 323 71 338 88 340 c 1
 801 340 l 1
 709 421 695 516 695 526 c 0
 696 543 709 554 727 554 c 2
 730 554 l 2
 785 554 744 490 834 402 c 0
 921 317 990 351 990 306 c 0
 990 279 958 276 955 275 c 0
 830 245 781 147 767 95 c 0
 762 78 760 57 731 57 c 2
 730 57 l 2
 703 57 695 70 695 86 c 0
 695 99 708 186 801 271 c 1
 101 271 l 2
 63 271 58 295 58 306 c 0
EndSplineSet
EndChar

StartChar: uni0361.alt
Encoding: 61701 61701 312
Width: 292
Flags: HW
TeX: 610 0
ItalicCorrection: 297
HStem: 482 93<134.623 178.563> 528 63<182.835 485.363>
LayerCount: 2
Fore
SplineSet
110 512 m 0
 110 555 161 567 190 575 c 0x80
 231 586 282 591 329 591 c 2
 334 591 l 2x40
 428 591 558 575 558 512 c 0
 558 501 554 482 522 482 c 0x80
 503 482 494 491 489 505 c 1
 476 511 429 528 337 528 c 0x40
 270 528 215 520 179 505 c 1
 176 498 171 482 146 482 c 0
 114 482 110 501 110 512 c 0
EndSplineSet
EndChar

StartChar: uni0361
Encoding: 865 865 313
Width: 0
Flags: HW
TeX: 791 0
ItalicCorrection: 326
HStem: 575 64<-102.094 117.524>
VStem: -245 71<444.582 520.156> 191 71<444.529 517.783>
AnchorPoint: "affricate-above" 8 440 mark 0
LayerCount: 2
Fore
SplineSet
-245 475 m 0
 -245 556 -146 639 9 639 c 0
 167 639 262 551 262 474 c 0
 262 445 237 443 228 443 c 0
 227 443 226 443 225 443 c 0
 196 443 193 461 191 475 c 0
 186 524 118 575 8 575 c 0
 -71 575 -164 541 -174 479 c 0
 -176 466 -175 443 -209 443 c 2
 -211 443 l 2
 -238 443 -245 459 -245 475 c 0
EndSplineSet
EndChar

StartChar: uni2040.alt
Encoding: 61702 61702 314
Width: 525
Flags: HW
TeX: 610 0
ItalicCorrection: 297
HStem: 527 64<158.17 366.94>
LayerCount: 2
Fore
SplineSet
85 511 m 0
 86 576 199 591 262 591 c 0
 324 591 438 575 438 512 c 0
 438 500 431 482 404 482 c 2
 401 482 l 1
 372 483 373 500 366 507 c 0
 353 519 303 527 262 527 c 0
 194 527 163 512 159 509 c 0
 145 498 154 482 118 482 c 1
 91 483 85 501 85 511 c 0
EndSplineSet
EndChar

StartChar: uni2040
Encoding: 8256 8256 315
Width: 525
Flags: HW
TeX: 610 0
ItalicCorrection: 326
HStem: 575 64<163.747 360.115>
VStem: 27 71<444.575 521.067> 426 70<444.557 521.162>
LayerCount: 2
Fore
SplineSet
27 474 m 0
 27 550 114 639 263 639 c 0
 397 639 496 560 496 474 c 0
 496 445 472 443 463 443 c 2
 460 443 l 2
 431 443 427 462 426 475 c 0
 421 528 354 575 261 575 c 0
 175 575 105 531 98 479 c 0
 96 466 97 443 63 443 c 2
 61 443 l 2
 34 443 27 459 27 474 c 0
EndSplineSet
EndChar

StartChar: uni2422
Encoding: 9250 9250 316
Width: 583
Flags: HW
TeX: 610 0
HStem: -5 61<243.431 387.185> 374 62<242.024 393.355> 549 62<17.3338 111>
VStem: 111 70<1.04861 53 122.927 318.606 382 420 481.007 489.261> 469 70<135.729 296.423>
LayerCount: 2
Fore
SplineSet
16 580 m 0
 16 595 25 606 37 609 c 0
 45 611 53 611 61 611 c 2
 137 611 l 2
 143 611 181 610 181 572 c 2
 181 550 l 1
 314 651 311 650 324 650 c 0
 339 650 355 635 355 618 c 0
 355 598 347 598 196 484 c 0
 184 474 181 475 181 460 c 2
 181 382 l 1
 220 415 267 436 325 436 c 0
 443 436 539 339 539 216 c 0
 539 94 437 -5 314 -5 c 0
 254 -5 212 21 181 53 c 1
 181 37 l 2
 181 24 180 -1 146 -1 c 0
 107 -1 111 37 111 39 c 2
 111 420 l 1
 73 391 68 387 57 387 c 0
 40 387 26 403 26 419 c 0
 26 438 41 444 100 489 c 0
 111 498 111 502 111 515 c 2
 111 549 l 1
 51 549 l 2
 23 549 16 566 16 580 c 0
181 191 m 2
 181 146 223 56 309 56 c 0
 390 56 469 121 469 215 c 0
 469 306 400 374 320 374 c 0
 244 374 181 318 181 266 c 2
 181 191 l 2
EndSplineSet
EndChar

StartChar: quotesingle
Encoding: 39 39 317
Width: 292
Flags: HW
TeX: 610 0
HStem: 328 293<115.875 173.673>
VStem: 100 89<337.598 614.355>
LayerCount: 2
Fore
SplineSet
100 575 m 0
 100 605 123 621 145 621 c 0
 169 621 189 603 189 575 c 0
 189 568 180 437 176 368 c 0
 175 356 176 328 145 328 c 0
 114 328 114 357 113 365 c 0
 109 435 100 568 100 575 c 0
EndSplineSet
EndChar

StartChar: fraction
Encoding: 8260 8260 320
Width: 525
Flags: HW
TeX: 694 83
DStem2: 67 -23 134 -44 0.431221 0.902246<-26.9162 787.009>
LayerCount: 2
Fore
SplineSet
58 -49 m 0
 58 -39 63 -31 67 -23 c 2
 391 656 l 2
 398 670 406 694 431 694 c 0
 449 694 466 678 466 659 c 0
 466 650 462 643 459 636 c 2
 134 -44 l 2
 126 -61 118 -83 93 -83 c 0
 75 -83 58 -68 58 -49 c 0
EndSplineSet
EndChar

StartChar: zerooldstyle
Encoding: 63280 63280 321
Width: 525
Flags: HW
TeX: 430 0
HStem: -11 61<181.872 344.695> 380 62<177.254 345.537>
VStem: 49 70<118.844 318.561> 404 70<115.325 317.606>
LayerCount: 2
Fore
SplineSet
49 216 m 0
 49 397 156 442 261 442 c 0
 370 442 474 397 474 215 c 0
 474 34 368 -11 263 -11 c 0
 154 -11 49 34 49 216 c 0
119 223 m 0
 119 73 205 50 262 50 c 0
 381 50 404 142 404 224 c 0
 404 343 338 380 263 380 c 0
 148 380 119 305 119 223 c 0
EndSplineSet
EndChar

StartChar: oneoldstyle
Encoding: 63281 63281 322
Width: 525
Flags: HW
TeX: 430 0
HStem: -0 62<111.347 241 311 440.766> 419 20G<273 286>
VStem: 241 70<62 350>
LayerCount: 2
Fore
SplineSet
104 365 m 0
 104 418 178 377 247 422 c 0
 259 430 265 439 281 439 c 0
 291 439 311 434 311 403 c 2
 311 62 l 1
 407 62 l 2
 436 62 442 44 442 31 c 0
 442 20 437 1 408 -0 c 1
 146 -0 l 2
 117 0 110 19 110 31 c 0
 110 45 117 62 146 62 c 2
 241 62 l 1
 241 350 l 1
 212 340 177 334 139 334 c 0
 111 334 104 350 104 365 c 0
EndSplineSet
EndChar

StartChar: twooldstyle
Encoding: 63282 63282 323
Width: 525
Flags: HW
TeX: 430 0
HStem: -0 62<196 401> 380 62<145.303 353.852>
VStem: 58 85<292.934 352.672> 401 70<62 91.9236 239.038 341.117>
LayerCount: 2
Fore
SplineSet
46 31 m 0
 46 51 62 59 73 65 c 0
 321 196 346 204 376 235 c 0
 392 252 401 269 401 292 c 0
 401 362 309 380 240 380 c 0
 178 380 153 365 137 353 c 1
 140 346 143 339 143 330 c 0
 143 305 122 287 101 287 c 0
 87 287 58 296 58 332 c 0
 58 376 91 442 245 442 c 0
 430 442 471 352 471 292 c 0
 471 187 354 143 295 113 c 2
 196 62 l 1
 401 62 l 1
 401 86 420 94 436 94 c 0
 472 94 471 66 471 58 c 0
 471 51 471 44 471 37 c 0
 471 24 473 0 435 -0 c 2
 81 -0 l 1
 53 1 46 18 46 31 c 0
EndSplineSet
EndChar

